<svg width="73" height="69" viewBox="0 0 73 69" fill="none" xmlns="http://www.w3.org/2000/svg">
<g filter="url(#filter0_ii_11399_9732)">
<path fill-rule="evenodd" clip-rule="evenodd" d="M22.9041 66.7017C27.1639 66.0163 28.4614 65.4777 31.3992 65.7714C30.3954 63.4702 22.39 56.6399 19.9908 58.5004C18.4485 59.7245 18.6443 67.3627 22.9041 66.7017ZM50.3723 66.7017C46.1125 66.0163 44.815 65.4777 41.8528 65.7714C42.881 63.4702 50.8619 56.6399 53.2611 58.5004C54.8279 59.7245 54.6321 67.3627 50.3723 66.7017Z" fill="#B99672"/>
<g filter="url(#filter1_f_11399_9732)">
<path fill-rule="evenodd" clip-rule="evenodd" d="M28.4373 65.7714C29.3431 65.6735 30.2489 65.6735 31.3996 65.7714C30.3958 63.4702 22.3904 56.6399 19.9912 58.5004C19.5016 58.8921 19.1833 59.8959 19.1099 61.071C21.6315 62.0992 24.153 63.1274 26.3074 64.376C27.0908 64.8167 27.7763 65.2818 28.4373 65.7714ZM54.1428 61.071C51.6213 62.0992 49.0997 63.1274 46.9453 64.376C46.1619 64.8167 45.4764 65.3063 44.8154 65.7714C43.9096 65.6735 43.0038 65.6735 41.8531 65.7714C42.8814 63.4702 50.8623 56.6399 53.2615 58.5004C53.7511 58.8921 54.0694 59.8959 54.1428 61.071Z" fill="#9C7C5C"/>
</g>
<path fill-rule="evenodd" clip-rule="evenodd" d="M69.1007 31.3308C71.2551 33.1424 72.6016 35.8599 72.6016 38.8711C72.6016 45.7259 69.6638 49.594 63.6658 53.9517C58.794 57.5015 51.9637 59.4845 46.9205 62.6916C43.1504 65.1152 41.5101 68.2733 36.6138 68.2733C31.7175 68.2733 30.0772 65.1152 26.2826 62.6916C21.2639 59.4845 14.4336 57.5015 9.5373 53.9517C3.56382 49.594 0.601562 45.7259 0.601562 38.8711C0.601562 35.8354 1.97252 33.1424 4.10241 31.3308C2.41319 29.5436 1.38497 27.1689 1.38497 24.5249C1.38497 19.0901 5.74267 14.7079 11.1531 14.6344C11.1531 9.17506 15.5842 4.71943 21.0436 4.71943C23.3204 4.71943 25.4013 5.47836 27.066 6.77588C28.5104 2.93229 32.2071 0.214844 36.5404 0.214844C40.8736 0.214844 44.5948 2.93229 46.0147 6.77588C47.6794 5.50284 49.7848 4.71943 52.0371 4.71943C57.4965 4.71943 61.9521 9.15058 61.9521 14.6344C67.3625 14.7079 71.7202 19.1145 71.7202 24.5249C71.8182 27.1689 70.7899 29.5681 69.1007 31.3308Z" fill="#E2C4A2"/>
<mask id="mask0_11399_9732" style="mask-type:alpha" maskUnits="userSpaceOnUse" x="0" y="0" width="73" height="69">
<path fill-rule="evenodd" clip-rule="evenodd" d="M69.1007 31.3308C71.2551 33.1424 72.6016 35.8599 72.6016 38.8711C72.6016 45.7259 69.6638 49.594 63.6658 53.9517C58.794 57.5015 51.9637 59.4845 46.9205 62.6916C43.1504 65.1152 41.5101 68.2733 36.6138 68.2733C31.7175 68.2733 30.0772 65.1152 26.2826 62.6916C21.2639 59.4845 14.4336 57.5015 9.5373 53.9517C3.56382 49.594 0.601562 45.7259 0.601562 38.8711C0.601562 35.8354 1.97252 33.1424 4.10241 31.3308C2.41319 29.5436 1.38497 27.1689 1.38497 24.5249C1.38497 19.0901 5.74267 14.7079 11.1531 14.6344C11.1531 9.17506 15.5842 4.71943 21.0436 4.71943C23.3204 4.71943 25.4013 5.47836 27.066 6.77588C28.5104 2.93229 32.2071 0.214844 36.5404 0.214844C40.8736 0.214844 44.5948 2.93229 46.0147 6.77588C47.6794 5.50284 49.7848 4.71943 52.0371 4.71943C57.4965 4.71943 61.9521 9.15058 61.9521 14.6344C67.3625 14.7079 71.7202 19.1145 71.7202 24.5249C71.8182 27.1689 70.7899 29.5681 69.1007 31.3308Z" fill="#E2C4A2"/>
</mask>
<g mask="url(#mask0_11399_9732)">
<g filter="url(#filter2_f_11399_9732)">
<path fill-rule="evenodd" clip-rule="evenodd" d="M65.1835 52.8508C64.6938 53.218 64.2042 53.6097 63.6901 53.9769C58.8183 57.5268 51.988 59.5098 46.9448 62.7168C43.1746 65.1405 41.5344 68.2986 36.6381 68.2986C31.7418 68.2986 30.1015 65.1405 26.3069 62.7168C21.2882 59.5098 14.4579 57.5268 9.56157 53.9769C9.04746 53.5852 8.55783 53.218 8.0682 52.8508C7.21135 51.1371 6.79517 49.2031 6.79517 46.8528C6.79517 44.3312 7.92131 42.1034 9.70846 40.5856C4.86113 35.469 7.79891 26.827 14.9965 26.7536C14.9965 19.8987 22.3409 16.1776 27.6289 20.2415C30.0036 12.2605 43.1991 12.236 45.5738 20.2415C50.8863 16.1531 58.2063 19.8743 58.2063 26.7536C65.4038 26.8515 68.3416 35.469 63.5187 40.5856C65.3059 42.1034 66.4076 44.3312 66.4076 46.8528C66.432 49.2031 66.0159 51.1371 65.1835 52.8508Z" fill="#D0B28F"/>
</g>
<g filter="url(#filter3_f_11399_9732)">
<path fill-rule="evenodd" clip-rule="evenodd" d="M51.5964 60.217C49.9561 61.0005 48.3648 61.8083 46.9449 62.7386C43.1747 65.1623 41.5345 68.3204 36.6382 68.3204C31.7419 68.3204 30.1016 65.1623 26.307 62.7386C24.8871 61.8328 23.2958 61.0005 21.6555 60.217C26.5763 48.3925 46.6756 48.3925 51.5964 60.217Z" fill="#E2C4A2"/>
</g>
<g style="mix-blend-mode:screen" opacity="0.5" filter="url(#filter4_f_11399_9732)">
<path fill-rule="evenodd" clip-rule="evenodd" d="M46.6513 62.9332C43.077 65.3324 41.4123 68.3191 36.6384 68.3191C31.8645 68.3191 30.1998 65.3324 26.6255 62.9332C29.857 54.9767 43.3708 54.9767 46.6513 62.9332Z" fill="#EFD9C1"/>
</g>
<g style="mix-blend-mode:multiply" opacity="0.6" filter="url(#filter5_f_11399_9732)">
<path fill-rule="evenodd" clip-rule="evenodd" d="M4.15132 31.3296C3.71065 31.6968 3.29447 32.113 2.92725 32.5536C8.77832 42.9338 23.1489 54.8318 28.2166 58.3326C23.3203 54.4401 9.24346 39.9715 4.15132 31.3296ZM27.1394 6.77465C26.5519 6.33399 25.8909 5.9178 25.2054 5.62402C26.0133 24.3523 29.4162 37.7437 34.4104 55.1255C29.8324 35.418 28.1921 22.6142 27.1394 6.77465ZM11.2265 14.6332C10.5655 14.6332 9.90447 14.7066 9.26795 14.8535C14.5804 30.5462 21.5087 42.3952 31.1544 56.2027C20.4315 39.286 16.5389 30.0565 11.2265 14.6332ZM69.1007 31.3296C69.5413 31.6968 69.9575 32.113 70.3247 32.5536C64.4737 42.9338 50.103 54.8318 45.0354 58.3326C49.9317 54.4401 64.0085 39.9715 69.1007 31.3296ZM46.1126 6.77465C46.7001 6.33399 47.3611 5.9178 48.0466 5.62402C47.2387 24.3523 43.8358 37.7437 38.8416 55.1255C43.4196 35.418 45.0599 22.6142 46.1126 6.77465ZM62.05 14.6332C62.711 14.6332 63.372 14.7066 64.0085 14.8535C58.696 30.5462 51.7678 42.3952 42.1221 56.2027C52.8205 39.286 56.713 30.0565 62.05 14.6332Z" fill="#927857"/>
</g>
<g style="mix-blend-mode:screen" opacity="0.5" filter="url(#filter6_f_11399_9732)">
<path fill-rule="evenodd" clip-rule="evenodd" d="M69.2234 43.2517C66.6039 45.8713 60.3366 49.4455 59.8714 49.0049C59.4308 48.5642 64.0823 43.3497 66.8976 40.5343C69.3458 38.0862 71.8674 40.6322 69.2234 43.2517ZM37.9116 10.7404C37.9116 20.6553 35.5124 38.3554 33.9701 38.3554C32.4032 38.3554 30.0041 20.6553 30.0041 10.7404C30.0041 2.17184 37.9116 2.17184 37.9116 10.7404ZM14.2625 17.179C16.3434 25.2334 23.6144 40.0936 24.9364 39.7509C26.2584 39.3837 23.1737 23.9848 20.9459 15.3429C19.0119 7.87602 12.1571 9.12457 14.2625 17.179ZM4.73918 28.3915C7.7504 34.3405 16.0741 44.6961 17.0778 44.2065C18.0816 43.6924 13.0629 32.1861 9.80684 25.8209C7.04044 20.3126 1.72796 22.4425 4.73918 28.3915ZM3.73544 45.8223C6.35496 48.4418 12.6222 52.0161 13.0874 51.5754C13.528 51.1348 8.87655 45.9202 6.06118 43.1049C3.63751 40.6567 1.11592 43.2028 3.73544 45.8223ZM56.7133 16.4935C54.6324 24.5479 47.3614 39.4082 46.0394 39.0654C44.7174 38.6982 47.8021 23.2993 50.0299 14.6574C51.9639 7.19054 58.7943 8.43909 56.7133 16.4935ZM67.5341 27.3143C64.2047 33.0919 55.3424 43.0069 54.3631 42.4439C53.3839 41.8808 59.0146 30.6683 62.5889 24.4745C65.6736 19.1375 70.8636 21.5612 67.5341 27.3143Z" fill="#F7E1C9"/>
</g>
<g style="mix-blend-mode:screen" opacity="0.3" filter="url(#filter7_f_11399_9732)">
<path fill-rule="evenodd" clip-rule="evenodd" d="M34.1772 13.4498C35.441 13.4498 36.4618 11.9031 36.4618 10.018C36.4618 8.13291 35.441 6.61035 34.1772 6.61035C32.9134 6.61035 31.8927 8.15708 31.8927 10.0421C31.8927 11.9272 32.9134 13.4498 34.1772 13.4498Z" fill="white"/>
<path fill-rule="evenodd" clip-rule="evenodd" d="M55.1029 11.5647C56.0993 11.9514 56.4396 13.4981 55.832 14.9965C55.2487 16.4949 53.9606 17.3891 52.9641 17.0024C51.9677 16.6157 51.6274 15.069 52.235 13.5706C52.8183 12.0722 54.1064 11.178 55.1029 11.5647Z" fill="white"/>
<path fill-rule="evenodd" clip-rule="evenodd" d="M66.9145 23.0685C67.6923 23.5035 67.7652 24.8085 67.0847 25.9686C66.4041 27.1286 65.2133 27.6845 64.4598 27.2495C63.6821 26.7903 63.6092 25.4852 64.2897 24.3494C64.9702 23.2135 66.1368 22.6335 66.9145 23.0685Z" fill="white"/>
<path fill-rule="evenodd" clip-rule="evenodd" d="M69.588 40.6625C69.9768 41.0975 69.7338 41.9192 69.0776 42.4992C68.4214 43.0792 67.5707 43.1759 67.1819 42.7409C66.793 42.3059 67.036 41.4842 67.6922 40.9041C68.3728 40.3241 69.2234 40.2033 69.588 40.6625Z" fill="white"/>
<path fill-rule="evenodd" clip-rule="evenodd" d="M16.557 12.7489C15.5119 12.9664 14.9286 14.4406 15.2689 16.0115C15.6091 17.5824 16.7271 18.6941 17.7965 18.4525C18.8415 18.235 19.4248 16.7607 19.0846 15.1898C18.72 13.6189 17.602 12.5314 16.557 12.7489Z" fill="white"/>
<path fill-rule="evenodd" clip-rule="evenodd" d="M6.1063 24.301C5.27997 24.6394 5.03693 25.9202 5.54731 27.1528C6.05769 28.3853 7.15137 29.1104 7.95339 28.772C8.77972 28.4337 9.04707 27.1528 8.53669 25.9202C8.0263 24.6877 6.93263 23.9627 6.1063 24.301Z" fill="white"/>
<path fill-rule="evenodd" clip-rule="evenodd" d="M4.08908 43.2001C3.65161 43.5626 3.72452 44.4084 4.28351 45.0851C4.8425 45.7618 5.64453 46.0035 6.1063 45.641C6.54377 45.2785 6.47086 44.4326 5.91187 43.7559C5.35288 43.0792 4.55085 42.8376 4.08908 43.2001Z" fill="white"/>
</g>
</g>
</g>
<defs>
<filter id="filter0_ii_11399_9732" x="0.601562" y="-0.785156" width="72" height="70.0586" filterUnits="userSpaceOnUse" color-interpolation-filters="sRGB">
<feFlood flood-opacity="0" result="BackgroundImageFix"/>
<feBlend mode="normal" in="SourceGraphic" in2="BackgroundImageFix" result="shape"/>
<feColorMatrix in="SourceAlpha" type="matrix" values="0 0 0 0 0 0 0 0 0 0 0 0 0 0 0 0 0 0 127 0" result="hardAlpha"/>
<feOffset dy="-1"/>
<feGaussianBlur stdDeviation="0.5"/>
<feComposite in2="hardAlpha" operator="arithmetic" k2="-1" k3="1"/>
<feColorMatrix type="matrix" values="0 0 0 0 0.584314 0 0 0 0 0.411765 0 0 0 0 0.254902 0 0 0 0.6 0"/>
<feBlend mode="normal" in2="shape" result="effect1_innerShadow_11399_9732"/>
<feColorMatrix in="SourceAlpha" type="matrix" values="0 0 0 0 0 0 0 0 0 0 0 0 0 0 0 0 0 0 127 0" result="hardAlpha"/>
<feOffset dy="1"/>
<feGaussianBlur stdDeviation="1"/>
<feComposite in2="hardAlpha" operator="arithmetic" k2="-1" k3="1"/>
<feColorMatrix type="matrix" values="0 0 0 0 1 0 0 0 0 1 0 0 0 0 1 0 0 0 0.7 0"/>
<feBlend mode="normal" in2="effect1_innerShadow_11399_9732" result="effect2_innerShadow_11399_9732"/>
</filter>
<filter id="filter1_f_11399_9732" x="17.1099" y="56.1831" width="39.033" height="11.5884" filterUnits="userSpaceOnUse" color-interpolation-filters="sRGB">
<feFlood flood-opacity="0" result="BackgroundImageFix"/>
<feBlend mode="normal" in="SourceGraphic" in2="BackgroundImageFix" result="shape"/>
<feGaussianBlur stdDeviation="1" result="effect1_foregroundBlur_11399_9732"/>
</filter>
<filter id="filter2_f_11399_9732" x="4.79517" y="12.2466" width="63.6135" height="58.0522" filterUnits="userSpaceOnUse" color-interpolation-filters="sRGB">
<feFlood flood-opacity="0" result="BackgroundImageFix"/>
<feBlend mode="normal" in="SourceGraphic" in2="BackgroundImageFix" result="shape"/>
<feGaussianBlur stdDeviation="1" result="effect1_foregroundBlur_11399_9732"/>
</filter>
<filter id="filter3_f_11399_9732" x="19.6555" y="49.3486" width="33.9409" height="20.9717" filterUnits="userSpaceOnUse" color-interpolation-filters="sRGB">
<feFlood flood-opacity="0" result="BackgroundImageFix"/>
<feBlend mode="normal" in="SourceGraphic" in2="BackgroundImageFix" result="shape"/>
<feGaussianBlur stdDeviation="1" result="effect1_foregroundBlur_11399_9732"/>
</filter>
<filter id="filter4_f_11399_9732" x="24.6255" y="54.9658" width="24.0259" height="15.3535" filterUnits="userSpaceOnUse" color-interpolation-filters="sRGB">
<feFlood flood-opacity="0" result="BackgroundImageFix"/>
<feBlend mode="normal" in="SourceGraphic" in2="BackgroundImageFix" result="shape"/>
<feGaussianBlur stdDeviation="1" result="effect1_foregroundBlur_11399_9732"/>
</filter>
<filter id="filter5_f_11399_9732" x="-0.0727539" y="2.62402" width="73.3975" height="58.7085" filterUnits="userSpaceOnUse" color-interpolation-filters="sRGB">
<feFlood flood-opacity="0" result="BackgroundImageFix"/>
<feBlend mode="normal" in="SourceGraphic" in2="BackgroundImageFix" result="shape"/>
<feGaussianBlur stdDeviation="1.5" result="effect1_foregroundBlur_11399_9732"/>
</filter>
<filter id="filter6_f_11399_9732" x="0.624512" y="2.31396" width="71.7253" height="51.2988" filterUnits="userSpaceOnUse" color-interpolation-filters="sRGB">
<feFlood flood-opacity="0" result="BackgroundImageFix"/>
<feBlend mode="normal" in="SourceGraphic" in2="BackgroundImageFix" result="shape"/>
<feGaussianBlur stdDeviation="1" result="effect1_foregroundBlur_11399_9732"/>
</filter>
<filter id="filter7_f_11399_9732" x="2.80591" y="5.61035" width="67.9685" height="41.1987" filterUnits="userSpaceOnUse" color-interpolation-filters="sRGB">
<feFlood flood-opacity="0" result="BackgroundImageFix"/>
<feBlend mode="normal" in="SourceGraphic" in2="BackgroundImageFix" result="shape"/>
<feGaussianBlur stdDeviation="0.5" result="effect1_foregroundBlur_11399_9732"/>
</filter>
</defs>
</svg>
