<svg width="32" height="32" viewBox="0 0 32 32" fill="none" xmlns="http://www.w3.org/2000/svg">
<path fill-rule="evenodd" clip-rule="evenodd" d="M24.8991 25.5703C24.8991 25.5703 26.7324 25.5703 26.7324 23.9036C26.7324 22.237 24.8991 17.237 15.7324 17.237C6.56576 17.237 4.73242 22.237 4.73242 23.9036C4.73242 25.5703 6.56576 25.5703 6.56576 25.5703H24.8991ZM6.58744 24.1786C6.5748 24.1778 6.54766 24.1756 6.51148 24.1701C6.43179 24.158 6.34908 24.1365 6.28503 24.1074C6.2473 24.0902 6.23094 24.0774 6.22573 24.0727C6.2182 24.0563 6.20202 24.0071 6.20202 23.9036C6.20202 23.4461 6.49956 22.143 7.81267 20.9492C9.08659 19.7911 11.4421 18.6286 15.7324 18.6286C20.0228 18.6286 22.3783 19.7911 23.6522 20.9492C24.9653 22.143 25.2628 23.4461 25.2628 23.9036C25.2628 24.0071 25.2466 24.0563 25.2391 24.0727C25.2339 24.0774 25.2175 24.0902 25.1798 24.1074C25.1158 24.1365 25.0331 24.158 24.9534 24.1701C24.9172 24.1756 24.89 24.1778 24.8774 24.1786H6.58744ZM25.2353 24.0793C25.2352 24.0791 25.2362 24.0771 25.2387 24.0737C25.2368 24.0777 25.2355 24.0795 25.2353 24.0793ZM25.2402 24.0717C25.2408 24.0709 25.2412 24.0706 25.2411 24.0708L25.2402 24.0717ZM6.22376 24.0707C6.22379 24.0707 6.22413 24.0711 6.2247 24.0718L6.22376 24.0707ZM6.22618 24.0737C6.2287 24.0772 6.22965 24.0792 6.2295 24.0793C6.22934 24.0794 6.22808 24.0777 6.22618 24.0737ZM15.7324 14.1786C16.8203 14.1786 17.8521 13.7853 18.6038 13.1019C19.3534 12.4204 19.7628 11.5085 19.7628 10.5703C19.7628 9.63208 19.3534 8.72019 18.6038 8.03871C17.8521 7.35537 16.8203 6.96198 15.7324 6.96198C14.6446 6.96198 13.6128 7.35537 12.8611 8.03871C12.1114 8.72019 11.702 9.63208 11.702 10.5703C11.702 11.5085 12.1114 12.4204 12.8611 13.1019C13.6128 13.7853 14.6446 14.1786 15.7324 14.1786ZM19.6215 14.1058C18.5901 15.0435 17.1911 15.5703 15.7324 15.5703C14.2737 15.5703 12.8748 15.0435 11.8433 14.1058C10.8119 13.1682 10.2324 11.8964 10.2324 10.5703C10.2324 9.24423 10.8119 7.97246 11.8433 7.03478C12.8748 6.0971 14.2737 5.57031 15.7324 5.57031C17.1911 5.57031 18.5901 6.0971 19.6215 7.03478C20.653 7.97246 21.2324 9.24423 21.2324 10.5703C21.2324 11.8964 20.653 13.1682 19.6215 14.1058Z" fill="#10559A"/>
</svg>
