<svg width="32" height="32" viewBox="0 0 32 32" fill="none" xmlns="http://www.w3.org/2000/svg">
<path d="M6.83333 26C6.83333 26 5 26 5 24.3333C5 22.6667 6.83333 17.6667 16 17.6667C25.1667 17.6667 27 22.6667 27 24.3333C27 26 25.1667 26 25.1667 26H6.83333ZM16 16C17.4587 16 18.8576 15.4732 19.8891 14.5355C20.9205 13.5979 21.5 12.3261 21.5 11C21.5 9.67392 20.9205 8.40215 19.8891 7.46447C18.8576 6.52678 17.4587 6 16 6C14.5413 6 13.1424 6.52678 12.1109 7.46447C11.0795 8.40215 10.5 9.67392 10.5 11C10.5 12.3261 11.0795 13.5979 12.1109 14.5355C13.1424 15.4732 14.5413 16 16 16Z" fill="white"/>
</svg>
