<svg width="32" height="32" viewBox="0 0 32 32" fill="none" xmlns="http://www.w3.org/2000/svg">
<path fill-rule="evenodd" clip-rule="evenodd" d="M4 8.76904C4 7.23623 5.28497 6 6.80853 6H20.7761C21.9723 6 23.0215 6.76213 23.4171 7.83154H6.80853C6.27118 7.83154 5.83556 8.25127 5.83556 8.76904C5.83556 9.28681 6.27118 9.70654 6.80853 9.70654H25.1915C26.715 9.70654 28 10.9428 28 12.4756V14.1305H22.2843C20.1842 14.1305 18.4697 15.8034 18.4697 17.8533C18.4697 19.877 20.1794 21.576 22.2843 21.576H28V23.231C28 24.7638 26.715 26 25.1915 26H6.81414C5.27521 25.9816 4 24.753 4 23.231V8.76904ZM22.2843 16.0055H28V19.701H22.2843C21.2853 19.701 20.4157 18.8719 20.4157 17.8533C20.4157 16.818 21.2805 16.0055 22.2843 16.0055ZM23.352 17.87C23.352 18.4094 22.9255 18.8203 22.3924 18.8203C21.8593 18.8203 21.4061 18.4094 21.4061 17.87C21.4061 17.3563 21.8593 16.9453 22.3924 16.9453C22.9255 16.9453 23.352 17.3563 23.352 17.87Z" fill="white"/>
</svg>
