<svg width="32" height="32" viewBox="0 0 32 32" fill="none" xmlns="http://www.w3.org/2000/svg">
<path fill-rule="evenodd" clip-rule="evenodd" d="M5.67442 9.48108C5.67442 8.1903 6.78009 7.14926 8.09106 7.14926H20.1096C21.139 7.14926 22.0417 7.79105 22.3821 8.69161H8.09106C7.62869 8.69161 7.25385 9.04507 7.25385 9.48108C7.25385 9.9171 7.62869 10.2706 8.09106 10.2706H23.9089C25.2199 10.2706 26.3256 11.3116 26.3256 12.6024V13.996H21.4074C19.6003 13.996 18.1251 15.4047 18.1251 17.131C18.1251 18.8352 19.5962 20.2659 21.4074 20.2659H26.3256V21.6595C26.3256 22.9503 25.2199 23.9914 23.9089 23.9914H8.09588C6.77169 23.9759 5.67442 22.9413 5.67442 21.6595V9.48108ZM20.1096 5.57031C22.0884 5.57031 23.7351 6.92676 24.1171 8.69664C26.2827 8.80141 28 10.5311 28 12.6024V21.6595C28 23.7968 26.1716 25.5703 23.9089 25.5703L8.0821 25.5703C5.83455 25.5476 4 23.8045 4 21.6595V9.48108C4 7.34385 5.82844 5.57031 8.09106 5.57031H20.1096ZM21.4074 15.575H26.3256V18.687H21.4074C20.5478 18.687 19.7995 17.9887 19.7995 17.131C19.7995 16.2591 20.5437 15.575 21.4074 15.575ZM22.325 17.138C22.325 17.5923 21.958 17.9383 21.4992 17.9383C21.0405 17.9383 20.6505 17.5923 20.6505 17.138C20.6505 16.7054 21.0405 16.3594 21.4992 16.3594C21.958 16.3594 22.325 16.7054 22.325 17.138Z" fill="#2D81FF"/>
</svg>
