<svg width="32" height="32" viewBox="0 0 32 32" fill="none" xmlns="http://www.w3.org/2000/svg">
<path fill-rule="evenodd" clip-rule="evenodd" d="M19.8268 6.7612C18.6136 6.25866 17.3132 6 16 6C13.3478 6 10.8043 7.05357 8.92893 8.92893C7.05357 10.8043 6 13.3478 6 16C6 21.5 10.47 26 16 26C18.6522 26 21.1957 24.9464 23.0711 23.0711C24.9464 21.1957 26 18.6522 26 16C26 14.6868 25.7413 13.3864 25.2388 12.1732C24.7362 10.9599 23.9997 9.85752 23.0711 8.92893C22.1425 8.00035 21.0401 7.26375 19.8268 6.7612ZM16.4994 16.253V11.003H14.9994V17.003L20.2494 20.153L20.9994 18.923L16.4994 16.253Z" fill="white"/>
</svg>
