<svg width="32" height="32" viewBox="0 0 32 32" fill="none" xmlns="http://www.w3.org/2000/svg">
<path fill-rule="evenodd" clip-rule="evenodd" d="M24.2609 15.5703C24.2609 20.1327 20.5624 23.8312 16 23.8312C11.4376 23.8312 7.73913 20.1327 7.73913 15.5703C7.73913 11.008 11.4376 7.30944 16 7.30944C20.5624 7.30944 24.2609 11.008 24.2609 15.5703ZM26 15.5703C26 21.0932 21.5228 25.5703 16 25.5703C10.4772 25.5703 6 21.0932 6 15.5703C6 10.0475 10.4772 5.57031 16 5.57031C21.5228 5.57031 26 10.0475 26 15.5703ZM16.4994 15.8233V10.5733H14.9994V16.5733L20.2494 19.7233L20.9994 18.4933L16.4994 15.8233Z" fill="#10559A"/>
</svg>
