<svg width="32" height="32" viewBox="0 0 32 32" fill="none" xmlns="http://www.w3.org/2000/svg">
<path fill-rule="evenodd" clip-rule="evenodd" d="M16 6.00022C14.2995 6.00022 12.894 6.14999 11.8121 6.33231L11.6874 6.35371C10.7479 6.51092 9.96651 6.64208 9.35535 7.3937C8.96465 7.87648 8.83721 8.39834 8.80837 8.97973L8.3507 9.13228C7.92 9.27554 7.5414 9.40205 7.24279 9.54158C6.91907 9.69228 6.62233 9.88576 6.39535 10.2011C6.16837 10.5155 6.07814 10.8588 6.03721 11.2132C6 11.5416 6 11.9388 6 12.3936V12.5285C6 12.9025 6 13.2327 6.02791 13.509C6.05767 13.8076 6.12372 14.0987 6.28837 14.3797C6.45488 14.6615 6.67628 14.8606 6.92372 15.0318C7.15163 15.1899 7.44 15.3508 7.76744 15.5322L10.2233 16.8968C10.7256 17.8838 11.4149 18.7638 12.3628 19.3991C13.1879 19.9536 14.1786 20.3015 15.3516 20.3936C15.319 20.4755 15.3023 20.563 15.3023 20.6512V22.2791H13.9721C13.5957 22.2791 13.231 22.4095 12.94 22.6482C12.6489 22.8868 12.4496 23.2189 12.3758 23.5879L12.1721 24.6047H10.4186C10.2336 24.6047 10.0561 24.6782 9.92527 24.809C9.79444 24.9398 9.72093 25.1173 9.72093 25.3023C9.72093 25.4874 9.79444 25.6648 9.92527 25.7957C10.0561 25.9265 10.2336 26 10.4186 26H21.5814C21.7664 26 21.9439 25.9265 22.0747 25.7957C22.2056 25.6648 22.2791 25.4874 22.2791 25.3023C22.2791 25.1173 22.2056 24.9398 22.0747 24.809C21.9439 24.6782 21.7664 24.6047 21.5814 24.6047H19.8279L19.6242 23.5879C19.5504 23.2189 19.3511 22.8868 19.06 22.6482C18.769 22.4095 18.4043 22.2791 18.0279 22.2791H16.6977V20.6512C16.6977 20.563 16.681 20.4755 16.6484 20.3936C17.8214 20.3005 18.8121 19.9536 19.6372 19.4001C20.586 18.7638 21.2744 17.8838 21.7767 16.8968L24.2326 15.5322C24.56 15.3508 24.8484 15.1899 25.0763 15.0318C25.3228 14.8606 25.5451 14.6615 25.7107 14.3806C25.8763 14.0987 25.9433 13.8076 25.9721 13.509C26 13.2327 26 12.9025 26 12.5285V12.3936C26 11.9397 26 11.5416 25.9628 11.2132C25.9219 10.8588 25.8326 10.5155 25.6047 10.2011C25.3777 9.88576 25.0809 9.69228 24.7581 9.54065C24.4577 9.40112 24.08 9.27554 23.6493 9.13228L23.1916 8.97973C23.1637 8.39741 23.0363 7.87648 22.6447 7.3937C22.0344 6.64115 21.253 6.50999 20.3135 6.35371L20.1879 6.33231C18.8036 6.10539 17.4028 5.99431 16 6.00022ZM18.4047 24.6047L18.2558 23.8614C18.2453 23.8087 18.2168 23.7613 18.1753 23.7272C18.1337 23.6931 18.0816 23.6745 18.0279 23.6744H13.9721C13.9184 23.6745 13.8663 23.6931 13.8247 23.7272C13.7832 23.7613 13.7547 23.8087 13.7442 23.8614L13.5953 24.6047H18.4047ZM8.82605 10.4448L8.83907 10.4402C8.90605 11.8541 9.06512 13.4169 9.46326 14.8773L8.47163 14.3276C8.10977 14.1257 7.88279 13.9992 7.71907 13.8857C7.56837 13.7806 7.51907 13.7183 7.49209 13.6718C7.46419 13.6253 7.43442 13.5527 7.41581 13.3704C7.39609 13.08 7.38926 12.7888 7.39535 12.4978V12.4299C7.39535 11.9285 7.39628 11.6113 7.42326 11.3713C7.4493 11.1499 7.49023 11.0671 7.52744 11.0169C7.56372 10.9658 7.62884 10.9006 7.8307 10.8067C8.05023 10.7044 8.35163 10.6039 8.82605 10.4448ZM23.1609 10.4392C23.0949 11.8532 22.9349 13.416 22.5377 14.8764L23.5284 14.3266C23.8902 14.1248 24.1172 13.9983 24.2809 13.8848C24.4316 13.7797 24.4809 13.7173 24.5079 13.6708C24.5358 13.6243 24.5656 13.5518 24.5842 13.3694C24.6037 13.1704 24.6047 12.9108 24.6047 12.4969V12.429C24.6047 11.9276 24.6037 11.6104 24.5767 11.3704C24.5507 11.149 24.5098 11.0662 24.4726 11.016C24.4363 10.9648 24.3712 10.8997 24.1693 10.8058C23.9498 10.7034 23.6484 10.602 23.174 10.443L23.1609 10.4392ZM12.0447 7.70811C13.3521 7.4942 14.6752 7.38965 16 7.39556C17.6186 7.39556 18.946 7.53788 19.9553 7.70811C21.0781 7.89788 21.3135 7.96857 21.5619 8.27369C21.8056 8.57322 21.8288 8.85787 21.7786 10.1183C21.6949 12.2188 21.4177 14.4866 20.56 16.2113C20.1358 17.0615 19.5814 17.7573 18.8605 18.241C18.1433 18.7219 17.2177 19.0233 16 19.0233C14.7823 19.0233 13.8577 18.7219 13.1405 18.241C12.4186 17.7573 11.8642 17.0615 11.4409 16.2103C10.5823 14.4866 10.306 12.2197 10.2223 10.1174C10.1721 8.85787 10.1944 8.57322 10.4391 8.27369C10.6865 7.96857 10.9219 7.89788 12.0447 7.70811Z" fill="#2D81FF"/>
</svg>
