<svg width="27" height="27" viewBox="0 0 27 27" fill="none" xmlns="http://www.w3.org/2000/svg">
<circle cx="13.5" cy="13.5" r="13" fill="black" stroke="#FFFBBB"/>
<path d="M7 20.678V13.322C7 13.2081 7 13.1512 6.97748 13.1078C6.95851 13.0713 6.92872 13.0415 6.89219 13.0225C6.84885 13 6.7919 13 6.678 13H5.77738C5.53094 13 5.40772 13 5.35117 12.9505C5.30423 12.9095 5.27913 12.8489 5.28329 12.7867C5.2883 12.7117 5.37543 12.6246 5.54969 12.4503L12.7723 5.22769C12.8528 5.14715 12.8931 5.10688 12.9397 5.09215C12.9789 5.07974 13.0211 5.07974 13.0603 5.09215C13.1069 5.10688 13.1472 5.14715 13.2277 5.22769L20.4503 12.4503C20.6246 12.6246 20.7117 12.7117 20.7167 12.7867C20.7209 12.8489 20.6958 12.9095 20.6488 12.9505C20.5923 13 20.4691 13 20.2226 13H19.322C19.2081 13 19.1512 13 19.1078 13.0225C19.0713 13.0415 19.0415 13.0713 19.0225 13.1078C19 13.1512 19 13.2081 19 13.322V20.678C19 20.7919 19 20.8488 18.9775 20.8922C18.9585 20.9287 18.9287 20.9585 18.8922 20.9775C18.8488 21 18.7919 21 18.678 21H14.822C14.7081 21 14.6512 21 14.6078 20.9775C14.5713 20.9585 14.5415 20.9287 14.5225 20.8922C14.5 20.8488 14.5 20.7919 14.5 20.678V15.322C14.5 15.2081 14.5 15.1512 14.4775 15.1078C14.4585 15.0713 14.4287 15.0415 14.3922 15.0225C14.3488 15 14.2919 15 14.178 15H11.822C11.7081 15 11.6512 15 11.6078 15.0225C11.5713 15.0415 11.5415 15.0713 11.5225 15.1078C11.5 15.1512 11.5 15.2081 11.5 15.322V20.678C11.5 20.7919 11.5 20.8488 11.4775 20.8922C11.4585 20.9287 11.4287 20.9585 11.3922 20.9775C11.3488 21 11.2919 21 11.178 21H7.322C7.2081 21 7.15115 21 7.10781 20.9775C7.07128 20.9585 7.04149 20.9287 7.02252 20.8922C7 20.8488 7 20.7919 7 20.678Z" fill="url(#paint0_radial_2400_4999)"/>
<defs>
<radialGradient id="paint0_radial_2400_4999" cx="0" cy="0" r="1" gradientUnits="userSpaceOnUse" gradientTransform="translate(13.31 11.5665) scale(16.6528 107.704)">
<stop stop-color="white"/>
<stop offset="0.23" stop-color="#FDF38B"/>
<stop offset="0.55" stop-color="#EBB94C"/>
<stop offset="1" stop-color="#856829"/>
</radialGradient>
</defs>
</svg>
