<svg width="27" height="27" viewBox="0 0 27 27" fill="none" xmlns="http://www.w3.org/2000/svg">
<circle cx="13.5" cy="13.5" r="13" fill="black" stroke="#FFFBBB"/>
<path d="M8.87891 10.5215C8.87891 9.90299 9.07747 9.27799 9.47461 8.64648C9.87174 8.00846 10.4512 7.48112 11.2129 7.06445C11.9746 6.64779 12.8633 6.43945 13.8789 6.43945C14.8229 6.43945 15.6562 6.61523 16.3789 6.9668C17.1016 7.31185 17.6582 7.78385 18.0488 8.38281C18.446 8.98177 18.6445 9.63281 18.6445 10.3359C18.6445 10.8893 18.5306 11.3743 18.3027 11.791C18.0814 12.2077 17.8145 12.569 17.502 12.875C17.196 13.1745 16.6426 13.6823 15.8418 14.3984C15.6204 14.6003 15.4414 14.7793 15.3047 14.9355C15.1745 15.0853 15.0768 15.2253 15.0117 15.3555C14.9466 15.4792 14.8945 15.6061 14.8555 15.7363C14.8229 15.86 14.7708 16.0814 14.6992 16.4004C14.5755 17.0775 14.1882 17.416 13.5371 17.416C13.1986 17.416 12.9121 17.3053 12.6777 17.084C12.4499 16.8626 12.3359 16.5339 12.3359 16.0977C12.3359 15.5508 12.4206 15.0788 12.5898 14.6816C12.7591 14.278 12.9837 13.9264 13.2637 13.627C13.5436 13.321 13.9212 12.9596 14.3965 12.543C14.8132 12.1784 15.1126 11.9049 15.2949 11.7227C15.4837 11.5339 15.64 11.3255 15.7637 11.0977C15.8939 10.8698 15.959 10.6224 15.959 10.3555C15.959 9.83464 15.7637 9.39518 15.373 9.03711C14.9889 8.67904 14.4909 8.5 13.8789 8.5C13.1628 8.5 12.6354 8.68229 12.2969 9.04688C11.9583 9.40495 11.6719 9.93555 11.4375 10.6387C11.2161 11.3743 10.7962 11.7422 10.1777 11.7422C9.81315 11.7422 9.50391 11.6152 9.25 11.3613C9.0026 11.1009 8.87891 10.821 8.87891 10.5215ZM13.6445 21.2246C13.2474 21.2246 12.8991 21.0977 12.5996 20.8438C12.3066 20.5833 12.1602 20.222 12.1602 19.7598C12.1602 19.3496 12.3034 19.0046 12.5898 18.7246C12.8763 18.4447 13.2279 18.3047 13.6445 18.3047C14.0547 18.3047 14.3997 18.4447 14.6797 18.7246C14.9596 19.0046 15.0996 19.3496 15.0996 19.7598C15.0996 20.2155 14.9531 20.5736 14.6602 20.834C14.3672 21.0944 14.0286 21.2246 13.6445 21.2246Z" fill="url(#paint0_radial_2400_5003)"/>
<defs>
<radialGradient id="paint0_radial_2400_5003" cx="0" cy="0" r="1" gradientUnits="userSpaceOnUse" gradientTransform="translate(14.2325 11.4394) scale(12.4896 154.824)">
<stop stop-color="white"/>
<stop offset="0.23" stop-color="#FDF38B"/>
<stop offset="0.55" stop-color="#EBB94C"/>
<stop offset="1" stop-color="#856829"/>
</radialGradient>
</defs>
</svg>
