<svg width="27" height="27" viewBox="0 0 27 27" fill="none" xmlns="http://www.w3.org/2000/svg">
<circle cx="13.5" cy="13.5" r="13" fill="black" stroke="#FFFBBB"/>
<path d="M14.0744 6.41287C14.2005 6.32487 14.3481 6.27068 14.5024 6.25571C14.6567 6.24074 14.8124 6.26552 14.9538 6.32757C15.0952 6.38961 15.2175 6.48676 15.3084 6.60931C15.3993 6.73186 15.4556 6.87552 15.4718 7.02594L15.4766 7.11555V19.3866C15.4767 19.5378 15.436 19.6865 15.3588 19.8176C15.2815 19.9488 15.1703 20.0578 15.0363 20.134C14.9023 20.2101 14.7502 20.2506 14.5951 20.2515C14.44 20.2523 14.2874 20.2134 14.1525 20.1388L14.0752 20.09L8.77158 16.3951H6.61179C6.20515 16.3952 5.8135 16.2454 5.51533 15.9757C5.21716 15.7061 5.03453 15.3364 5.00403 14.941L5 14.8231V11.6791C5.00007 11.2826 5.15374 10.9008 5.43022 10.6102C5.70669 10.3195 6.08555 10.1415 6.4909 10.1118L6.61179 10.1071H8.77158L14.0744 6.41287Z" fill="url(#paint0_radial_2400_4994)"/>
<path fill-rule="evenodd" clip-rule="evenodd" d="M19.4839 7.74397C19.7742 7.44455 20.2556 7.43384 20.5593 7.72006C22.1097 9.18159 22.9913 11.1689 22.9999 13.2511C23.0086 15.3333 22.1435 17.3272 20.605 18.8003C20.3036 19.0888 19.8221 19.0818 19.5295 18.7847C19.2369 18.4875 19.244 18.0127 19.5453 17.7241C20.7949 16.5277 21.4857 14.9214 21.4788 13.2572C21.4719 11.5931 20.7678 9.99175 19.5082 8.80436C19.2046 8.51814 19.1937 8.04339 19.4839 7.74397ZM16.6192 9.61524C16.9095 9.31583 17.3909 9.30514 17.6945 9.59137C18.7181 10.5563 19.3023 11.8709 19.3079 13.2507C19.3135 14.6305 18.74 15.9494 17.7241 16.9219C17.4228 17.2104 16.9412 17.2033 16.6487 16.9061C16.3561 16.6089 16.3632 16.1341 16.6646 15.8456C17.3916 15.1497 17.7907 14.2184 17.7868 13.2567C17.7829 12.2949 17.3762 11.3664 16.6434 10.6756C16.3398 10.3894 16.329 9.91465 16.6192 9.61524Z" fill="url(#paint1_radial_2400_4994)"/>
<defs>
<radialGradient id="paint0_radial_2400_4994" cx="0" cy="0" r="1" gradientUnits="userSpaceOnUse" gradientTransform="translate(10.4413 11.9972) scale(10.9041 94.2406)">
<stop stop-color="white"/>
<stop offset="0.23" stop-color="#FDF38B"/>
<stop offset="0.55" stop-color="#EBB94C"/>
<stop offset="1" stop-color="#856829"/>
</radialGradient>
<radialGradient id="paint1_radial_2400_4994" cx="0" cy="0" r="1" gradientUnits="userSpaceOnUse" gradientTransform="translate(19.8319 12.2319) scale(6.86051 77.4119)">
<stop stop-color="white"/>
<stop offset="0.23" stop-color="#FDF38B"/>
<stop offset="0.55" stop-color="#EBB94C"/>
<stop offset="1" stop-color="#856829"/>
</radialGradient>
</defs>
</svg>
