<svg width="27" height="27" viewBox="0 0 27 27" fill="none" xmlns="http://www.w3.org/2000/svg">
<circle cx="13.5" cy="13.5" r="13" fill="black" stroke="#FFFBBB"/>
<path d="M14.9484 6.41287C15.0727 6.32487 15.2183 6.27068 15.3705 6.25571C15.5226 6.24074 15.6761 6.26552 15.8156 6.32757C15.955 6.38961 16.0756 6.48676 16.1652 6.60931C16.2549 6.73186 16.3104 6.87552 16.3264 7.02594L16.3311 7.11555V19.3866C16.3312 19.5378 16.2911 19.6865 16.2149 19.8176C16.1388 19.9488 16.0291 20.0578 15.897 20.134C15.7648 20.2101 15.6148 20.2506 15.4619 20.2515C15.3089 20.2523 15.1584 20.2134 15.0255 20.1388L14.9492 20.09L9.71921 16.3951H7.58941C7.18842 16.3952 6.8022 16.2454 6.50817 15.9757C6.21415 15.7061 6.03405 15.3364 6.00397 14.941L6 14.8231V11.6791C6.00007 11.2826 6.15161 10.9008 6.42424 10.6102C6.69688 10.3195 7.07048 10.1415 7.4702 10.1118L7.58941 10.1071H9.71921L14.9484 6.41287ZM18.3863 11.0283L19.51 12.1397L20.6337 11.0283C20.707 10.9532 20.7947 10.8933 20.8916 10.8521C20.9886 10.8109 21.0929 10.7892 21.1984 10.7883C21.3039 10.7874 21.4086 10.8073 21.5062 10.8468C21.6039 10.8864 21.6926 10.9447 21.7672 11.0185C21.8419 11.0923 21.9009 11.1801 21.9408 11.2767C21.9808 11.3733 22.0009 11.4768 22 11.5811C21.9991 11.6855 21.9771 11.7886 21.9355 11.8845C21.8938 11.9804 21.8333 12.0672 21.7574 12.1397L20.6337 13.2511L21.7574 14.3625C21.9065 14.5098 21.9903 14.7098 21.9904 14.9183C21.9905 15.1268 21.9068 15.3268 21.7578 15.4743C21.6088 15.6217 21.4066 15.7046 21.1958 15.7047C20.985 15.7048 20.7828 15.622 20.6337 15.4747L19.51 14.3625L18.3863 15.4747C18.2371 15.622 18.0349 15.7048 17.8241 15.7047C17.6133 15.7046 17.4112 15.6217 17.2621 15.4743C17.1131 15.3268 17.0295 15.1268 17.0295 14.9183C17.0296 14.7098 17.1134 14.5098 17.2625 14.3625L18.3863 13.2511L17.2625 12.1397C17.1866 12.0672 17.1261 11.9804 17.0844 11.8845C17.0428 11.7886 17.0209 11.6855 17.02 11.5811C17.019 11.4768 17.0391 11.3733 17.0791 11.2767C17.1191 11.1801 17.1781 11.0923 17.2527 11.0185C17.3273 10.9447 17.416 10.8864 17.5137 10.8468C17.6114 10.8073 17.716 10.7874 17.8215 10.7883C17.9271 10.7892 18.0313 10.8109 18.1283 10.8521C18.2253 10.8933 18.3129 10.9532 18.3863 11.0283Z" fill="url(#paint0_radial_2451_3020)"/>
<defs>
<radialGradient id="paint0_radial_2451_3020" cx="0" cy="0" r="1" gradientUnits="userSpaceOnUse" gradientTransform="translate(14.31 11.9972) scale(16.6528 94.2406)">
<stop stop-color="white"/>
<stop offset="0.23" stop-color="#FDF38B"/>
<stop offset="0.55" stop-color="#EBB94C"/>
<stop offset="1" stop-color="#856829"/>
</radialGradient>
</defs>
</svg>
