<svg width="24" height="24" viewBox="0 0 24 24" fill="none" xmlns="http://www.w3.org/2000/svg">
<path fill-rule="evenodd" clip-rule="evenodd" d="M18.0122 12.2155C17.555 12.2155 17.1843 11.8449 17.1843 11.3876V6.69597L12.4927 6.69597C12.0354 6.69597 11.6648 6.32532 11.6648 5.8681C11.6648 5.41087 12.0354 5.04022 12.4927 5.04022L18.0122 5.04022C18.4694 5.04022 18.8401 5.41087 18.8401 5.8681V11.3876C18.8401 11.8449 18.4694 12.2155 18.0122 12.2155Z" fill="#052049"/>
<path fill-rule="evenodd" clip-rule="evenodd" d="M12.4596 11.4211C12.1363 11.0978 12.1363 10.5736 12.4596 10.2503L17.427 5.28287C17.7503 4.95956 18.2745 4.95956 18.5978 5.28286C18.9211 5.60617 18.9211 6.13035 18.5978 6.45365L13.6304 11.4211C13.3071 11.7444 12.7829 11.7444 12.4596 11.4211Z" fill="#052049"/>
<path fill-rule="evenodd" clip-rule="evenodd" d="M5.87007 11.6595C6.32729 11.6595 6.69795 12.0302 6.69795 12.4874L6.69795 17.1791L11.3896 17.1791C11.8468 17.1791 12.2175 17.5497 12.2175 18.007C12.2175 18.4642 11.8468 18.8348 11.3896 18.8348H5.87007C5.41285 18.8348 5.0422 18.4642 5.0422 18.007L5.0422 12.4874C5.0422 12.0302 5.41285 11.6595 5.87007 11.6595Z" fill="#052049"/>
<path fill-rule="evenodd" clip-rule="evenodd" d="M11.4227 12.4539C11.746 12.7772 11.746 13.3014 11.4227 13.6247L6.45526 18.5922C6.13196 18.9155 5.60778 18.9155 5.28447 18.5922C4.96117 18.2689 4.96117 17.7447 5.28447 17.4214L10.2519 12.4539C10.5752 12.1306 11.0994 12.1306 11.4227 12.4539Z" fill="#052049"/>
<path fill-rule="evenodd" clip-rule="evenodd" d="M18.0122 12.2155C17.555 12.2155 17.1843 11.8449 17.1843 11.3876V6.69597L12.4927 6.69597C12.0354 6.69597 11.6648 6.32532 11.6648 5.8681C11.6648 5.41087 12.0354 5.04022 12.4927 5.04022L18.0122 5.04022C18.4694 5.04022 18.8401 5.41087 18.8401 5.8681V11.3876C18.8401 11.8449 18.4694 12.2155 18.0122 12.2155Z" stroke="#052049" stroke-width="0.5" stroke-linecap="round" stroke-linejoin="round"/>
<path fill-rule="evenodd" clip-rule="evenodd" d="M12.4596 11.4211C12.1363 11.0978 12.1363 10.5736 12.4596 10.2503L17.427 5.28287C17.7503 4.95956 18.2745 4.95956 18.5978 5.28286C18.9211 5.60617 18.9211 6.13035 18.5978 6.45365L13.6304 11.4211C13.3071 11.7444 12.7829 11.7444 12.4596 11.4211Z" stroke="#052049" stroke-width="0.5" stroke-linecap="round" stroke-linejoin="round"/>
<path fill-rule="evenodd" clip-rule="evenodd" d="M5.87007 11.6595C6.32729 11.6595 6.69795 12.0302 6.69795 12.4874L6.69795 17.1791L11.3896 17.1791C11.8468 17.1791 12.2175 17.5497 12.2175 18.007C12.2175 18.4642 11.8468 18.8348 11.3896 18.8348H5.87007C5.41285 18.8348 5.0422 18.4642 5.0422 18.007L5.0422 12.4874C5.0422 12.0302 5.41285 11.6595 5.87007 11.6595Z" stroke="#052049" stroke-width="0.5" stroke-linecap="round" stroke-linejoin="round"/>
<path fill-rule="evenodd" clip-rule="evenodd" d="M11.4227 12.4539C11.746 12.7772 11.746 13.3014 11.4227 13.6247L6.45526 18.5922C6.13196 18.9155 5.60778 18.9155 5.28447 18.5922C4.96117 18.2689 4.96117 17.7447 5.28447 17.4214L10.2519 12.4539C10.5752 12.1306 11.0994 12.1306 11.4227 12.4539Z" stroke="#052049" stroke-width="0.5" stroke-linecap="round" stroke-linejoin="round"/>
</svg>
