<svg width="16" height="16" viewBox="0 0 16 16" fill="none" xmlns="http://www.w3.org/2000/svg">
<path d="M2 15.678V8.322C2 8.2081 2 8.15115 1.97748 8.1078C1.95851 8.07128 1.92872 8.04149 1.89219 8.02252C1.84885 8 1.7919 8 1.678 8H0.777377C0.530937 8 0.407717 8 0.351171 7.95054C0.304231 7.90948 0.279128 7.84888 0.283288 7.78666C0.2883 7.7117 0.375429 7.62457 0.549688 7.45031L7.77231 0.227688C7.85285 0.14715 7.89312 0.106881 7.93969 0.0921519C7.97894 0.0797397 8.02106 0.0797397 8.06031 0.0921519C8.10688 0.106881 8.14715 0.14715 8.22769 0.227688L15.4503 7.45031C15.6246 7.62457 15.7117 7.7117 15.7167 7.78666C15.7209 7.84888 15.6958 7.90948 15.6488 7.95054C15.5923 8 15.4691 8 15.2226 8H14.322C14.2081 8 14.1512 8 14.1078 8.02252C14.0713 8.04149 14.0415 8.07128 14.0225 8.1078C14 8.15115 14 8.2081 14 8.322V15.678C14 15.7919 14 15.8488 13.9775 15.8922C13.9585 15.9287 13.9287 15.9585 13.8922 15.9775C13.8488 16 13.7919 16 13.678 16H9.822C9.7081 16 9.65115 16 9.60781 15.9775C9.57128 15.9585 9.54149 15.9287 9.52252 15.8922C9.5 15.8488 9.5 15.7919 9.5 15.678V10.322C9.5 10.2081 9.5 10.1512 9.47748 10.1078C9.45851 10.0713 9.42872 10.0415 9.39219 10.0225C9.34885 10 9.2919 10 9.178 10H6.822C6.7081 10 6.65115 10 6.60781 10.0225C6.57128 10.0415 6.54149 10.0713 6.52252 10.1078C6.5 10.1512 6.5 10.2081 6.5 10.322V15.678C6.5 15.7919 6.5 15.8488 6.47748 15.8922C6.45851 15.9287 6.42872 15.9585 6.39219 15.9775C6.34885 16 6.2919 16 6.178 16H2.322C2.2081 16 2.15115 16 2.10781 15.9775C2.07128 15.9585 2.04149 15.9287 2.02252 15.8922C2 15.8488 2 15.7919 2 15.678Z" fill="#052049"/>
</svg>
