<svg width="12" height="23" viewBox="0 0 12 23" fill="none" xmlns="http://www.w3.org/2000/svg">
<path d="M0.878906 8.52148C0.878906 7.90299 1.07747 7.27799 1.47461 6.64648C1.87174 6.00846 2.45117 5.48112 3.21289 5.06445C3.97461 4.64779 4.86328 4.43945 5.87891 4.43945C6.82292 4.43945 7.65625 4.61523 8.37891 4.9668C9.10156 5.31185 9.6582 5.78385 10.0488 6.38281C10.446 6.98177 10.6445 7.63281 10.6445 8.33594C10.6445 8.88932 10.5306 9.37435 10.3027 9.79102C10.0814 10.2077 9.81445 10.569 9.50195 10.875C9.19596 11.1745 8.64258 11.6823 7.8418 12.3984C7.62044 12.6003 7.44141 12.7793 7.30469 12.9355C7.17448 13.0853 7.07682 13.2253 7.01172 13.3555C6.94661 13.4792 6.89453 13.6061 6.85547 13.7363C6.82292 13.86 6.77083 14.0814 6.69922 14.4004C6.57552 15.0775 6.18815 15.416 5.53711 15.416C5.19857 15.416 4.91211 15.3053 4.67773 15.084C4.44987 14.8626 4.33594 14.5339 4.33594 14.0977C4.33594 13.5508 4.42057 13.0788 4.58984 12.6816C4.75911 12.278 4.98372 11.9264 5.26367 11.627C5.54362 11.321 5.92122 10.9596 6.39648 10.543C6.81315 10.1784 7.11263 9.90495 7.29492 9.72266C7.48372 9.53385 7.63997 9.32552 7.76367 9.09766C7.89388 8.86979 7.95898 8.6224 7.95898 8.35547C7.95898 7.83464 7.76367 7.39518 7.37305 7.03711C6.98893 6.67904 6.49089 6.5 5.87891 6.5C5.16276 6.5 4.63542 6.68229 4.29688 7.04688C3.95833 7.40495 3.67188 7.93555 3.4375 8.63867C3.21615 9.37435 2.79622 9.74219 2.17773 9.74219C1.81315 9.74219 1.50391 9.61523 1.25 9.36133C1.0026 9.10091 0.878906 8.82096 0.878906 8.52148ZM5.64453 19.2246C5.2474 19.2246 4.89909 19.0977 4.59961 18.8438C4.30664 18.5833 4.16016 18.222 4.16016 17.7598C4.16016 17.3496 4.30339 17.0046 4.58984 16.7246C4.8763 16.4447 5.22786 16.3047 5.64453 16.3047C6.05469 16.3047 6.39974 16.4447 6.67969 16.7246C6.95964 17.0046 7.09961 17.3496 7.09961 17.7598C7.09961 18.2155 6.95312 18.5736 6.66016 18.834C6.36719 19.0944 6.02865 19.2246 5.64453 19.2246Z" fill="#052049"/>
</svg>
