<svg width="24" height="24" viewBox="0 0 24 24" fill="none" xmlns="http://www.w3.org/2000/svg">
<path fill-rule="evenodd" clip-rule="evenodd" d="M18.0002 11.9983C18.0002 12.3881 17.6499 12.7042 17.2176 12.7042L6.78285 12.7042C6.35063 12.7042 6.00025 12.3882 6.00024 11.9983C6.00024 11.6085 6.35063 11.2924 6.78285 11.2924L17.2176 11.2924C17.6499 11.2924 18.0002 11.6085 18.0002 11.9983Z" fill="#052049" stroke="#052049" stroke-linecap="round" stroke-linejoin="round"/>
<path fill-rule="evenodd" clip-rule="evenodd" d="M18 16.2941C18 16.6839 17.6496 17 17.2174 17L6.78261 17C6.35039 17 6 16.6839 6 16.2941C6 15.9042 6.35038 15.5882 6.78261 15.5882L17.2174 15.5882C17.6496 15.5882 18 15.9042 18 16.2941Z" fill="#052049" stroke="#052049" stroke-linecap="round" stroke-linejoin="round"/>
<path fill-rule="evenodd" clip-rule="evenodd" d="M18 7.70588C18 8.09573 17.6496 8.41176 17.2174 8.41176L6.78261 8.41178C6.35039 8.41178 6 8.09575 6 7.7059C6 7.31605 6.35038 7.00002 6.78261 7.00002L17.2174 7C17.6496 7 18 7.31603 18 7.70588Z" fill="#052049" stroke="#052049" stroke-linecap="round" stroke-linejoin="round"/>
</svg>
