<svg width="24" height="24" viewBox="0 0 24 24" fill="none" xmlns="http://www.w3.org/2000/svg">
<path d="M12.9484 5.1614C13.0727 5.0734 13.2183 5.01921 13.3705 5.00424C13.5226 4.98928 13.6761 5.01405 13.8156 5.0761C13.955 5.13815 14.0756 5.2353 14.1652 5.35785C14.2549 5.48039 14.3104 5.62405 14.3264 5.77448L14.3311 5.86408V18.1351C14.3312 18.2864 14.2911 18.435 14.2149 18.5661C14.1388 18.6973 14.0291 18.8064 13.897 18.8825C13.7648 18.9586 13.6148 18.9991 13.4619 19C13.3089 19.0008 13.1585 18.962 13.0255 18.8873L12.9492 18.8386L7.71921 15.1436H5.58941C5.18842 15.1437 4.8022 14.9939 4.50817 14.7243C4.21415 14.4546 4.03405 14.085 4.00397 13.6895L4 13.5716V10.4276C4.00007 10.0311 4.15161 9.64934 4.42424 9.35871C4.69688 9.06807 5.07048 8.89005 5.4702 8.86032L5.58941 8.8556H7.71921L12.9484 5.1614ZM16.3863 9.77679L17.51 10.8882L18.6337 9.77679C18.707 9.70172 18.7947 9.64184 18.8916 9.60065C18.9886 9.55945 19.0929 9.53777 19.1984 9.53686C19.3039 9.53596 19.4086 9.55584 19.5062 9.59537C19.6039 9.63489 19.6926 9.69325 19.7672 9.76705C19.8419 9.84085 19.9009 9.92861 19.9408 10.0252C19.9808 10.1218 20.0009 10.2253 20 10.3297C19.9991 10.434 19.9771 10.5372 19.9355 10.6331C19.8938 10.729 19.8333 10.8157 19.7574 10.8882L18.6337 11.9996L19.7574 13.111C19.9065 13.2584 19.9903 13.4583 19.9904 13.6668C19.9905 13.8753 19.9068 14.0753 19.7578 14.2228C19.6088 14.3703 19.4066 14.4532 19.1958 14.4533C18.985 14.4533 18.7828 14.3706 18.6337 14.2232L17.51 13.111L16.3863 14.2232C16.2371 14.3706 16.0349 14.4533 15.8241 14.4533C15.6133 14.4532 15.4112 14.3703 15.2621 14.2228C15.1131 14.0753 15.0295 13.8753 15.0295 13.6668C15.0296 13.4583 15.1134 13.2584 15.2625 13.111L16.3863 11.9996L15.2625 10.8882C15.1866 10.8157 15.1261 10.729 15.0844 10.6331C15.0428 10.5372 15.0209 10.434 15.02 10.3297C15.019 10.2253 15.0391 10.1218 15.0791 10.0252C15.1191 9.92861 15.1781 9.84085 15.2527 9.76705C15.3273 9.69325 15.416 9.63489 15.5137 9.59537C15.6114 9.55584 15.716 9.53596 15.8215 9.53686C15.9271 9.53777 16.0313 9.55945 16.1283 9.60065C16.2253 9.64184 16.3129 9.70172 16.3863 9.77679Z" fill="#052049"/>
</svg>
