<svg width="24" height="24" viewBox="0 0 24 24" fill="none" xmlns="http://www.w3.org/2000/svg">
<path fill-rule="evenodd" clip-rule="evenodd" d="M12.4929 5.04022C12.9501 5.04022 13.3207 5.41087 13.3207 5.8681V10.5598L18.0124 10.5598C18.4696 10.5598 18.8403 10.9304 18.8403 11.3876C18.8403 11.8449 18.4696 12.2155 18.0124 12.2155H12.4929C12.0356 12.2155 11.665 11.8449 11.665 11.3876V5.8681C11.665 5.41087 12.0356 5.04022 12.4929 5.04022Z" fill="#052049"/>
<path fill-rule="evenodd" clip-rule="evenodd" d="M18.0455 5.83462C18.3688 6.15792 18.3688 6.6821 18.0455 7.00541L13.0781 11.9729C12.7548 12.2962 12.2306 12.2962 11.9073 11.9729C11.584 11.6496 11.584 11.1254 11.9073 10.8021L16.8747 5.83462C17.198 5.51131 17.7222 5.51131 18.0455 5.83462Z" fill="#052049"/>
<path fill-rule="evenodd" clip-rule="evenodd" d="M11.3894 18.8348C10.9322 18.8348 10.5615 18.4642 10.5615 18.007L10.5615 13.3153L5.86986 13.3153C5.41264 13.3153 5.04199 12.9446 5.04199 12.4874C5.04199 12.0302 5.41264 11.6595 5.86986 11.6595H11.3894C11.8466 11.6595 12.2173 12.0302 12.2173 12.4874V18.007C12.2173 18.4642 11.8466 18.8348 11.3894 18.8348Z" fill="#052049"/>
<path fill-rule="evenodd" clip-rule="evenodd" d="M5.83678 18.0404C5.51348 17.7171 5.51348 17.193 5.83678 16.8697L10.8042 11.9022C11.1275 11.5789 11.6517 11.5789 11.975 11.9022C12.2983 12.2255 12.2983 12.7497 11.975 13.073L7.00757 18.0404C6.68427 18.3637 6.16009 18.3637 5.83678 18.0404Z" fill="#052049"/>
<path fill-rule="evenodd" clip-rule="evenodd" d="M12.4929 5.04022C12.9501 5.04022 13.3207 5.41087 13.3207 5.8681V10.5598L18.0124 10.5598C18.4696 10.5598 18.8403 10.9304 18.8403 11.3876C18.8403 11.8449 18.4696 12.2155 18.0124 12.2155H12.4929C12.0356 12.2155 11.665 11.8449 11.665 11.3876V5.8681C11.665 5.41087 12.0356 5.04022 12.4929 5.04022Z" stroke="#052049" stroke-width="0.5" stroke-linecap="round" stroke-linejoin="round"/>
<path fill-rule="evenodd" clip-rule="evenodd" d="M18.0455 5.83462C18.3688 6.15792 18.3688 6.6821 18.0455 7.00541L13.0781 11.9729C12.7548 12.2962 12.2306 12.2962 11.9073 11.9729C11.584 11.6496 11.584 11.1254 11.9073 10.8021L16.8747 5.83462C17.198 5.51131 17.7222 5.51131 18.0455 5.83462Z" stroke="#052049" stroke-width="0.5" stroke-linecap="round" stroke-linejoin="round"/>
<path fill-rule="evenodd" clip-rule="evenodd" d="M11.3894 18.8348C10.9322 18.8348 10.5615 18.4642 10.5615 18.007L10.5615 13.3153L5.86986 13.3153C5.41264 13.3153 5.04199 12.9446 5.04199 12.4874C5.04199 12.0302 5.41264 11.6595 5.86986 11.6595H11.3894C11.8466 11.6595 12.2173 12.0302 12.2173 12.4874V18.007C12.2173 18.4642 11.8466 18.8348 11.3894 18.8348Z" stroke="#052049" stroke-width="0.5" stroke-linecap="round" stroke-linejoin="round"/>
<path fill-rule="evenodd" clip-rule="evenodd" d="M5.83678 18.0404C5.51348 17.7171 5.51348 17.193 5.83678 16.8697L10.8042 11.9022C11.1275 11.5789 11.6517 11.5789 11.975 11.9022C12.2983 12.2255 12.2983 12.7497 11.975 13.073L7.00757 18.0404C6.68427 18.3637 6.16009 18.3637 5.83678 18.0404Z" stroke="#052049" stroke-width="0.5" stroke-linecap="round" stroke-linejoin="round"/>
</svg>
