<svg width="24" height="24" viewBox="0 0 24 24" fill="none" xmlns="http://www.w3.org/2000/svg">
<path d="M12.0744 5.1614C12.2005 5.0734 12.3481 5.01921 12.5024 5.00424C12.6567 4.98928 12.8124 5.01405 12.9538 5.0761C13.0952 5.13815 13.2175 5.2353 13.3084 5.35785C13.3993 5.48039 13.4556 5.62405 13.4718 5.77448L13.4766 5.86408V18.1351C13.4767 18.2864 13.436 18.435 13.3588 18.5661C13.2815 18.6973 13.1703 18.8064 13.0363 18.8825C12.9023 18.9586 12.7502 18.9991 12.5951 19C12.44 19.0008 12.2874 18.962 12.1525 18.8873L12.0752 18.8386L6.77158 15.1436H4.61179C4.20515 15.1437 3.8135 14.9939 3.51533 14.7243C3.21716 14.4546 3.03453 14.085 3.00403 13.6895L3 13.5716V10.4276C3.00007 10.0311 3.15374 9.64934 3.43022 9.35871C3.70669 9.06807 4.08555 8.89005 4.4909 8.86032L4.61179 8.8556H6.77158L12.0744 5.1614Z" fill="#052049"/>
<path fill-rule="evenodd" clip-rule="evenodd" d="M17.484 6.4925C17.7742 6.19308 18.2557 6.18238 18.5593 6.46859C20.1098 7.93012 20.9913 9.91748 21 11.9996C21.0086 14.0818 20.1435 16.0758 18.605 17.5488C18.3036 17.8374 17.8221 17.8304 17.5295 17.5332C17.2369 17.236 17.244 16.7612 17.5454 16.4727C18.795 15.2762 19.4858 13.6699 19.4789 12.0058C19.472 10.3416 18.7679 8.74028 17.5082 7.55289C17.2046 7.26668 17.1937 6.79192 17.484 6.4925ZM14.6192 8.36377C14.9095 8.06436 15.3909 8.05368 15.6946 8.3399C16.7182 9.30484 17.3024 10.6194 17.308 11.9992C17.3136 13.379 16.7401 14.6979 15.7242 15.6704C15.4228 15.9589 14.9413 15.9519 14.6487 15.6547C14.3561 15.3574 14.3633 14.8826 14.6647 14.5941C15.3916 13.8982 15.7908 12.967 15.7869 12.0052C15.7829 11.0434 15.3762 10.1149 14.6435 9.42417C14.3398 9.13794 14.329 8.66319 14.6192 8.36377Z" fill="#052049"/>
</svg>
