<svg width="375" height="525" viewBox="0 0 375 525" fill="none" xmlns="http://www.w3.org/2000/svg">
<g filter="url(#filter0_df_1838_1559)">
<path style="mix-blend-mode:multiply" d="M257.037 94.8607C261.125 85.7051 257.016 74.9692 247.861 70.8814C238.705 66.7936 227.969 70.9018 223.882 80.0574C219.794 89.213 223.902 99.9489 233.058 104.037C242.213 108.125 252.949 104.016 257.037 94.8607Z" fill="url(#paint0_linear_1838_1559)"/>
<path style="mix-blend-mode:screen" d="M257.037 94.8607C261.125 85.7051 257.016 74.9692 247.861 70.8814C238.705 66.7936 227.969 70.9018 223.882 80.0574C219.794 89.213 223.902 99.9489 233.058 104.037C242.213 108.125 252.949 104.016 257.037 94.8607Z" fill="url(#paint1_radial_1838_1559)"/>
<path style="mix-blend-mode:screen" d="M233.705 91.4517C235.297 95.726 234.676 99.9015 232.322 100.778C229.968 101.658 226.765 98.9018 225.175 94.6316C223.582 90.3572 224.203 86.1817 226.557 85.3053C228.915 84.4264 232.116 87.1783 233.708 91.4526L233.705 91.4517Z" fill="url(#paint2_radial_1838_1559)"/>
<path style="mix-blend-mode:screen" d="M237.5 80.6727C232.214 83.0315 226.989 82.8343 225.824 80.2268C224.659 77.6193 227.999 73.5949 233.285 71.2328C238.567 68.8699 243.795 69.0712 244.961 71.6754C246.126 74.2829 242.786 78.3074 237.504 80.6703L237.5 80.6727Z" fill="url(#paint3_radial_1838_1559)"/>
<path style="mix-blend-mode:screen" d="M249.804 86.6175C249.191 81.6655 250.675 77.4033 253.118 77.1001C255.56 76.797 258.038 80.5686 258.653 85.5214C259.266 90.4734 257.781 94.7356 255.339 95.0388C252.897 95.3419 250.419 91.5703 249.804 86.6175Z" fill="url(#paint4_radial_1838_1559)"/>
<mask id="mask0_1838_1559" style="mask-type:luminance" maskUnits="userSpaceOnUse" x="222" y="69" width="37" height="37">
<path d="M257.098 94.8774C261.186 85.7219 257.077 74.986 247.922 70.8982C238.766 66.8103 228.03 70.9186 223.942 80.0741C219.855 89.2297 223.963 99.9656 233.118 104.053C242.274 108.141 253.01 104.033 257.098 94.8774Z" fill="white"/>
</mask>
<g mask="url(#mask0_1838_1559)">
<path d="M251.93 94.6128C250.556 99.7411 245.604 102.87 240.869 101.601C236.134 100.333 233.41 95.1469 234.784 90.0185C236.158 84.8902 241.11 81.7644 245.844 83.0331C250.579 84.3017 253.303 89.4877 251.93 94.6128Z" fill="white"/>
<path d="M237.596 93.4488L239.167 91.6662C241.669 91.8609 244.416 91.9493 245.403 90.8285C245.704 90.4869 245.714 90.1537 245.468 89.9374C245.212 89.7117 244.773 89.7798 244.26 90.4472L241.966 88.4251C243.865 86.4202 245.915 86.8046 247.377 88.0931C249.32 89.8048 249.045 91.5156 247.954 92.7538C246.591 94.3015 244.278 94.5585 242.354 94.2468L244.798 96.4005L243.115 98.3112L237.596 93.4488Z" fill="#333333"/>
<path d="M239.107 76.8649C234.005 78.851 228.946 78.4322 228.581 75.7175C228.228 73.0994 232.502 69.8682 237.426 68.5984C241.731 67.4874 245.238 68.2406 245.745 70.2052C246.265 72.2251 243.527 75.1419 239.105 76.8608L239.107 76.8649Z" fill="white"/>
<path d="M231.494 71.1323L233.763 70.427C235.565 71.1436 237.618 71.8544 239.045 71.411C239.48 71.2758 239.686 71.0759 239.627 70.886C239.565 70.6878 239.188 70.6241 238.396 70.9063L237.844 69.131C240.498 68.3695 241.84 69.0931 242.192 70.2243C242.659 71.7271 241.427 72.6988 239.851 73.1887C237.881 73.8011 235.955 73.4039 234.665 72.7544L235.253 74.6452L232.821 75.4012L231.494 71.1323Z" fill="#333333"/>
<path d="M257.48 86.911C258.87 91.5028 260.975 94.574 262.181 93.7679C263.391 92.9625 263.245 88.5879 261.856 83.993C260.466 79.4011 258.362 76.3299 257.155 77.1361C255.949 77.9423 256.092 82.316 257.48 86.911Z" fill="white"/>
<path d="M259.104 87.6989C259.052 87.4396 259.009 87.1999 258.983 86.9751C258.954 86.7495 258.936 86.5442 258.93 86.3595C258.925 86.1747 258.923 86.0119 258.929 85.8751C258.799 85.7538 258.654 85.5319 258.499 85.2101C258.34 84.8875 258.208 84.5516 258.1 84.1942C257.945 83.6757 257.835 83.1967 257.778 82.7527C257.72 82.3087 257.699 81.9228 257.718 81.5959C257.737 81.2657 257.782 80.9943 257.857 80.7793C257.932 80.5643 258.026 80.4201 258.136 80.3458C258.246 80.2715 258.379 80.2656 258.539 80.3259C258.696 80.3852 258.868 80.5177 259.046 80.728C259.225 80.9384 259.408 81.2225 259.592 81.5828C259.775 81.9431 259.945 82.3793 260.103 82.8987C260.211 83.2561 260.294 83.6204 260.347 84.0012C260.402 84.3787 260.417 84.6803 260.392 84.905C260.466 84.9905 260.545 85.0947 260.632 85.2217C260.719 85.3487 260.807 85.4968 260.9 85.6669C260.993 85.8369 261.085 86.0345 261.175 86.2523C261.269 86.4709 261.354 86.7186 261.436 86.9929C261.601 87.5416 261.725 88.0588 261.798 88.5452C261.875 89.0325 261.912 89.464 261.906 89.8463C261.901 90.2252 261.861 90.5429 261.782 90.7983C261.703 91.0538 261.592 91.2244 261.452 91.3217C261.304 91.4205 261.14 91.4282 260.957 91.3482C260.775 91.2682 260.59 91.1047 260.397 90.8593C260.207 90.6147 260.016 90.294 259.831 89.9021C259.643 89.5061 259.473 89.0456 259.313 88.5188C259.226 88.2363 259.158 87.9622 259.105 87.7062L259.104 87.6989ZM260.342 88.5216C260.46 88.688 260.564 88.7399 260.651 88.6839C260.736 88.627 260.779 88.4795 260.772 88.2356C260.768 87.9925 260.721 87.7277 260.631 87.4305C260.531 87.1065 260.426 86.8674 260.314 86.7165C260.203 86.5656 260.101 86.5209 260.012 86.5802C259.928 86.6371 259.883 86.7773 259.88 86.9975C259.879 87.2186 259.925 87.4972 260.029 87.8327C260.12 88.1266 260.22 88.3575 260.338 88.5239L260.342 88.5216ZM259.126 82.9965C259.043 82.8809 258.969 82.8473 258.902 82.8915C258.835 82.9357 258.802 83.0445 258.805 83.2147C258.808 83.3848 258.838 83.5692 258.901 83.7727C258.983 84.0471 259.067 84.2356 259.158 84.3359C259.246 84.4354 259.316 84.4682 259.371 84.431C259.425 84.3971 259.455 84.298 259.461 84.1337C259.467 83.9694 259.429 83.7516 259.347 83.4773C259.287 83.2746 259.212 83.1162 259.129 83.0006L259.126 82.9965Z" fill="#333333"/>
<path d="M226.141 100.52C228.338 104.193 230.826 106.391 231.694 105.434C232.566 104.475 231.49 100.723 229.294 97.0509C227.097 93.3788 224.61 91.1808 223.742 92.1373C222.869 93.0962 223.945 96.8483 226.141 100.52Z" fill="white"/>
<path d="M227.997 103.145L226.969 101.545C227.137 100.001 227.247 98.2643 226.601 97.2579C226.404 96.9512 226.205 96.8349 226.071 96.921C225.932 97.0108 225.963 97.3157 226.35 97.8662L225.097 98.6711C223.943 96.7855 224.215 95.595 225.013 95.0821C226.073 94.4008 227.086 95.1447 227.801 96.2564C228.694 97.6462 228.798 99.2177 228.572 100.352L229.906 99.4943L231.009 101.21L227.997 103.145Z" fill="#333333"/>
<path d="M249.674 107.407C253.682 105.608 256.224 103.334 255.352 102.332C254.479 101.331 250.521 101.975 246.512 103.777C242.504 105.576 239.963 107.85 240.838 108.852C241.71 109.857 245.669 109.21 249.678 107.408L249.674 107.407Z" fill="white"/>
<path d="M249.797 105.981C249.58 106.055 249.374 106.117 249.18 106.168C248.986 106.22 248.811 106.256 248.651 106.283C248.492 106.309 248.353 106.327 248.229 106.336C248.14 106.464 247.962 106.613 247.701 106.785C247.44 106.961 247.16 107.114 246.862 107.245C246.43 107.44 246.024 107.587 245.644 107.689C245.264 107.791 244.933 107.851 244.644 107.874C244.354 107.897 244.112 107.884 243.919 107.842C243.723 107.8 243.588 107.736 243.511 107.65C243.434 107.564 243.413 107.448 243.446 107.301C243.478 107.154 243.576 106.994 243.738 106.816C243.901 106.634 244.127 106.446 244.42 106.245C244.713 106.043 245.073 105.846 245.509 105.652C245.808 105.517 246.117 105.407 246.439 105.316C246.76 105.226 247.022 105.179 247.219 105.176C247.284 105.104 247.368 105.023 247.468 104.932C247.569 104.841 247.687 104.749 247.824 104.65C247.961 104.552 248.123 104.451 248.303 104.343C248.483 104.24 248.688 104.135 248.919 104.031C249.379 103.826 249.813 103.663 250.229 103.542C250.642 103.421 251.016 103.342 251.348 103.303C251.68 103.264 251.96 103.263 252.191 103.304C252.422 103.345 252.585 103.42 252.683 103.533C252.786 103.65 252.811 103.792 252.762 103.958C252.714 104.125 252.593 104.307 252.399 104.501C252.206 104.694 251.951 104.896 251.629 105.103C251.308 105.311 250.925 105.513 250.484 105.713C250.248 105.819 250.02 105.91 249.799 105.985L249.797 105.981ZM250.37 104.811C250.502 104.691 250.536 104.592 250.474 104.524C250.416 104.457 250.28 104.437 250.071 104.468C249.862 104.498 249.633 104.568 249.389 104.679C249.118 104.8 248.923 104.921 248.803 105.034C248.686 105.148 248.658 105.24 248.718 105.312C248.776 105.379 248.904 105.403 249.098 105.379C249.291 105.355 249.525 105.279 249.808 105.154C250.055 105.044 250.242 104.928 250.374 104.808L250.37 104.811ZM245.703 106.488C245.611 106.574 245.589 106.641 245.637 106.695C245.682 106.749 245.781 106.765 245.928 106.746C246.075 106.726 246.234 106.675 246.406 106.6C246.634 106.496 246.787 106.402 246.867 106.313C246.942 106.226 246.963 106.159 246.926 106.118C246.888 106.076 246.8 106.06 246.654 106.073C246.512 106.086 246.324 106.143 246.097 106.245C245.928 106.32 245.795 106.402 245.704 106.485L245.703 106.488Z" fill="black"/>
</g>
</g>
<g filter="url(#filter1_df_1838_1559)">
<path style="mix-blend-mode:multiply" d="M124.115 54.7264C134.302 50.9519 139.501 39.6335 135.726 29.446C131.952 19.2586 120.634 14.0599 110.446 17.8344C100.259 21.6089 95.06 32.9273 98.8345 43.1148C102.609 53.3022 113.927 58.5009 124.115 54.7264Z" fill="url(#paint5_linear_1838_1559)"/>
<path style="mix-blend-mode:screen" d="M124.115 54.7264C134.302 50.9519 139.501 39.6335 135.726 29.446C131.952 19.2586 120.634 14.0599 110.446 17.8344C100.259 21.6089 95.06 32.9273 98.8345 43.1148C102.609 53.3022 113.927 58.5009 124.115 54.7264Z" fill="url(#paint6_radial_1838_1559)"/>
<path style="mix-blend-mode:screen" d="M109.757 41.772C112.665 45.8569 113.194 50.4673 110.942 52.0719C108.69 53.6766 104.507 51.6606 101.599 47.5797C98.6912 43.4947 98.1618 38.8844 100.414 37.2797C102.666 35.6751 106.849 37.687 109.757 41.772Z" fill="url(#paint7_radial_1838_1559)"/>
<path style="mix-blend-mode:screen" d="M112.238 29.9608C107.298 33.9724 101.69 35.2472 99.7145 32.8117C97.7351 30.3762 100.138 25.1468 105.074 21.1392C110.014 17.1276 115.623 15.8528 117.602 18.2883C119.581 20.7238 117.178 25.9491 112.238 29.9608Z" fill="url(#paint8_radial_1838_1559)"/>
<path style="mix-blend-mode:screen" d="M126.361 31.7611C124.301 26.6742 124.663 21.7299 127.172 20.7117C129.681 19.6935 133.383 22.9925 135.444 28.0793C137.504 33.1662 137.142 38.1105 134.633 39.1287C132.124 40.1469 128.422 36.848 126.361 31.7611Z" fill="url(#paint9_radial_1838_1559)"/>
<mask id="mask1_1838_1559" style="mask-type:luminance" maskUnits="userSpaceOnUse" x="97" y="16" width="40" height="40">
<path d="M124.115 54.7264C134.302 50.9519 139.501 39.6335 135.726 29.446C131.952 19.2586 120.634 14.0599 110.446 17.8344C100.259 21.6089 95.06 32.9273 98.8345 43.1148C102.609 53.3022 113.927 58.5009 124.115 54.7264Z" fill="white"/>
</mask>
<g mask="url(#mask1_1838_1559)">
<path d="M130.955 29.9937C132.25 35.3453 129.253 40.6643 124.256 41.8699C119.262 43.0795 114.163 39.7195 112.868 34.3719C111.573 29.0204 114.571 23.7054 119.568 22.4958C124.565 21.2862 129.664 24.6422 130.959 29.9937H130.955Z" fill="white"/>
<path d="M118.104 31.9144C117.178 29.6923 117.931 27.9293 120.233 26.8998C122.52 25.8766 124.291 26.577 124.995 28.1521C125.638 29.589 125.012 30.615 124.492 31.08L124.516 31.1353C125.651 31.0587 126.674 31.4136 127.243 32.6848C128.04 34.4671 127.265 36.2566 125.09 37.2292C122.774 38.265 120.734 37.9839 119.554 35.4606L122.604 34.0964C122.852 34.7647 123.225 35.0292 123.818 34.7639C124.157 34.6123 124.294 34.2361 124.108 33.8216C123.886 33.3242 123.473 33.1604 122.612 33.5457L122.09 33.7794L120.983 31.3062L121.492 31.0788C121.752 30.9789 122.464 30.6769 122.118 29.9032C121.896 29.4058 121.561 29.3399 121.293 29.4599C120.841 29.662 120.974 30.1495 121.154 30.5502L118.104 31.9144Z" fill="black"/>
<path d="M124.313 16.1505C124.932 16.6636 121.605 17.5596 116.876 18.1543C112.148 18.7448 107.815 18.81 107.191 18.2968C106.572 17.7836 109.9 16.8876 114.628 16.293C119.357 15.7025 123.69 15.6373 124.313 16.1505Z" fill="white"/>
<path d="M113.136 17.0875C113.139 16.7433 114.098 16.4445 115.854 16.2378C117.6 16.0324 118.549 16.1154 118.578 16.3585C118.604 16.5804 117.926 16.7575 117.466 16.8418L117.467 16.8504C118.217 16.8184 118.779 16.8582 118.802 17.0544C118.834 17.3296 117.854 17.6331 116.194 17.8283C114.427 18.0362 113.192 18.0259 113.113 17.6373L115.441 17.3634C115.42 17.4675 115.588 17.5039 116.041 17.4507C116.299 17.4202 116.489 17.3569 116.481 17.2929C116.472 17.2161 116.251 17.1967 115.594 17.274L115.195 17.3209L115.15 16.9391L115.538 16.8935C115.732 16.8728 116.271 16.8115 116.257 16.6921C116.248 16.6153 116.051 16.6104 115.846 16.6345C115.502 16.6751 115.456 16.7518 115.463 16.8136L113.136 17.0875Z" fill="black"/>
<path d="M100.08 32.3967C98.4669 37.4632 96.4387 41.3445 95.5549 41.0635C94.6711 40.7825 95.2616 36.445 96.8785 31.3785C98.4913 26.312 100.52 22.4307 101.403 22.7117C102.287 22.9927 101.697 27.3302 100.08 32.3967Z" fill="white"/>
<path d="M96.294 28.9185C96.7536 27.3038 97.7122 26.6175 99.0151 26.9608C100.31 27.3019 100.755 28.4018 100.449 29.5655C100.169 30.6272 99.5364 30.9518 99.155 31.0041L99.1443 31.045C99.6258 31.4557 99.9017 32.0633 99.6543 33.0025C99.3073 34.3193 98.33 35.0116 97.0991 34.6873C95.7883 34.342 95.0787 33.369 95.5496 31.4844L97.2761 31.9392C97.1257 32.4127 97.1756 32.7097 97.5113 32.7982C97.7032 32.8487 97.8981 32.6926 97.9788 32.3864C98.0757 32.0189 97.9723 31.7624 97.4847 31.6339L97.189 31.556L97.6704 29.7287L97.9581 29.8045C98.0993 29.8527 98.4963 29.9682 98.6469 29.3965C98.7437 29.029 98.6348 28.8584 98.4829 28.8184C98.2271 28.751 98.0984 29.0773 98.0204 29.3734L96.294 28.9185Z" fill="black"/>
<path d="M120.073 54.5523C119.401 56.2751 115.071 56.1895 110.404 54.369C105.737 52.5444 102.499 49.6731 103.171 47.9504C103.843 46.2276 108.172 46.3131 112.839 48.1336C117.507 49.9582 120.745 52.8295 120.073 54.5523Z" fill="white"/>
<path d="M108.763 49.5514C109.243 48.6664 110.369 48.61 111.959 49.3851C113.539 50.1554 114.128 51.0761 113.812 51.7243C113.523 52.3157 112.774 52.2672 112.316 52.1424L112.305 52.1651C112.906 52.6411 113.268 53.1622 113.012 53.6853C112.655 54.4188 111.507 54.4713 110.005 53.7391C108.405 52.9593 107.503 52.0125 107.984 50.952L110.09 51.9791C109.931 52.2321 110.005 52.4512 110.415 52.6509C110.649 52.7651 110.877 52.7426 110.96 52.572C111.06 52.3673 110.923 52.1528 110.328 51.8628L109.967 51.6868L110.464 50.669L110.815 50.8402C110.988 50.9315 111.472 51.1749 111.628 50.8565C111.727 50.6518 111.588 50.4923 111.403 50.4019C111.091 50.2497 110.95 50.4136 110.87 50.5785L108.763 49.5514Z" fill="black"/>
<path d="M138.221 41.9633C136.767 46.7528 134.645 50.3491 133.476 49.9947C132.307 49.6404 132.539 45.4699 133.993 40.6804C135.447 35.8908 137.569 32.2946 138.738 32.6489C139.907 33.0032 139.675 37.1737 138.221 41.9633Z" fill="white"/>
<path d="M135.47 39.6926C136.047 37.8739 136.848 37.0388 137.745 37.3115C138.637 37.5825 138.797 38.7597 138.399 40.0684C138.036 41.2624 137.527 41.6719 137.241 41.7607L137.228 41.8066C137.517 42.2206 137.627 42.8684 137.306 43.9246C136.856 45.4056 136.04 46.2488 135.192 45.9911C134.289 45.7168 133.918 44.7011 134.544 42.5837L135.733 42.9451C135.552 43.4796 135.544 43.8032 135.776 43.8735C135.908 43.9136 136.073 43.7256 136.178 43.3812C136.303 42.9679 136.266 42.6934 135.931 42.5913L135.727 42.5294L136.351 40.4744L136.55 40.5347C136.645 40.5763 136.917 40.6714 137.112 40.0285C137.238 39.6152 137.184 39.4358 137.08 39.4041C136.903 39.3505 136.761 39.721 136.66 40.0539L135.47 39.6926Z" fill="black"/>
</g>
</g>
<g filter="url(#filter2_d_1838_1559)">
<path style="mix-blend-mode:multiply" d="M319.753 37.4849C329.005 37.4849 336.505 29.9891 336.505 20.7425C336.505 11.4959 329.005 4 319.753 4C310.5 4 303 11.4959 303 20.7425C303 29.9891 310.5 37.4849 319.753 37.4849Z" fill="url(#paint10_linear_1838_1559)"/>
<mask id="mask2_1838_1559" style="mask-type:luminance" maskUnits="userSpaceOnUse" x="303" y="4" width="34" height="34">
<path style="mix-blend-mode:screen" d="M319.753 37.4849C329.005 37.4849 336.505 29.9891 336.505 20.7425C336.505 11.4959 329.005 4 319.753 4C310.5 4 303 11.4959 303 20.7425C303 29.9891 310.5 37.4849 319.753 37.4849Z" fill="white"/>
</mask>
<g mask="url(#mask2_1838_1559)">
<path d="M335.258 23.4623C335.049 28.3298 331.533 32.1335 327.406 31.9571C323.277 31.7806 320.101 27.6896 320.308 22.8221C320.517 17.9546 324.034 14.1509 328.16 14.3273C332.289 14.5038 335.467 18.5924 335.258 23.4623Z" fill="white"/>
<path d="M328.72 21.5791C329.158 21.5993 329.556 21.7027 329.919 21.8892C330.28 22.0782 330.592 22.3278 330.85 22.6454C331.107 22.9605 331.301 23.3335 331.434 23.7671C331.565 24.1981 331.621 24.672 331.598 25.1888C331.575 25.7358 331.467 26.2298 331.276 26.6735C331.084 27.1171 330.829 27.4927 330.509 27.8053C330.192 28.1153 329.816 28.3523 329.387 28.5111C328.959 28.6699 328.493 28.7379 327.986 28.7178C327.315 28.69 326.721 28.506 326.204 28.1708C325.685 27.833 325.299 27.3767 325.049 26.797L326.259 25.3425C326.494 25.708 326.771 26.003 327.094 26.2298C327.414 26.4567 327.747 26.5777 328.092 26.5928C328.495 26.6105 328.823 26.4869 329.075 26.2248C329.327 25.9626 329.463 25.6022 329.483 25.1459C329.501 24.7098 329.405 24.357 329.193 24.0822C328.982 23.81 328.694 23.6663 328.334 23.6486C328.102 23.6386 327.885 23.6915 327.681 23.8024C327.479 23.9158 327.313 24.0797 327.182 24.299L325.392 24.2234C325.392 24.2234 325.415 24.1099 325.458 23.9133C325.501 23.7167 325.551 23.4621 325.614 23.1521C325.675 22.8395 325.745 22.4916 325.826 22.1034C325.906 21.7153 325.99 21.322 326.075 20.9187C326.272 19.9735 326.494 18.9022 326.743 17.7048L331.291 17.8989L331.195 20.1171L328.142 19.9861L327.807 21.8136C327.862 21.7455 327.966 21.685 328.117 21.6371C328.271 21.5867 328.47 21.5691 328.72 21.5791Z" fill="black"/>
<path d="M310.88 16.1598C307.447 19.2099 303.797 19.6182 302.731 17.0698C301.665 14.5239 303.583 9.98664 307.016 6.9366C310.449 3.88656 314.099 3.4782 315.166 6.02663C316.232 8.57253 314.314 13.1098 310.88 16.1598Z" fill="white"/>
<path d="M310.193 10.6193C310.306 10.889 310.349 11.1915 310.324 11.5293C310.298 11.8645 310.213 12.2124 310.069 12.5678C309.925 12.9257 309.721 13.2837 309.462 13.6416C309.199 14.0021 308.887 14.3424 308.524 14.665C308.138 15.0078 307.765 15.2675 307.402 15.4439C307.039 15.6204 306.704 15.7161 306.396 15.7313C306.089 15.7464 305.819 15.6783 305.585 15.5296C305.35 15.3809 305.169 15.1515 305.038 14.8389C304.864 14.4255 304.821 13.9567 304.904 13.4324C304.987 12.9081 305.194 12.3813 305.524 11.857L306.88 11.6225C306.694 11.9981 306.57 12.3535 306.505 12.6913C306.439 13.0291 306.452 13.3038 306.54 13.5156C306.643 13.7651 306.825 13.8786 307.079 13.8559C307.334 13.8332 307.624 13.6794 307.944 13.3921C308.252 13.1198 308.468 12.8325 308.597 12.53C308.725 12.2275 308.743 11.9653 308.65 11.741C308.589 11.5973 308.491 11.5041 308.355 11.4587C308.219 11.4133 308.055 11.4234 307.868 11.4889L307.405 10.3849C307.405 10.3849 307.49 10.3244 307.637 10.221C307.785 10.1177 307.974 9.98408 308.209 9.8152C308.443 9.64883 308.705 9.4623 308.998 9.25812C309.29 9.05394 309.588 8.84473 309.89 8.63299C310.601 8.13137 311.407 7.56421 312.31 6.93152L313.485 9.73705L311.919 11.126L311.13 9.243L309.767 10.2362C309.83 10.2235 309.9 10.2462 309.978 10.3042C310.056 10.3622 310.127 10.4681 310.193 10.6218V10.6193Z" fill="black"/>
<path d="M312.401 29.2068C315.622 32.2417 317.029 35.9799 315.544 37.5529C314.059 39.1283 310.243 37.9436 307.021 34.9061C303.8 31.8737 302.393 28.1355 303.878 26.5626C305.363 24.9872 309.179 26.1719 312.401 29.2093V29.2068Z" fill="white"/>
<path d="M308.67 30.9281C308.826 30.7617 309.03 30.6609 309.277 30.6281C309.524 30.5953 309.797 30.6206 310.094 30.7063C310.391 30.792 310.709 30.9407 311.044 31.1474C311.38 31.3541 311.717 31.6213 312.06 31.9414C312.423 32.2817 312.721 32.627 312.958 32.9724C313.194 33.3177 313.363 33.6504 313.469 33.9706C313.573 34.2882 313.608 34.5831 313.575 34.8553C313.54 35.125 313.431 35.3595 313.25 35.551C313.008 35.8056 312.688 35.9392 312.29 35.9443C311.889 35.9518 311.453 35.8308 310.979 35.5813L310.396 34.205C310.722 34.331 311.012 34.3966 311.271 34.4041C311.531 34.4117 311.722 34.3487 311.846 34.2176C311.992 34.0638 312.017 33.8546 311.922 33.5925C311.826 33.3303 311.629 33.0581 311.327 32.7732C311.039 32.501 310.767 32.3271 310.512 32.2464C310.258 32.1683 310.066 32.196 309.935 32.3346C309.852 32.4228 309.814 32.5438 309.824 32.6951C309.834 32.8463 309.89 33.0152 309.996 33.1992L309.35 33.8823C309.35 33.8823 309.282 33.8042 309.164 33.6681C309.045 33.532 308.892 33.358 308.7 33.1438C308.508 32.9295 308.297 32.69 308.062 32.4203C307.828 32.1531 307.588 31.8784 307.344 31.6011C306.769 30.9482 306.119 30.2097 305.393 29.3829L307.029 27.6487L308.496 29.0325L307.397 30.1971L308.521 31.4423C308.493 31.3793 308.488 31.3011 308.503 31.2079C308.521 31.1171 308.574 31.0213 308.665 30.9281H308.67Z" fill="black"/>
<path d="M330.686 6.59124C333.884 9.32115 336.15 11.9175 335.747 12.3914C335.341 12.8653 332.42 11.0377 329.221 8.30783C326.02 5.57792 323.754 2.9816 324.159 2.50771C324.565 2.03382 327.487 3.86133 330.686 6.59124Z" fill="white"/>
</g>
<path style="mix-blend-mode:screen" d="M319.753 37.4849C329.005 37.4849 336.505 29.9891 336.505 20.7425C336.505 11.4959 329.005 4 319.753 4C310.5 4 303 11.4959 303 20.7425C303 29.9891 310.5 37.4849 319.753 37.4849Z" fill="url(#paint11_radial_1838_1559)"/>
<path style="mix-blend-mode:screen" d="M313.938 26.6406C316.391 30.0864 316.84 33.9758 314.939 35.3294C313.038 36.6805 309.507 34.9841 307.054 31.5383C304.602 28.0925 304.153 24.2031 306.054 22.852C307.954 21.5009 311.486 23.1973 313.938 26.6431V26.6406Z" fill="url(#paint12_radial_1838_1559)"/>
<path style="mix-blend-mode:screen" d="M320.18 20.3164C317.268 22.6808 313.553 22.9303 311.882 20.8734C310.213 18.8191 311.219 15.2372 314.133 12.8727C317.044 10.5083 320.76 10.2588 322.431 12.3157C324.099 14.37 323.094 17.9545 320.18 20.3164Z" fill="url(#paint13_radial_1838_1559)"/>
<path style="mix-blend-mode:screen" d="M327.953 18.1936C326.214 13.9034 326.521 9.73162 328.639 8.87206C330.756 8.01502 333.882 10.7979 335.621 15.0881C337.36 19.3783 337.053 23.5501 334.938 24.4096C332.821 25.2667 329.695 22.4838 327.956 18.1936H327.953Z" fill="url(#paint14_radial_1838_1559)"/>
</g>
<g filter="url(#filter3_d_1838_1559)">
<path style="mix-blend-mode:multiply" d="M418.18 163.802C429.672 138.064 418.123 107.883 392.385 96.3915C366.647 84.8999 336.466 96.4489 324.975 122.187C313.483 147.925 325.032 178.106 350.77 189.597C376.508 201.089 406.689 189.54 418.18 163.802Z" fill="url(#paint15_linear_1838_1559)"/>
<path style="mix-blend-mode:screen" d="M418.18 163.802C429.672 138.064 418.123 107.883 392.385 96.3915C366.647 84.8999 336.466 96.4489 324.975 122.187C313.483 147.925 325.032 178.106 350.77 189.597C376.508 201.089 406.689 189.54 418.18 163.802Z" fill="url(#paint16_radial_1838_1559)"/>
<path style="mix-blend-mode:screen" d="M352.591 154.218C357.068 166.234 355.322 177.972 348.704 180.436C342.085 182.909 333.082 175.162 328.611 163.157C324.134 151.141 325.88 139.403 332.497 136.939C339.126 134.468 348.123 142.205 352.6 154.22L352.591 154.218Z" fill="url(#paint17_radial_1838_1559)"/>
<path style="mix-blend-mode:screen" d="M363.257 123.916C348.399 130.547 333.708 129.993 330.434 122.663C327.16 115.332 336.547 104.019 351.407 97.3786C366.258 90.7359 380.956 91.302 384.232 98.623C387.506 105.953 378.119 117.267 363.268 123.909L363.257 123.916Z" fill="url(#paint18_radial_1838_1559)"/>
<mask id="mask3_1838_1559" style="mask-type:luminance" maskUnits="userSpaceOnUse" x="320" y="91" width="103" height="104">
<path d="M418.352 163.849C429.843 138.111 418.294 107.931 392.556 96.439C366.818 84.9474 336.638 96.4964 325.146 122.234C313.654 147.973 325.203 178.153 350.941 189.645C376.679 201.137 406.86 189.588 418.352 163.849Z" fill="white"/>
</mask>
<g mask="url(#mask3_1838_1559)">
<path d="M403.824 163.104C399.961 177.521 386.039 186.318 372.729 182.751C359.418 179.184 351.76 164.606 355.623 150.189C359.486 135.772 373.405 126.985 386.715 130.552C400.026 134.118 407.684 148.697 403.824 163.104Z" fill="white"/>
<path d="M390.059 167.687C389.375 169.185 388.474 170.411 387.357 171.385C386.244 172.35 384.995 173.055 383.627 173.485C382.255 173.924 380.816 174.073 379.292 173.957C377.769 173.84 376.282 173.441 374.826 172.779C373.414 172.139 372.176 171.282 371.11 170.219C370.035 169.154 369.22 167.953 368.637 166.612C368.063 165.272 367.768 163.833 367.76 162.305C367.751 160.777 368.107 159.23 368.814 157.68C369.169 156.9 369.601 156.229 370.121 155.668C370.631 155.105 371.179 154.62 371.768 154.234C372.351 153.836 372.942 153.518 373.533 153.269C374.125 153.019 374.702 152.824 375.242 152.696C374.698 151.861 374.399 150.838 374.353 149.63C374.305 148.432 374.515 147.322 374.978 146.319C375.654 144.848 376.557 143.69 377.698 142.84C378.84 141.989 380.068 141.395 381.383 141.057C382.689 140.717 384.018 140.617 385.368 140.764C386.709 140.91 387.935 141.229 389.015 141.732C390.107 142.229 391.14 142.943 392.138 143.861C393.124 144.786 393.94 145.841 394.564 147.028C395.188 148.216 395.556 149.529 395.662 150.947C395.768 152.365 395.486 153.816 394.812 155.278C394.349 156.281 393.642 157.18 392.677 157.951C391.71 158.732 390.735 159.18 389.744 159.323C390 159.819 390.227 160.385 390.435 161.024C390.643 161.663 390.773 162.339 390.833 163.055C390.892 163.78 390.866 164.531 390.761 165.319C390.657 166.108 390.425 166.901 390.054 167.705L390.059 167.687ZM382.587 163.693C383.017 162.739 383.073 161.879 382.737 161.099C382.402 160.32 381.811 159.734 380.961 159.35C380.087 158.951 379.247 158.891 378.446 159.162C377.642 159.443 377.035 160.038 376.615 160.955C376.236 161.787 376.197 162.622 376.506 163.463C376.816 164.304 377.391 164.915 378.24 165.298C379.115 165.697 379.968 165.741 380.784 165.416C381.607 165.102 382.208 164.524 382.589 163.684L382.587 163.693ZM382.597 149.983C382.242 150.763 382.205 151.443 382.505 152.028C382.796 152.612 383.208 153.033 383.746 153.274C384.274 153.513 384.863 153.564 385.517 153.409C386.162 153.251 386.666 152.784 387.018 152.013C387.279 151.442 387.3 150.854 387.068 150.268C386.837 149.681 386.394 149.232 385.727 148.927C385.06 148.622 384.439 148.582 383.855 148.804C383.271 149.027 382.854 149.42 382.592 150.001L382.597 149.983Z" fill="#333333"/>
<path d="M367.776 113.212C353.432 118.795 339.209 117.618 338.183 109.986C337.191 102.626 349.207 93.5428 363.05 89.9731C375.15 86.85 385.01 88.9672 386.436 94.4902C387.898 100.169 380.201 108.368 367.769 113.2L367.776 113.212Z" fill="white"/>
<path d="M359.196 107.405C357.645 107.971 356.182 108.317 354.807 108.444C353.42 108.578 352.185 108.51 351.108 108.25C350.021 107.988 349.132 107.536 348.457 106.899C347.783 106.261 347.358 105.487 347.196 104.568C347.042 103.691 347.174 102.765 347.568 101.801C347.96 100.847 348.597 99.9196 349.48 99.0191C350.349 98.1343 351.424 97.3144 352.711 96.571C353.978 95.8318 355.402 95.2319 356.993 94.7736C357.773 94.5454 358.504 94.3915 359.184 94.3209C359.864 94.2504 360.484 94.2221 361.059 94.25C361.626 94.2755 362.144 94.3366 362.602 94.4399C363.063 94.5342 363.459 94.6502 363.812 94.7836C364.188 94.2139 364.803 93.6595 365.648 93.1181C366.49 92.5858 367.367 92.1793 368.276 91.9077C369.585 91.5199 370.769 91.3417 371.83 91.3732C372.881 91.4023 373.799 91.5702 374.575 91.8657C375.342 92.1586 375.963 92.5585 376.431 93.0627C376.898 93.567 377.201 94.1049 377.342 94.6674C377.48 95.239 377.462 95.8853 377.289 96.6065C377.112 97.3367 376.77 98.071 376.264 98.8002C375.752 99.5476 375.046 100.262 374.13 100.959C373.212 101.666 372.093 102.25 370.769 102.731C369.855 103.06 368.889 103.257 367.895 103.302C366.89 103.354 366.095 103.238 365.537 102.962C365.281 103.302 364.961 103.663 364.585 104.048C364.198 104.44 363.743 104.833 363.222 105.218C362.69 105.61 362.091 105.994 361.427 106.37C360.751 106.752 360.01 107.088 359.18 107.391L359.196 107.405ZM358.773 102.636C359.735 102.311 360.439 101.897 360.887 101.386C361.332 100.883 361.505 100.385 361.401 99.9005C361.294 99.3954 360.953 99.0709 360.361 98.9221C359.772 98.7641 359.003 98.84 358.078 99.1364C357.229 99.4045 356.539 99.8027 356.009 100.331C355.479 100.86 355.251 101.382 355.35 101.884C355.453 102.408 355.832 102.733 356.494 102.871C357.159 103.001 357.919 102.923 358.764 102.634L358.773 102.636ZM369.054 96.1105C368.351 96.34 367.855 96.6345 367.561 97.003C367.268 97.3715 367.16 97.7021 367.226 98.0015C367.291 98.3009 367.525 98.5189 367.93 98.676C368.328 98.8216 368.891 98.7878 369.596 98.5492C370.118 98.3781 370.53 98.1095 370.846 97.7664C371.152 97.4209 371.265 97.0721 371.187 96.711C371.109 96.35 370.86 96.1181 370.458 96.0202C370.05 95.9109 369.592 95.9533 369.07 96.1244L369.054 96.1105Z" fill="#333333"/>
<path d="M331.327 179.714C337.502 190.037 344.496 196.216 346.936 193.527C349.388 190.831 346.364 180.283 340.19 169.96C334.015 159.637 327.022 153.458 324.581 156.147C322.129 158.843 325.153 169.391 331.327 179.714Z" fill="white"/>
<path d="M335.248 179.588C334.973 179.019 334.739 178.48 334.545 177.971C334.351 177.463 334.183 177 334.065 176.57C333.947 176.14 333.844 175.762 333.786 175.436C333.414 175.229 332.947 174.793 332.394 174.139C331.84 173.486 331.333 172.767 330.877 172.003C330.203 170.89 329.679 169.836 329.286 168.836C328.893 167.837 328.614 166.956 328.463 166.177C328.312 165.398 328.264 164.743 328.314 164.193C328.364 163.643 328.496 163.26 328.705 163.025C328.923 162.792 329.23 162.699 329.637 162.74C330.043 162.781 330.511 162.994 331.058 163.383C331.596 163.77 332.185 164.327 332.826 165.052C333.465 165.787 334.124 166.702 334.786 167.822C335.242 168.586 335.648 169.394 335.993 170.245C336.338 171.095 336.552 171.784 336.621 172.327C336.841 172.484 337.091 172.677 337.364 172.925C337.64 173.164 337.931 173.456 338.247 173.803C338.562 174.15 338.892 174.549 339.226 175.008C339.569 175.469 339.915 175.99 340.272 176.581C340.976 177.761 341.565 178.9 342.023 179.985C342.489 181.072 342.825 182.066 343.036 182.948C343.253 183.842 343.341 184.604 343.307 185.237C343.271 185.878 343.118 186.342 342.842 186.647C342.554 186.959 342.183 187.073 341.709 186.995C341.234 186.916 340.704 186.648 340.12 186.18C339.533 185.722 338.906 185.087 338.239 184.277C337.572 183.467 336.9 182.49 336.223 181.356C335.862 180.744 335.535 180.151 335.26 179.582L335.248 179.588ZM338.614 180.772C338.987 181.086 339.259 181.159 339.426 180.97C339.591 180.791 339.604 180.415 339.452 179.86C339.299 179.304 339.034 178.698 338.657 178.072C338.241 177.378 337.849 176.884 337.507 176.598C337.157 176.31 336.896 176.269 336.72 176.455C336.555 176.634 336.538 176.989 336.652 177.506C336.775 178.025 337.056 178.644 337.486 179.362C337.869 179.999 338.239 180.468 338.609 180.79L338.614 180.772ZM332.553 168.613C332.292 168.388 332.097 168.355 331.963 168.494C331.837 168.636 331.824 168.904 331.922 169.3C332.02 169.695 332.208 170.115 332.472 170.545C332.829 171.136 333.134 171.52 333.395 171.706C333.659 171.884 333.843 171.923 333.942 171.804C334.051 171.688 334.06 171.437 333.978 171.056C333.895 170.674 333.687 170.181 333.331 169.59C333.069 169.15 332.806 168.827 332.546 168.602L332.553 168.613Z" fill="#333333"/>
<path d="M397.481 199.072C408.749 194.016 415.894 187.621 413.441 184.807C410.989 181.992 399.862 183.802 388.593 188.867C377.325 193.924 370.179 200.318 372.641 203.135C375.092 205.959 386.22 204.14 397.49 199.075L397.481 199.072Z" fill="white"/>
</g>
</g>
<g filter="url(#filter4_d_1838_1559)">
<path style="mix-blend-mode:multiply" d="M58.4439 312.541C69.0369 306.972 73.1098 293.87 67.541 283.277C61.9721 272.684 48.8704 268.611 38.2774 274.18C27.6844 279.749 23.6115 292.851 29.1803 303.444C34.7492 314.037 47.8509 318.11 58.4439 312.541Z" fill="url(#paint19_linear_1838_1559)"/>
<path style="mix-blend-mode:screen" d="M58.4439 312.541C69.0369 306.972 73.1098 293.87 67.541 283.277C61.9721 272.684 48.8704 268.611 38.2774 274.18C27.6844 279.749 23.6115 292.851 29.1803 303.444C34.7492 314.037 47.8509 318.11 58.4439 312.541Z" fill="url(#paint20_radial_1838_1559)"/>
<path style="mix-blend-mode:screen" d="M39.1125 298.585C41.353 303.628 40.9175 308.719 38.1346 309.955C35.3542 311.192 31.2836 308.104 29.0399 303.062C26.7994 298.018 27.2348 292.928 30.017 291.694C32.7975 290.457 36.868 293.545 39.1117 298.587L39.1125 298.585Z" fill="url(#paint21_radial_1838_1559)"/>
<path style="mix-blend-mode:screen" d="M44.1515 285.204C37.9433 288.45 31.6146 288.599 30.015 285.537C28.4155 282.475 32.1491 277.362 38.3549 274.116C44.5606 270.87 50.8918 270.721 52.4913 273.783C54.0908 276.845 50.3572 281.958 44.1515 285.204Z" fill="url(#paint22_radial_1838_1559)"/>
<path style="mix-blend-mode:screen" d="M59.2192 291.419C58.1091 285.48 59.5847 280.225 62.5127 279.677C65.4408 279.13 68.7159 283.5 69.8243 289.436C70.9344 295.374 69.4588 300.629 66.5308 301.177C63.6027 301.725 60.3276 297.354 59.2192 291.419Z" fill="url(#paint23_radial_1838_1559)"/>
<mask id="mask4_1838_1559" style="mask-type:luminance" maskUnits="userSpaceOnUse" x="26" y="271" width="45" height="45">
<path d="M58.4439 312.541C69.0369 306.972 73.1098 293.87 67.541 283.277C61.9721 272.684 48.8704 268.611 38.2774 274.18C27.6844 279.749 23.6115 292.851 29.1803 303.444C34.7492 314.037 47.8509 318.11 58.4439 312.541Z" fill="white"/>
</mask>
<g mask="url(#mask4_1838_1559)">
<path d="M48.7661 294.62C50.8331 300.446 48.4109 306.833 43.3569 308.882C38.303 310.932 32.5298 307.872 30.4628 302.047C28.3958 296.221 30.8181 289.834 35.872 287.784C40.9259 285.735 46.6991 288.794 48.7661 294.62Z" fill="white"/>
<path d="M38.6934 296.323L34.3412 298.09L33.2035 294.887L42.3583 291.173L41.4489 306.582L37.9958 307.982L38.6934 296.323Z" fill="black"/>
<path d="M68.4197 274.754C72.9239 277.154 75.2824 283.102 73.6879 288.042C72.0935 292.982 67.1498 295.039 62.6431 292.638C58.1389 290.238 55.7804 284.29 57.3749 279.35C58.9693 274.411 63.9155 272.354 68.4197 274.754Z" fill="white"/>
<path d="M63.9204 282.859L62.5934 286.981L60.1133 285.674L62.9019 277.005L71.3874 287.651L70.3361 290.921L63.9228 282.859L63.9204 282.859Z" fill="black"/>
<path d="M69.503 304.858C69.6312 306.386 66.0924 310.096 61.6005 313.149C57.1085 316.201 53.3631 317.438 53.2349 315.911C53.1067 314.384 56.6454 310.673 61.1374 307.621C65.6294 304.568 69.3748 303.331 69.503 304.858Z" fill="white"/>
<path d="M60.8897 310.556L57.0197 313.186L56.9508 312.347L65.0884 306.818L60.422 313.63L57.3537 315.715L60.8921 310.557L60.8897 310.556Z" fill="black"/>
<path d="M51.4375 267.888C51.0947 269.301 45.6756 273.414 39.3326 277.075C32.9896 280.737 28.127 282.56 28.469 281.149C28.8118 279.736 34.2309 275.624 40.5739 271.962C46.9169 268.3 51.7803 266.475 51.4375 267.888Z" fill="white"/>
<path d="M39.4677 273.762L34.0057 276.918L34.1938 276.14L45.682 269.505L37.9124 276.73L33.5784 279.232L39.4653 273.761L39.4677 273.762Z" fill="black"/>
</g>
</g>
<g filter="url(#filter5_d_1838_1559)">
<path style="mix-blend-mode:multiply" d="M17.1426 168.467C37.5388 167.58 53.3542 150.327 52.4672 129.931C51.5803 109.534 34.3269 93.719 13.9306 94.6059C-6.46559 95.4929 -22.281 112.746 -21.394 133.143C-20.5071 153.539 -3.25366 169.354 17.1426 168.467Z" fill="url(#paint24_linear_1838_1559)"/>
<path style="mix-blend-mode:screen" d="M17.1426 168.467C37.5388 167.58 53.3542 150.327 52.4672 129.931C51.5803 109.534 34.3269 93.719 13.9306 94.6059C-6.46559 95.4929 -22.281 112.746 -21.394 133.143C-20.5071 153.539 -3.25366 169.354 17.1426 168.467Z" fill="url(#paint25_radial_1838_1559)"/>
<path style="mix-blend-mode:screen" d="M0.118298 140.455C4.0759 149.241 3.36052 158.135 -1.48399 160.314C-6.3285 162.498 -13.4656 157.143 -17.4232 148.358C-21.385 139.577 -20.6696 130.683 -15.8251 128.499C-10.9806 126.315 -3.84349 131.67 0.114115 140.455H0.118298Z" fill="url(#paint26_radial_1838_1559)"/>
<path style="mix-blend-mode:screen" d="M5.45147 117.818C-3.03688 124.709 -12.6715 126.901 -16.0685 122.717C-19.4697 118.53 -15.3448 109.552 -6.85642 102.662C1.62774 95.7671 11.2624 93.575 14.6636 97.7627C18.0606 101.95 13.9398 110.928 5.45147 117.818Z" fill="url(#paint27_radial_1838_1559)"/>
<path style="mix-blend-mode:screen" d="M38.1916 126.808C36.0915 119.27 37.4051 112.317 41.1201 111.283C44.8392 110.246 49.5541 115.517 51.6542 123.06C53.7543 130.599 52.4407 137.552 48.7257 138.585C45.0066 139.622 40.2918 134.351 38.1916 126.812V126.808Z" fill="url(#paint28_radial_1838_1559)"/>
<mask id="mask5_1838_1559" style="mask-type:luminance" maskUnits="userSpaceOnUse" x="-22" y="94" width="75" height="75">
<path d="M17.1426 168.467C37.5388 167.58 53.3542 150.327 52.4672 129.931C51.5803 109.534 34.3269 93.719 13.9306 94.6059C-6.46559 95.4929 -22.281 112.746 -21.394 133.143C-20.5071 153.539 -3.25366 169.354 17.1426 168.467Z" fill="white"/>
</mask>
<g mask="url(#mask5_1838_1559)">
<path d="M40.8774 119.127C43.354 129.431 37.0076 139.794 26.7036 142.271C16.3997 144.747 6.03709 138.401 3.56045 128.097C1.08381 117.793 7.4302 107.43 17.7342 104.954C28.0382 102.477 38.4007 108.823 40.8774 119.127Z" fill="white"/>
<path d="M25.3478 134.732L24.2894 130.327L15.4455 132.452L14.341 127.854L21.5952 111.894L25.101 111.053L28.3265 124.461L31.1545 123.779L32.2674 128.41L29.4351 129.092L30.4935 133.498L25.3478 134.736V134.732ZM19.4114 126.599L23.7832 125.549L22.4152 119.855L19.4114 126.599Z" fill="black"/>
<path d="M48.5756 149.103C50.0608 151.755 43.6558 158.168 34.268 163.427C24.8802 168.686 16.0655 170.798 14.5762 168.142C13.0911 165.49 19.496 159.076 28.8838 153.818C38.2716 148.559 47.0863 146.446 48.5756 149.103Z" fill="white"/>
<path d="M33.5522 162.093L32.9163 160.959L24.8589 165.473L24.1937 164.289L31.8077 155.478L34.9997 153.692L36.9325 157.143L39.5096 155.7L40.1747 156.892L37.5977 158.336L38.2336 159.47L33.5481 162.093H33.5522ZM28.8207 161.687L32.8034 159.457L31.9834 157.993L28.8207 161.691V161.687Z" fill="black"/>
<path d="M18.5218 92.4412C19.0197 91.525 25.6171 94.1481 33.2562 98.2981C40.8953 102.448 46.6853 106.556 46.1874 107.473C45.6896 108.389 39.0922 105.766 31.4531 101.616C23.814 97.4656 18.024 93.3574 18.5218 92.4412Z" fill="white"/>
<path d="M32.5742 98.7829L32.3608 99.1762L38.9164 102.741L38.6947 103.151L30.2732 100.122L27.6753 98.7118L28.3237 97.5195L26.2278 96.3774L26.4537 95.9674L28.5496 97.1095L28.763 96.7163L32.5784 98.7871L32.5742 98.7829ZM34.9253 101.101L31.6831 99.3394L31.407 99.8456L34.9253 101.101Z" fill="black"/>
</g>
</g>
<g filter="url(#filter6_d_1838_1559)">
<path style="mix-blend-mode:multiply" d="M326.353 394.69C336.299 391.005 341.375 379.955 337.69 370.009C334.005 360.063 322.955 354.987 313.009 358.672C303.063 362.357 297.987 373.407 301.672 383.353C305.357 393.299 316.407 398.375 326.353 394.69Z" fill="url(#paint29_linear_1838_1559)"/>
<path style="mix-blend-mode:screen" d="M326.353 394.69C336.299 391.005 341.375 379.955 337.69 370.009C334.005 360.063 322.955 354.987 313.009 358.672C303.063 362.357 297.987 373.407 301.672 383.353C305.357 393.299 316.407 398.375 326.353 394.69Z" fill="url(#paint30_radial_1838_1559)"/>
<path style="mix-blend-mode:screen" d="M312.336 382.043C315.175 386.031 315.692 390.532 313.493 392.099C311.294 393.666 307.211 391.697 304.372 387.713C301.533 383.725 301.016 379.224 303.214 377.657C305.413 376.091 309.497 378.055 312.336 382.043Z" fill="url(#paint31_radial_1838_1559)"/>
<path style="mix-blend-mode:screen" d="M314.757 370.512C309.934 374.428 304.459 375.673 302.53 373.295C300.598 370.917 302.944 365.812 307.763 361.899C312.586 357.983 318.062 356.738 319.994 359.116C321.926 361.494 319.581 366.595 314.757 370.512Z" fill="url(#paint32_radial_1838_1559)"/>
<path style="mix-blend-mode:screen" d="M328.547 372.269C326.535 367.303 326.889 362.476 329.338 361.482C331.787 360.488 335.402 363.708 337.414 368.675C339.426 373.641 339.072 378.468 336.622 379.462C334.173 380.456 330.559 377.236 328.547 372.269Z" fill="url(#paint33_radial_1838_1559)"/>
<mask id="mask6_1838_1559" style="mask-type:luminance" maskUnits="userSpaceOnUse" x="300" y="357" width="39" height="39">
<path d="M326.353 394.69C336.299 391.005 341.375 379.955 337.69 370.009C334.005 360.063 322.955 354.987 313.009 358.672C303.063 362.357 297.987 373.407 301.672 383.353C305.357 393.299 316.407 398.375 326.353 394.69Z" fill="white"/>
</mask>
<g mask="url(#mask6_1838_1559)">
<path d="M333.032 370.543C334.297 375.768 331.37 380.961 326.491 382.138C321.616 383.319 316.638 380.039 315.374 374.818C314.109 369.593 317.036 364.404 321.915 363.223C326.794 362.042 331.772 365.319 333.036 370.543H333.032Z" fill="white"/>
<path d="M329.076 373.848L329.696 376.409L322.523 378.146L321.902 375.586L324.26 375.013L323.163 370.476C323.099 370.643 322.976 370.826 322.805 371.025C322.63 371.224 322.427 371.419 322.197 371.606C321.966 371.792 321.724 371.959 321.473 372.103C321.219 372.246 320.988 372.341 320.777 372.393L320.141 369.761C320.32 369.717 320.531 369.598 320.781 369.399C321.032 369.2 321.274 368.977 321.505 368.723C321.735 368.472 321.942 368.226 322.117 367.983C322.292 367.741 322.392 367.554 322.419 367.419L325.127 366.763L326.964 374.357L329.072 373.848H329.076Z" fill="black"/>
<path d="M326.547 357.028C327.152 357.529 323.903 358.404 319.287 358.984C314.67 359.561 310.44 359.624 309.831 359.123C309.227 358.622 312.475 357.748 317.092 357.167C321.708 356.591 325.939 356.527 326.547 357.028Z" fill="white"/>
<path d="M322.906 357.756L323.232 358.026L315.82 358.953L315.494 358.682L317.931 358.376L317.355 357.899C317.271 357.927 317.128 357.963 316.929 358.006C316.731 358.05 316.504 358.094 316.253 358.142C315.999 358.189 315.741 358.233 315.47 358.277C315.2 358.321 314.957 358.356 314.738 358.384L314.404 358.11C314.587 358.086 314.818 358.05 315.092 357.998C315.367 357.947 315.637 357.895 315.9 357.839C316.162 357.784 316.397 357.732 316.599 357.684C316.806 357.637 316.929 357.601 316.969 357.581L319.764 357.231L320.727 358.026L322.906 357.752V357.756Z" fill="black"/>
<path d="M302.888 372.89C301.314 377.836 299.333 381.625 298.471 381.351C297.608 381.077 298.184 376.842 299.763 371.896C301.337 366.949 303.318 363.16 304.18 363.434C305.043 363.709 304.467 367.943 302.888 372.89Z" fill="white"/>
<path d="M301.413 374.977L300.57 377.625L299.182 377.184L300.025 374.536L300.482 374.683L301.978 369.991C301.91 370.13 301.834 370.273 301.743 370.412C301.651 370.551 301.564 370.679 301.473 370.79C301.381 370.901 301.298 370.993 301.218 371.052C301.139 371.116 301.079 371.14 301.039 371.128L301.906 368.404C301.942 368.416 302.005 368.361 302.105 368.245C302.204 368.126 302.308 367.983 302.423 367.808C302.538 367.637 302.646 367.458 302.753 367.275C302.86 367.092 302.936 366.941 302.988 366.822L303.512 366.989L301.011 374.842L301.421 374.973L301.413 374.977Z" fill="black"/>
<path d="M322.408 394.52C321.752 396.202 317.525 396.118 312.968 394.341C308.412 392.56 305.25 389.757 305.907 388.075C306.563 386.393 310.789 386.476 315.346 388.254C319.903 390.035 323.064 392.838 322.408 394.52Z" fill="white"/>
<path d="M317.64 393.677L317.29 394.575L309.97 391.716L310.32 390.818L312.726 391.756L313.346 390.162C313.227 390.174 313.048 390.162 312.813 390.13C312.579 390.098 312.32 390.05 312.038 389.991C311.755 389.931 311.469 389.86 311.183 389.78C310.897 389.7 310.646 389.617 310.431 389.533L310.793 388.607C310.972 388.679 311.219 388.746 311.525 388.814C311.831 388.881 312.137 388.937 312.443 388.981C312.749 389.029 313.032 389.06 313.282 389.08C313.533 389.1 313.696 389.104 313.767 389.08L316.531 390.158L315.489 392.826L317.64 393.665V393.677Z" fill="black"/>
<path d="M340.126 382.229C338.706 386.905 336.634 390.416 335.493 390.071C334.352 389.725 334.579 385.653 335.998 380.977C337.418 376.301 339.489 372.79 340.63 373.136C341.772 373.482 341.545 377.553 340.126 382.229Z" fill="white"/>
<path d="M338.272 384.353L337.513 386.854L335.684 386.297L336.443 383.792L337.044 383.975L338.388 379.541C338.32 379.673 338.236 379.804 338.141 379.931C338.046 380.058 337.942 380.174 337.839 380.277C337.735 380.38 337.64 380.456 337.545 380.512C337.453 380.567 337.378 380.583 337.326 380.567L338.105 377.995C338.149 378.007 338.229 377.963 338.34 377.855C338.451 377.752 338.567 377.617 338.694 377.458C338.817 377.299 338.936 377.136 339.052 376.969C339.163 376.802 339.246 376.659 339.294 376.547L339.986 376.758L337.735 384.182L338.272 384.345V384.353Z" fill="black"/>
</g>
</g>
<g filter="url(#filter7_d_1838_1559)">
<path style="mix-blend-mode:multiply" d="M66.8623 454.668C82.865 423.093 70.2416 384.524 38.6672 368.522C7.09284 352.519 -31.476 365.142 -47.4786 396.717C-63.4813 428.291 -50.8579 466.86 -19.2836 482.863C12.2908 498.865 50.8596 486.242 66.8623 454.668Z" fill="url(#paint34_linear_1838_1559)"/>
<path style="mix-blend-mode:screen" d="M66.8623 454.668C82.865 423.093 70.2416 384.524 38.6672 368.522C7.09284 352.519 -31.476 365.142 -47.4786 396.717C-63.4813 428.291 -50.8579 466.86 -19.2836 482.863C12.2908 498.865 50.8596 486.242 66.8623 454.668Z" fill="url(#paint35_radial_1838_1559)"/>
<mask id="mask7_1838_1559" style="mask-type:luminance" maskUnits="userSpaceOnUse" x="-55" y="361" width="129" height="129">
<path d="M66.8622 454.667C82.8649 423.093 70.2415 384.524 38.6672 368.522C7.09278 352.519 -31.476 365.142 -47.4787 396.717C-63.4814 428.291 -50.858 466.86 -19.2836 482.863C12.2908 498.865 50.8596 486.242 66.8622 454.667Z" fill="white"/>
</mask>
<g mask="url(#mask7_1838_1559)">
<path d="M2.1858 358.013C2.07448 354.428 -9.4631 358.935 -23.5804 368.091C-37.6976 377.246 -49.0472 387.563 -48.9265 391.15C-48.8151 394.735 -37.2776 390.228 -23.1603 381.072C-9.0531 371.925 2.30651 361.6 2.1858 358.013Z" fill="white"/>
<path d="M63.9049 466.067C63.8076 463.077 54.2022 466.835 42.4507 474.461C30.6898 482.086 21.2384 490.679 21.3358 493.669C21.4331 496.659 31.0385 492.901 42.79 485.275C54.5503 477.659 64.0023 469.057 63.9049 466.067Z" fill="white"/>
<path d="M45.9976 476.471C47.2945 475.629 48.5169 474.905 49.6656 474.289C50.8142 473.673 51.8105 473.206 52.6538 472.898C53.4978 472.581 54.1607 472.421 54.6611 472.419C55.1528 472.407 55.4138 472.586 55.4258 472.946C55.4344 473.352 55.1593 473.899 54.5808 474.594C54.0024 475.289 53.1603 476.106 52.0452 477.046C50.9301 477.985 49.5613 479.039 47.9483 480.207C46.3354 481.376 44.4903 482.622 42.4211 483.965C40.2238 485.384 38.268 486.594 36.5256 487.593C34.7926 488.592 33.3118 489.364 32.1022 489.91C30.8925 490.455 29.9539 490.775 29.2871 490.86C28.6296 490.945 28.2929 490.769 28.2755 490.353C28.2495 489.53 29.4232 488.037 31.7957 485.885L36.3821 483.929C35.0488 485.146 34.3859 485.967 34.4012 486.411C34.4072 486.723 34.7842 486.732 35.5229 486.435C36.2615 486.139 37.3035 485.562 38.6487 484.705C37.796 485.012 37.3573 484.943 37.3513 484.499C37.338 484.158 37.5501 483.701 37.9782 483.128C38.4063 482.554 39.0095 481.908 39.7879 481.19C40.5662 480.472 41.4801 479.706 42.5388 478.895C43.5969 478.093 44.7409 477.278 45.9882 476.47L45.9976 476.471ZM49.4765 476.796C49.4746 476.692 49.3739 476.647 49.1834 476.671C48.9929 476.695 48.742 476.771 48.4307 476.9C48.1194 477.029 47.7577 477.201 47.3451 477.427C46.9325 477.652 46.4991 477.904 46.0536 478.193C45.182 478.763 44.444 479.314 43.8374 479.875C43.2315 480.427 42.9295 480.82 42.9423 481.038C42.9456 481.256 43.2575 481.25 43.8788 481.011C44.4906 480.772 45.2367 480.372 46.1076 479.811C46.5531 479.522 46.9805 479.222 47.3992 478.913C47.8084 478.602 48.1694 478.307 48.4814 478.037C48.7934 477.766 49.0377 477.52 49.2235 477.297C49.4094 477.074 49.4967 476.91 49.4947 476.807L49.4765 476.796Z" fill="black"/>
<path d="M65.9386 401.303C75.574 418.872 72.5424 439.055 59.1695 446.385C45.7965 453.716 27.1424 445.422 17.5164 427.854C7.8811 410.285 10.9127 390.102 24.2863 382.763C37.6592 375.432 56.304 383.725 65.9393 401.294L65.9386 401.303Z" fill="white"/>
<path d="M30.4508 414.526C29.3906 412.59 28.6732 410.613 28.2993 408.585C27.9246 406.566 27.9109 404.649 28.2481 402.842C28.5852 401.035 29.2409 399.392 30.2153 397.913C31.1897 396.435 32.4827 395.253 34.1036 394.369C35.9118 393.375 37.7654 392.932 39.6458 393.038C41.5262 393.145 43.4071 393.77 45.2887 394.915C47.1702 396.06 49.0348 397.704 50.8638 399.846C52.7022 401.988 54.4694 404.597 56.164 407.692C57.9593 410.964 59.2957 414.053 60.1551 416.946C61.024 419.84 61.4206 422.474 61.3638 424.849C61.3063 427.233 60.7893 429.311 59.8202 431.111C58.8518 432.901 57.4099 434.317 55.5132 435.362C51.8284 437.382 47.649 437.347 42.9649 435.265L43.6939 426.01C46.3288 427.18 48.6385 427.223 50.6137 426.137C51.9992 425.377 52.7991 424.226 53.004 422.683C53.2089 421.14 52.7893 419.354 51.7466 417.307C51.3678 419.168 50.1774 420.631 48.2016 421.726C46.6692 422.56 45.0791 423.012 43.4329 423.064C41.7859 423.126 40.1645 422.83 38.5787 422.169C36.9829 421.517 35.4851 420.55 34.0859 419.261C32.6774 417.97 31.4682 416.402 30.4502 414.535L30.4508 414.526ZM38.9622 403.241C38.4805 403.509 38.094 403.896 37.8114 404.414C37.5289 404.932 37.3457 405.514 37.2805 406.16C37.2059 406.806 37.242 407.489 37.3793 408.206C37.516 408.934 37.7688 409.622 38.1356 410.3C38.8539 411.607 39.8083 412.515 41.0171 413.036C42.2259 413.557 43.3214 413.55 44.3137 413.008C45.306 412.465 45.9099 411.546 46.1168 410.239C46.323 408.941 46.0764 407.64 45.3582 406.333C44.9907 405.665 44.542 405.076 44.0027 404.565C43.4628 404.064 42.9061 403.665 42.3319 403.379C41.7483 403.091 41.1653 402.927 40.573 402.894C39.9813 402.852 39.4446 402.964 38.9629 403.232L38.9622 403.241Z" fill="black"/>
</g>
<path style="mix-blend-mode:screen" d="M-31.9784 445.662C-38.3297 430.877 -36.8617 416.048 -28.7094 412.544C-20.5572 409.041 -8.79957 418.2 -2.44818 432.985C3.90321 447.769 2.43512 462.598 -5.71712 466.102C-13.8694 469.606 -25.627 460.447 -31.9784 445.662Z" fill="url(#paint36_radial_1838_1559)"/>
<path style="mix-blend-mode:screen" d="M-5.69197 403.29C-22.4274 414.996 -40.6772 417.795 -46.449 409.546C-52.2294 401.288 -43.3394 385.112 -26.6033 373.397C-9.86782 361.691 8.37326 358.882 14.1537 367.14C19.9342 375.399 11.0441 391.575 -5.69197 403.29Z" fill="url(#paint37_radial_1838_1559)"/>
<path style="mix-blend-mode:screen" d="M34.7612 436.842C29.3253 420.084 31.6241 404.332 39.8875 401.649C48.1503 398.974 59.256 410.38 64.6826 427.138C70.1186 443.896 67.8198 459.648 59.5563 462.331C51.2929 465.015 40.1878 453.6 34.7612 436.842Z" fill="url(#paint38_radial_1838_1559)"/>
</g>
<g filter="url(#filter8_d_1838_1559)">
<path style="mix-blend-mode:multiply" d="M210.152 345.852C199.426 349.785 193.919 361.669 197.852 372.394C201.785 383.12 213.668 388.627 224.394 384.695C235.12 380.762 240.627 368.878 236.694 358.152C232.761 347.426 220.878 341.92 210.152 345.852Z" fill="url(#paint39_linear_1838_1559)"/>
<path style="mix-blend-mode:screen" d="M210.152 345.852C199.426 349.785 193.919 361.669 197.852 372.394C201.785 383.12 213.668 388.627 224.394 384.695C235.12 380.762 240.627 368.878 236.694 358.152C232.761 347.426 220.878 341.92 210.152 345.852Z" fill="url(#paint40_radial_1838_1559)"/>
<mask id="mask8_1838_1559" style="mask-type:luminance" maskUnits="userSpaceOnUse" x="196" y="344" width="42" height="42">
<path d="M210.152 345.852C199.426 349.785 193.919 361.668 197.852 372.394C201.785 383.12 213.668 388.627 224.394 384.694C235.12 380.761 240.627 368.878 236.694 358.152C232.762 347.426 220.878 341.919 210.152 345.852Z" fill="white"/>
</mask>
<g mask="url(#mask8_1838_1559)">
<path d="M224.328 375.361C225.958 379.355 230.335 379.319 234.101 375.282C237.867 371.246 239.598 364.731 237.965 360.739C236.335 356.745 231.958 356.781 228.192 360.818C224.426 364.854 222.695 371.369 224.328 375.361Z" fill="white"/>
<path d="M233.678 372.908C233.262 373.353 232.839 373.688 232.4 373.913C231.964 374.136 231.55 374.239 231.157 374.222C230.766 374.204 230.408 374.073 230.083 373.831C229.761 373.587 229.499 373.225 229.304 372.742C229.083 372.201 228.981 371.619 228.995 371C229.011 370.379 229.14 369.733 229.382 369.06C229.623 368.387 229.973 367.697 230.429 366.986C230.887 366.278 231.446 365.568 232.106 364.858C232.809 364.106 233.471 363.515 234.093 363.086C234.715 362.657 235.284 362.39 235.799 362.288C236.315 362.186 236.766 362.248 237.158 362.473C237.547 362.7 237.86 363.094 238.091 363.664C238.541 364.764 238.547 366.131 238.114 367.767L236.11 367.999C236.354 367.079 236.353 366.325 236.113 365.731C235.943 365.316 235.692 365.114 235.358 365.125C235.025 365.137 234.638 365.363 234.203 365.81C234.606 365.842 234.928 366.152 235.171 366.744C235.358 367.2 235.46 367.698 235.475 368.232C235.493 368.768 235.434 369.312 235.3 369.864C235.164 370.418 234.959 370.957 234.686 371.48C234.414 372.004 234.078 372.482 233.678 372.908ZM231.21 370.7C231.269 370.844 231.356 370.951 231.467 371.017C231.581 371.086 231.707 371.114 231.847 371.104C231.987 371.094 232.135 371.048 232.29 370.965C232.446 370.883 232.594 370.766 232.74 370.61C233.017 370.31 233.213 369.95 233.323 369.528C233.433 369.106 233.427 368.747 233.307 368.452C233.186 368.157 232.985 368.008 232.704 368.004C232.422 368.001 232.141 368.15 231.862 368.451C231.718 368.605 231.594 368.783 231.485 368.984C231.377 369.184 231.294 369.385 231.233 369.592C231.174 369.796 231.141 369.997 231.134 370.19C231.129 370.385 231.153 370.554 231.212 370.698L231.21 370.7Z" fill="black"/>
<path d="M204.153 382.903C203.39 383.774 207.106 385.249 212.453 386.194C217.801 387.139 222.751 387.2 223.511 386.327C224.274 385.456 220.559 383.981 215.211 383.036C209.868 382.092 204.914 382.03 204.153 382.903Z" fill="white"/>
<path d="M211.805 385.448C211.216 385.345 210.678 385.226 210.188 385.097C209.699 384.967 209.295 384.836 208.975 384.702C208.653 384.57 208.421 384.437 208.278 384.309C208.134 384.181 208.11 384.062 208.202 383.96C208.305 383.843 208.53 383.759 208.875 383.716C209.221 383.672 209.677 383.663 210.242 383.69C210.806 383.717 211.47 383.78 212.237 383.877C213.003 383.973 213.856 384.105 214.794 384.271C215.792 384.447 216.669 384.623 217.422 384.798C218.179 384.974 218.8 385.143 219.291 385.309C219.782 385.476 220.131 385.632 220.338 385.784C220.548 385.934 220.596 386.071 220.489 386.196C220.28 386.436 219.551 386.549 218.309 386.534L216.49 385.876C217.191 385.885 217.595 385.824 217.707 385.695C217.786 385.605 217.682 385.502 217.394 385.393C217.107 385.282 216.658 385.168 216.049 385.058C216.373 385.197 216.478 385.332 216.366 385.461C216.278 385.559 216.099 385.634 215.826 385.684C215.556 385.733 215.213 385.757 214.802 385.757C214.392 385.757 213.93 385.729 213.418 385.678C212.906 385.628 212.367 385.552 211.801 385.452L211.805 385.448ZM210.903 384.437C210.876 384.47 210.891 384.505 210.952 384.548C211.013 384.591 211.104 384.635 211.227 384.683C211.35 384.73 211.499 384.774 211.676 384.822C211.85 384.867 212.042 384.908 212.245 384.943C212.643 385.014 213 385.05 213.318 385.053C213.637 385.056 213.823 385.024 213.881 384.962C213.937 384.897 213.847 384.819 213.61 384.724C213.373 384.63 213.055 384.547 212.66 384.475C212.457 384.439 212.256 384.411 212.057 384.388C211.86 384.368 211.68 384.357 211.518 384.354C211.357 384.35 211.224 384.354 211.114 384.369C211.003 384.384 210.936 384.406 210.907 384.437L210.903 384.437Z" fill="black"/>
<path d="M213.359 343.812C212.724 344.539 215.819 345.766 220.271 346.551C224.726 347.339 228.848 347.39 229.483 346.663C230.118 345.935 227.024 344.709 222.571 343.924C218.119 343.134 213.994 343.085 213.359 343.812Z" fill="white"/>
<path d="M219.876 345.296C219.385 345.209 218.937 345.111 218.53 345.004C218.123 344.897 217.785 344.788 217.518 344.675C217.249 344.564 217.058 344.456 216.939 344.346C216.82 344.241 216.798 344.141 216.874 344.054C216.962 343.956 217.147 343.887 217.437 343.851C217.726 343.814 218.105 343.806 218.575 343.83C219.045 343.853 219.6 343.906 220.238 343.985C220.876 344.064 221.585 344.176 222.37 344.314C223.201 344.462 223.928 344.607 224.56 344.755C225.189 344.9 225.708 345.044 226.114 345.181C226.519 345.319 226.811 345.45 226.987 345.576C227.161 345.701 227.202 345.816 227.115 345.919C226.94 346.119 226.334 346.213 225.3 346.199L223.787 345.651C224.37 345.657 224.707 345.61 224.801 345.501C224.868 345.426 224.781 345.341 224.542 345.249C224.302 345.156 223.929 345.063 223.423 344.969C223.692 345.085 223.78 345.197 223.684 345.304C223.612 345.387 223.461 345.448 223.234 345.489C223.007 345.531 222.722 345.55 222.38 345.549C222.039 345.547 221.655 345.526 221.226 345.485C220.8 345.442 220.35 345.382 219.878 345.298L219.876 345.296ZM219.126 344.454C219.104 344.479 219.118 344.512 219.168 344.548C219.218 344.584 219.294 344.621 219.396 344.659C219.498 344.698 219.621 344.736 219.768 344.774C219.915 344.812 220.073 344.847 220.242 344.877C220.573 344.934 220.869 344.967 221.135 344.968C221.4 344.971 221.557 344.945 221.602 344.89C221.649 344.838 221.574 344.771 221.375 344.691C221.178 344.612 220.914 344.543 220.585 344.483C220.416 344.454 220.249 344.43 220.082 344.411C219.917 344.395 219.767 344.385 219.634 344.38C219.501 344.375 219.389 344.38 219.296 344.391C219.203 344.403 219.147 344.422 219.124 344.447L219.126 344.454Z" fill="black"/>
<path d="M198.628 358.654C200.219 352.386 205.376 348.288 210.146 349.5C214.917 350.713 217.496 356.775 215.902 363.041C214.311 369.309 209.154 373.407 204.382 372.197C199.611 370.985 197.034 364.924 198.626 358.656L198.628 358.654Z" fill="white"/>
<path d="M209.916 363.341C209.74 364.032 209.474 364.656 209.116 365.217C208.761 365.776 208.342 366.232 207.865 366.585C207.387 366.937 206.871 367.181 206.316 367.315C205.76 367.45 205.195 367.444 204.618 367.296C203.972 367.133 203.437 366.83 203.016 366.391C202.596 365.952 202.29 365.39 202.097 364.706C201.905 364.022 201.827 363.223 201.866 362.315C201.903 361.405 202.06 360.4 202.341 359.296C202.638 358.129 203.002 357.106 203.435 356.234C203.867 355.359 204.353 354.65 204.889 354.102C205.427 353.552 206.007 353.175 206.631 352.963C207.254 352.754 207.906 352.737 208.584 352.907C209.898 353.241 210.877 354.169 211.525 355.691L209.316 357.716C208.952 356.86 208.416 356.342 207.71 356.163C207.216 356.038 206.774 356.134 206.386 356.453C205.998 356.772 205.704 357.286 205.5 357.999C205.999 357.643 206.602 357.559 207.309 357.736C207.855 357.876 208.33 358.119 208.73 358.469C209.132 358.817 209.45 359.243 209.679 359.748C209.912 360.254 210.053 360.811 210.099 361.424C210.148 362.038 210.088 362.675 209.918 363.339L209.916 363.341ZM205.423 364.133C205.596 364.175 205.772 364.169 205.953 364.109C206.133 364.049 206.305 363.952 206.462 363.813C206.622 363.677 206.764 363.508 206.889 363.309C207.017 363.107 207.109 362.889 207.171 362.648C207.289 362.181 207.264 361.757 207.093 361.368C206.922 360.979 206.662 360.74 206.309 360.649C205.955 360.559 205.61 360.643 205.274 360.906C204.94 361.167 204.711 361.529 204.593 361.995C204.533 362.234 204.509 362.472 204.524 362.711C204.541 362.948 204.585 363.165 204.658 363.359C204.732 363.555 204.834 363.722 204.966 363.86C205.097 364 205.248 364.092 205.421 364.135L205.423 364.133Z" fill="black"/>
</g>
<path style="mix-blend-mode:screen" d="M231.505 369.728C229.751 374.616 226.142 377.794 223.446 376.827C220.75 375.86 219.99 371.111 221.744 366.223C223.498 361.335 227.108 358.157 229.803 359.124C232.499 360.09 233.259 364.84 231.505 369.728Z" fill="url(#paint41_radial_1838_1559)"/>
<path style="mix-blend-mode:screen" d="M215.976 373.947C222.502 374.867 227.427 378.222 226.974 381.439C226.522 384.661 220.863 386.523 214.334 385.606C207.807 384.687 202.883 381.337 203.336 378.115C203.788 374.893 209.446 373.03 215.976 373.947Z" fill="url(#paint42_radial_1838_1559)"/>
<path style="mix-blend-mode:screen" d="M213.809 357.124C211.404 362.277 207.395 365.49 204.854 364.305C202.315 363.118 202.203 357.981 204.609 352.831C207.014 347.679 211.022 344.466 213.564 345.651C216.105 346.835 216.215 351.974 213.809 357.124Z" fill="url(#paint43_radial_1838_1559)"/>
</g>
<defs>
<filter id="filter0_df_1838_1559" x="218.3" y="68.2996" width="44.4915" height="45.3356" filterUnits="userSpaceOnUse" color-interpolation-filters="sRGB">
<feFlood flood-opacity="0" result="BackgroundImageFix"/>
<feColorMatrix in="SourceAlpha" type="matrix" values="0 0 0 0 0 0 0 0 0 0 0 0 0 0 0 0 0 0 127 0" result="hardAlpha"/>
<feOffset dy="4"/>
<feGaussianBlur stdDeviation="2"/>
<feComposite in2="hardAlpha" operator="out"/>
<feColorMatrix type="matrix" values="0 0 0 0 0 0 0 0 0 0 0 0 0 0 0 0 0 0 0.25 0"/>
<feBlend mode="normal" in2="BackgroundImageFix" result="effect1_dropShadow_1838_1559"/>
<feBlend mode="normal" in="SourceGraphic" in2="effect1_dropShadow_1838_1559" result="shape"/>
<feGaussianBlur stdDeviation="0.5" result="effect2_foregroundBlur_1838_1559"/>
</filter>
<filter id="filter1_df_1838_1559" x="93.6038" y="15.6037" width="47.3534" height="48.3534" filterUnits="userSpaceOnUse" color-interpolation-filters="sRGB">
<feFlood flood-opacity="0" result="BackgroundImageFix"/>
<feColorMatrix in="SourceAlpha" type="matrix" values="0 0 0 0 0 0 0 0 0 0 0 0 0 0 0 0 0 0 127 0" result="hardAlpha"/>
<feOffset dy="4"/>
<feGaussianBlur stdDeviation="2"/>
<feComposite in2="hardAlpha" operator="out"/>
<feColorMatrix type="matrix" values="0 0 0 0 0 0 0 0 0 0 0 0 0 0 0 0 0 0 0.25 0"/>
<feBlend mode="normal" in2="BackgroundImageFix" result="effect1_dropShadow_1838_1559"/>
<feBlend mode="normal" in="SourceGraphic" in2="effect1_dropShadow_1838_1559" result="shape"/>
<feGaussianBlur stdDeviation="0.5" result="effect2_foregroundBlur_1838_1559"/>
</filter>
<filter id="filter2_d_1838_1559" x="299" y="0" width="63.7486" height="63.4849" filterUnits="userSpaceOnUse" color-interpolation-filters="sRGB">
<feFlood flood-opacity="0" result="BackgroundImageFix"/>
<feColorMatrix in="SourceAlpha" type="matrix" values="0 0 0 0 0 0 0 0 0 0 0 0 0 0 0 0 0 0 127 0" result="hardAlpha"/>
<feOffset dx="11" dy="11"/>
<feGaussianBlur stdDeviation="7.5"/>
<feComposite in2="hardAlpha" operator="out"/>
<feColorMatrix type="matrix" values="0 0 0 0 0 0 0 0 0 0 0 0 0 0 0 0 0 0 0.33 0"/>
<feBlend mode="normal" in2="BackgroundImageFix" result="effect1_dropShadow_1838_1559"/>
<feBlend mode="normal" in="SourceGraphic" in2="effect1_dropShadow_1838_1559" result="shape"/>
</filter>
<filter id="filter3_d_1838_1559" x="316.349" y="84.9807" width="158.295" height="157.859" filterUnits="userSpaceOnUse" color-interpolation-filters="sRGB">
<feFlood flood-opacity="0" result="BackgroundImageFix"/>
<feColorMatrix in="SourceAlpha" type="matrix" values="0 0 0 0 0 0 0 0 0 0 0 0 0 0 0 0 0 0 127 0" result="hardAlpha"/>
<feOffset dx="23.6774" dy="20.8918"/>
<feGaussianBlur stdDeviation="13.9279"/>
<feComposite in2="hardAlpha" operator="out"/>
<feColorMatrix type="matrix" values="0 0 0 0 0 0 0 0 0 0 0 0 0 0 0 0 0 0 0.33 0"/>
<feBlend mode="normal" in2="BackgroundImageFix" result="effect1_dropShadow_1838_1559"/>
<feBlend mode="normal" in="SourceGraphic" in2="effect1_dropShadow_1838_1559" result="shape"/>
</filter>
<filter id="filter4_d_1838_1559" x="21.3996" y="266.293" width="83.1623" height="83.1094" filterUnits="userSpaceOnUse" color-interpolation-filters="sRGB">
<feFlood flood-opacity="0" result="BackgroundImageFix"/>
<feColorMatrix in="SourceAlpha" type="matrix" values="0 0 0 0 0 0 0 0 0 0 0 0 0 0 0 0 0 0 127 0" result="hardAlpha"/>
<feOffset dx="14.5403" dy="14.5403"/>
<feGaussianBlur stdDeviation="9.91387"/>
<feComposite in2="hardAlpha" operator="out"/>
<feColorMatrix type="matrix" values="0 0 0 0 0 0 0 0 0 0 0 0 0 0 0 0 0 0 0.33 0"/>
<feBlend mode="normal" in2="BackgroundImageFix" result="effect1_dropShadow_1838_1559"/>
<feBlend mode="normal" in="SourceGraphic" in2="effect1_dropShadow_1838_1559" result="shape"/>
</filter>
<filter id="filter5_d_1838_1559" x="-24.4296" y="89.5704" width="114.084" height="113.932" filterUnits="userSpaceOnUse" color-interpolation-filters="sRGB">
<feFlood flood-opacity="0" result="BackgroundImageFix"/>
<feColorMatrix in="SourceAlpha" type="matrix" values="0 0 0 0 0 0 0 0 0 0 0 0 0 0 0 0 0 0 127 0" result="hardAlpha"/>
<feOffset dx="17" dy="15"/>
<feGaussianBlur stdDeviation="10"/>
<feComposite in2="hardAlpha" operator="out"/>
<feColorMatrix type="matrix" values="0 0 0 0 0 0 0 0 0 0 0 0 0 0 0 0 0 0 0.33 0"/>
<feBlend mode="normal" in2="BackgroundImageFix" result="effect1_dropShadow_1838_1559"/>
<feBlend mode="normal" in="SourceGraphic" in2="effect1_dropShadow_1838_1559" result="shape"/>
</filter>
<filter id="filter6_d_1838_1559" x="298.971" y="355.971" width="63.4207" height="63.4207" filterUnits="userSpaceOnUse" color-interpolation-filters="sRGB">
<feFlood flood-opacity="0" result="BackgroundImageFix"/>
<feColorMatrix in="SourceAlpha" type="matrix" values="0 0 0 0 0 0 0 0 0 0 0 0 0 0 0 0 0 0 127 0" result="hardAlpha"/>
<feOffset dx="11" dy="11"/>
<feGaussianBlur stdDeviation="6.25"/>
<feComposite in2="hardAlpha" operator="out"/>
<feColorMatrix type="matrix" values="0 0 0 0 0 0 0 0 0 0 0 0 0 0 0 0 0 0 0.33 0"/>
<feBlend mode="normal" in2="BackgroundImageFix" result="effect1_dropShadow_1838_1559"/>
<feBlend mode="normal" in="SourceGraphic" in2="effect1_dropShadow_1838_1559" result="shape"/>
</filter>
<filter id="filter7_d_1838_1559" x="-57.4159" y="356.584" width="168.215" height="168.215" filterUnits="userSpaceOnUse" color-interpolation-filters="sRGB">
<feFlood flood-opacity="0" result="BackgroundImageFix"/>
<feColorMatrix in="SourceAlpha" type="matrix" values="0 0 0 0 0 0 0 0 0 0 0 0 0 0 0 0 0 0 127 0" result="hardAlpha"/>
<feOffset dx="17" dy="15"/>
<feGaussianBlur stdDeviation="10"/>
<feComposite in2="hardAlpha" operator="out"/>
<feColorMatrix type="matrix" values="0 0 0 0 0 0 0 0 0 0 0 0 0 0 0 0 0 0 0.33 0"/>
<feBlend mode="normal" in2="BackgroundImageFix" result="effect1_dropShadow_1838_1559"/>
<feBlend mode="normal" in="SourceGraphic" in2="effect1_dropShadow_1838_1559" result="shape"/>
</filter>
<filter id="filter8_d_1838_1559" x="193.582" y="339.582" width="81.3821" height="81.3823" filterUnits="userSpaceOnUse" color-interpolation-filters="sRGB">
<feFlood flood-opacity="0" result="BackgroundImageFix"/>
<feColorMatrix in="SourceAlpha" type="matrix" values="0 0 0 0 0 0 0 0 0 0 0 0 0 0 0 0 0 0 127 0" result="hardAlpha"/>
<feOffset dx="17" dy="15"/>
<feGaussianBlur stdDeviation="10"/>
<feComposite in2="hardAlpha" operator="out"/>
<feColorMatrix type="matrix" values="0 0 0 0 0 0 0 0 0 0 0 0 0 0 0 0 0 0 0.33 0"/>
<feBlend mode="normal" in2="BackgroundImageFix" result="effect1_dropShadow_1838_1559"/>
<feBlend mode="normal" in="SourceGraphic" in2="effect1_dropShadow_1838_1559" result="shape"/>
</filter>
<linearGradient id="paint0_linear_1838_1559" x1="226.323" y1="75.6949" x2="251.602" y2="96.7295" gradientUnits="userSpaceOnUse">
<stop stop-color="#3D3D3D"/>
<stop offset="1"/>
</linearGradient>
<radialGradient id="paint1_radial_1838_1559" cx="0" cy="0" r="1" gradientUnits="userSpaceOnUse" gradientTransform="translate(240.461 87.4581) rotate(1.28) scale(18.1549)">
<stop offset="0.6"/>
<stop offset="0.71" stop-color="#020101"/>
<stop offset="0.77" stop-color="#090808"/>
<stop offset="1" stop-color="#413B3B"/>
</radialGradient>
<radialGradient id="paint2_radial_1838_1559" cx="0" cy="0" r="1" gradientUnits="userSpaceOnUse" gradientTransform="translate(227.865 93.1057) rotate(178.164) scale(4.85554 7.89469)">
<stop stop-color="#FBEFDB"/>
<stop offset="0.07" stop-color="#F2DCA3"/>
<stop offset="0.12" stop-color="#EDCF7B"/>
<stop offset="0.13" stop-color="#E3C676"/>
<stop offset="0.17" stop-color="#B49D5D"/>
<stop offset="0.22" stop-color="#897747"/>
<stop offset="0.27" stop-color="#645733"/>
<stop offset="0.33" stop-color="#443C23"/>
<stop offset="0.39" stop-color="#2B2616"/>
<stop offset="0.45" stop-color="#18150C"/>
<stop offset="0.53" stop-color="#0A0905"/>
<stop offset="0.63" stop-color="#020201"/>
<stop offset="0.8"/>
</radialGradient>
<radialGradient id="paint3_radial_1838_1559" cx="0" cy="0" r="1" gradientUnits="userSpaceOnUse" gradientTransform="translate(234.849 74.7144) rotate(65.92) scale(5.13434 10.4782)">
<stop offset="0.13" stop-color="#FEFEFE"/>
<stop offset="0.18" stop-color="#F5DFA5"/>
<stop offset="0.21" stop-color="#F1D17D"/>
<stop offset="0.22" stop-color="#E3C576"/>
<stop offset="0.26" stop-color="#B49C5D"/>
<stop offset="0.3" stop-color="#897747"/>
<stop offset="0.35" stop-color="#645633"/>
<stop offset="0.39" stop-color="#443B23"/>
<stop offset="0.45" stop-color="#2B2516"/>
<stop offset="0.5" stop-color="#18140C"/>
<stop offset="0.57" stop-color="#0A0905"/>
<stop offset="0.65" stop-color="#020201"/>
<stop offset="0.8"/>
</radialGradient>
<radialGradient id="paint4_radial_1838_1559" cx="0" cy="0" r="1" gradientUnits="userSpaceOnUse" gradientTransform="translate(252.802 86.2619) rotate(172.95) scale(4.42751 9.03573)">
<stop stop-color="#FBEFDB"/>
<stop offset="0.07" stop-color="#F2DCA3"/>
<stop offset="0.12" stop-color="#EDCF7B"/>
<stop offset="0.13" stop-color="#E3C676"/>
<stop offset="0.17" stop-color="#B49D5D"/>
<stop offset="0.22" stop-color="#897747"/>
<stop offset="0.27" stop-color="#645733"/>
<stop offset="0.33" stop-color="#443C23"/>
<stop offset="0.39" stop-color="#2B2616"/>
<stop offset="0.45" stop-color="#18150C"/>
<stop offset="0.53" stop-color="#0A0905"/>
<stop offset="0.63" stop-color="#020201"/>
<stop offset="0.8"/>
</radialGradient>
<linearGradient id="paint5_linear_1838_1559" x1="115.675" y1="16.4182" x2="118.549" y2="51.9351" gradientUnits="userSpaceOnUse">
<stop stop-color="#3D3D3D"/>
<stop offset="1"/>
</linearGradient>
<radialGradient id="paint6_radial_1838_1559" cx="0" cy="0" r="1" gradientUnits="userSpaceOnUse" gradientTransform="translate(117.283 36.281) rotate(46.89) scale(19.6714)">
<stop offset="0.6"/>
<stop offset="0.71" stop-color="#020101"/>
<stop offset="0.77" stop-color="#090808"/>
<stop offset="1" stop-color="#413B3B"/>
</radialGradient>
<radialGradient id="paint7_radial_1838_1559" cx="0" cy="0" r="1" gradientUnits="userSpaceOnUse" gradientTransform="translate(105.779 44.5934) rotate(-35.43) scale(4.99298 9.07815)">
<stop offset="0.03" stop-color="#D4E1FA"/>
<stop offset="0.1" stop-color="#898BD1"/>
<stop offset="0.14" stop-color="#6663BF"/>
<stop offset="0.15" stop-color="#5F5CB2"/>
<stop offset="0.18" stop-color="#494789"/>
<stop offset="0.21" stop-color="#353364"/>
<stop offset="0.25" stop-color="#242344"/>
<stop offset="0.29" stop-color="#17162B"/>
<stop offset="0.33" stop-color="#0C0C18"/>
<stop offset="0.38" stop-color="#05050A"/>
<stop offset="0.44" stop-color="#010102"/>
<stop offset="0.55"/>
</radialGradient>
<radialGradient id="paint8_radial_1838_1559" cx="0" cy="0" r="1" gradientUnits="userSpaceOnUse" gradientTransform="translate(107.372 23.9379) rotate(50.92) scale(5.64568 11.5218)">
<stop offset="0.13" stop-color="#F6F5F1"/>
<stop offset="0.19" stop-color="#CEBC8B"/>
<stop offset="0.21" stop-color="#BFA663"/>
<stop offset="0.22" stop-color="#B29B5C"/>
<stop offset="0.27" stop-color="#897747"/>
<stop offset="0.31" stop-color="#645733"/>
<stop offset="0.37" stop-color="#443B23"/>
<stop offset="0.42" stop-color="#2B2516"/>
<stop offset="0.48" stop-color="#18140C"/>
<stop offset="0.55" stop-color="#0A0905"/>
<stop offset="0.64" stop-color="#020201"/>
<stop offset="0.8"/>
</radialGradient>
<radialGradient id="paint9_radial_1838_1559" cx="0" cy="0" r="1" gradientUnits="userSpaceOnUse" gradientTransform="translate(128.708 30.832) rotate(157.95) scale(4.86738 9.93343)">
<stop stop-color="#EBE0CD"/>
<stop offset="0.07" stop-color="#C2B082"/>
<stop offset="0.12" stop-color="#AD975A"/>
<stop offset="0.17" stop-color="#887646"/>
<stop offset="0.22" stop-color="#645734"/>
<stop offset="0.28" stop-color="#443C23"/>
<stop offset="0.35" stop-color="#2B2616"/>
<stop offset="0.42" stop-color="#18150C"/>
<stop offset="0.51" stop-color="#0A0905"/>
<stop offset="0.61" stop-color="#020201"/>
<stop offset="0.8"/>
</radialGradient>
<linearGradient id="paint10_linear_1838_1559" x1="324.347" y1="4.41582" x2="316.143" y2="33.614" gradientUnits="userSpaceOnUse">
<stop stop-color="#3D3D3D"/>
<stop offset="1"/>
</linearGradient>
<radialGradient id="paint11_radial_1838_1559" cx="0" cy="0" r="1" gradientUnits="userSpaceOnUse" gradientTransform="translate(319.754 20.7436) rotate(67.2077) scale(16.744 16.751)">
<stop offset="0.6"/>
<stop offset="0.71" stop-color="#020101"/>
<stop offset="0.77" stop-color="#090808"/>
<stop offset="1" stop-color="#413B3B"/>
</radialGradient>
<radialGradient id="paint12_radial_1838_1559" cx="0" cy="0" r="1" gradientUnits="userSpaceOnUse" gradientTransform="translate(310.366 29.2557) rotate(-35.42) scale(4.2146 7.66292)">
<stop offset="0.03" stop-color="#D4E1FA"/>
<stop offset="0.1" stop-color="#898BD1"/>
<stop offset="0.14" stop-color="#6663BF"/>
<stop offset="0.15" stop-color="#5F5CB2"/>
<stop offset="0.18" stop-color="#494789"/>
<stop offset="0.21" stop-color="#353364"/>
<stop offset="0.25" stop-color="#242344"/>
<stop offset="0.29" stop-color="#17162B"/>
<stop offset="0.33" stop-color="#0C0C18"/>
<stop offset="0.38" stop-color="#05050A"/>
<stop offset="0.44" stop-color="#010102"/>
<stop offset="0.55"/>
</radialGradient>
<radialGradient id="paint13_radial_1838_1559" cx="0" cy="0" r="1" gradientUnits="userSpaceOnUse" gradientTransform="translate(316.961 15.5278) rotate(50.91) scale(4.76518 6.80739)">
<stop offset="0.13" stop-color="#F6F5F1"/>
<stop offset="0.19" stop-color="#CEBC8B"/>
<stop offset="0.21" stop-color="#BFA663"/>
<stop offset="0.22" stop-color="#B29B5C"/>
<stop offset="0.27" stop-color="#897747"/>
<stop offset="0.31" stop-color="#645733"/>
<stop offset="0.37" stop-color="#443B23"/>
<stop offset="0.42" stop-color="#2B2516"/>
<stop offset="0.48" stop-color="#18140C"/>
<stop offset="0.55" stop-color="#0A0905"/>
<stop offset="0.64" stop-color="#020201"/>
<stop offset="0.8"/>
</radialGradient>
<radialGradient id="paint14_radial_1838_1559" cx="0" cy="0" r="1" gradientUnits="userSpaceOnUse" gradientTransform="translate(329.411 17.755) rotate(157.96) scale(4.10932 8.38636)">
<stop stop-color="#EBE0CD"/>
<stop offset="0.07" stop-color="#C2B082"/>
<stop offset="0.12" stop-color="#AD975A"/>
<stop offset="0.17" stop-color="#887646"/>
<stop offset="0.22" stop-color="#645734"/>
<stop offset="0.28" stop-color="#443C23"/>
<stop offset="0.35" stop-color="#2B2616"/>
<stop offset="0.42" stop-color="#18150C"/>
<stop offset="0.51" stop-color="#0A0905"/>
<stop offset="0.61" stop-color="#020201"/>
<stop offset="0.8"/>
</radialGradient>
<linearGradient id="paint15_linear_1838_1559" x1="331.838" y1="109.923" x2="402.903" y2="169.055" gradientUnits="userSpaceOnUse">
<stop stop-color="#3D3D3D"/>
<stop offset="1"/>
</linearGradient>
<radialGradient id="paint16_radial_1838_1559" cx="0" cy="0" r="1" gradientUnits="userSpaceOnUse" gradientTransform="translate(371.582 142.992) rotate(1.28) scale(51.0371)">
<stop offset="0.6"/>
<stop offset="0.71" stop-color="#020101"/>
<stop offset="0.77" stop-color="#090808"/>
<stop offset="1" stop-color="#413B3B"/>
</radialGradient>
<radialGradient id="paint17_radial_1838_1559" cx="0" cy="0" r="1" gradientUnits="userSpaceOnUse" gradientTransform="translate(336.174 158.868) rotate(178.164) scale(13.6499 22.1935)">
<stop stop-color="#FBEFDB"/>
<stop offset="0.07" stop-color="#F2DCA3"/>
<stop offset="0.12" stop-color="#EDCF7B"/>
<stop offset="0.13" stop-color="#E3C676"/>
<stop offset="0.17" stop-color="#B49D5D"/>
<stop offset="0.22" stop-color="#897747"/>
<stop offset="0.27" stop-color="#645733"/>
<stop offset="0.33" stop-color="#443C23"/>
<stop offset="0.39" stop-color="#2B2616"/>
<stop offset="0.45" stop-color="#18150C"/>
<stop offset="0.53" stop-color="#0A0905"/>
<stop offset="0.63" stop-color="#020201"/>
<stop offset="0.8"/>
</radialGradient>
<radialGradient id="paint18_radial_1838_1559" cx="0" cy="0" r="1" gradientUnits="userSpaceOnUse" gradientTransform="translate(355.805 107.166) rotate(65.92) scale(14.4336 29.4564)">
<stop offset="0.13" stop-color="#FEFEFE"/>
<stop offset="0.18" stop-color="#F5DFA5"/>
<stop offset="0.21" stop-color="#F1D17D"/>
<stop offset="0.22" stop-color="#E3C576"/>
<stop offset="0.26" stop-color="#B49C5D"/>
<stop offset="0.3" stop-color="#897747"/>
<stop offset="0.35" stop-color="#645633"/>
<stop offset="0.39" stop-color="#443B23"/>
<stop offset="0.45" stop-color="#2B2516"/>
<stop offset="0.5" stop-color="#18140C"/>
<stop offset="0.57" stop-color="#0A0905"/>
<stop offset="0.65" stop-color="#020201"/>
<stop offset="0.8"/>
</radialGradient>
<linearGradient id="paint19_linear_1838_1559" x1="43.788" y1="271.891" x2="51.9676" y2="310.282" gradientUnits="userSpaceOnUse">
<stop stop-color="#3D3D3D"/>
<stop offset="1"/>
</linearGradient>
<radialGradient id="paint20_radial_1838_1559" cx="0" cy="0" r="1" gradientUnits="userSpaceOnUse" gradientTransform="translate(48.363 293.361) rotate(39.4887) scale(21.6693)">
<stop offset="0.6"/>
<stop offset="0.71" stop-color="#020101"/>
<stop offset="0.77" stop-color="#090808"/>
<stop offset="1" stop-color="#413B3B"/>
</radialGradient>
<radialGradient id="paint21_radial_1838_1559" cx="0" cy="0" r="1" gradientUnits="userSpaceOnUse" gradientTransform="translate(34.1525 300.783) rotate(-23.9613) scale(5.49665 9.99392)">
<stop offset="0.03" stop-color="#D4E1FA"/>
<stop offset="0.1" stop-color="#898BD1"/>
<stop offset="0.14" stop-color="#6663BF"/>
<stop offset="0.15" stop-color="#5F5CB2"/>
<stop offset="0.18" stop-color="#494789"/>
<stop offset="0.21" stop-color="#353364"/>
<stop offset="0.25" stop-color="#242344"/>
<stop offset="0.29" stop-color="#17162B"/>
<stop offset="0.33" stop-color="#0C0C18"/>
<stop offset="0.38" stop-color="#05050A"/>
<stop offset="0.44" stop-color="#010102"/>
<stop offset="0.55"/>
</radialGradient>
<radialGradient id="paint22_radial_1838_1559" cx="0" cy="0" r="1" gradientUnits="userSpaceOnUse" gradientTransform="translate(40.6056 278.429) rotate(62.3887) scale(6.21501 12.6837)">
<stop offset="0.13" stop-color="#F6F5F1"/>
<stop offset="0.19" stop-color="#CEBC8B"/>
<stop offset="0.21" stop-color="#BFA663"/>
<stop offset="0.22" stop-color="#B29B5C"/>
<stop offset="0.27" stop-color="#897747"/>
<stop offset="0.31" stop-color="#645733"/>
<stop offset="0.37" stop-color="#443B23"/>
<stop offset="0.42" stop-color="#2B2516"/>
<stop offset="0.48" stop-color="#18140C"/>
<stop offset="0.55" stop-color="#0A0905"/>
<stop offset="0.64" stop-color="#020201"/>
<stop offset="0.8"/>
</radialGradient>
<radialGradient id="paint23_radial_1838_1559" cx="0" cy="0" r="1" gradientUnits="userSpaceOnUse" gradientTransform="translate(62.2716 290.884) rotate(169.429) scale(5.35851 10.9357)">
<stop stop-color="#EBE0CD"/>
<stop offset="0.07" stop-color="#C2B082"/>
<stop offset="0.12" stop-color="#AD975A"/>
<stop offset="0.17" stop-color="#887646"/>
<stop offset="0.22" stop-color="#645734"/>
<stop offset="0.28" stop-color="#443C23"/>
<stop offset="0.35" stop-color="#2B2616"/>
<stop offset="0.42" stop-color="#18150C"/>
<stop offset="0.51" stop-color="#0A0905"/>
<stop offset="0.61" stop-color="#020201"/>
<stop offset="0.8"/>
</radialGradient>
<linearGradient id="paint24_linear_1838_1559" x1="24.0987" y1="95.0827" x2="8.79299" y2="160.27" gradientUnits="userSpaceOnUse">
<stop stop-color="#3D3D3D"/>
<stop offset="1"/>
</linearGradient>
<radialGradient id="paint25_radial_1838_1559" cx="0" cy="0" r="1" gradientUnits="userSpaceOnUse" gradientTransform="translate(15.5398 131.539) rotate(64.73) scale(36.9655)">
<stop offset="0.6"/>
<stop offset="0.71" stop-color="#020101"/>
<stop offset="0.77" stop-color="#090808"/>
<stop offset="1" stop-color="#413B3B"/>
</radialGradient>
<radialGradient id="paint26_radial_1838_1559" cx="0" cy="0" r="1" gradientUnits="userSpaceOnUse" gradientTransform="translate(-8.99597 144.567) rotate(-24.25) scale(9.59719 17.4494)">
<stop offset="0.03" stop-color="#D4E1FA"/>
<stop offset="0.1" stop-color="#898BD1"/>
<stop offset="0.14" stop-color="#6663BF"/>
<stop offset="0.15" stop-color="#5F5CB2"/>
<stop offset="0.18" stop-color="#494789"/>
<stop offset="0.21" stop-color="#353364"/>
<stop offset="0.25" stop-color="#242344"/>
<stop offset="0.29" stop-color="#17162B"/>
<stop offset="0.33" stop-color="#0C0C18"/>
<stop offset="0.38" stop-color="#05050A"/>
<stop offset="0.44" stop-color="#010102"/>
<stop offset="0.55"/>
</radialGradient>
<radialGradient id="paint27_radial_1838_1559" cx="0" cy="0" r="1" gradientUnits="userSpaceOnUse" gradientTransform="translate(-1.21925 109.599) rotate(50.92) scale(9.70023 19.7964)">
<stop offset="0.13" stop-color="#F6F5F1"/>
<stop offset="0.19" stop-color="#CEBC8B"/>
<stop offset="0.21" stop-color="#BFA663"/>
<stop offset="0.22" stop-color="#B29B5C"/>
<stop offset="0.27" stop-color="#897747"/>
<stop offset="0.31" stop-color="#645733"/>
<stop offset="0.37" stop-color="#443B23"/>
<stop offset="0.42" stop-color="#2B2516"/>
<stop offset="0.48" stop-color="#18140C"/>
<stop offset="0.55" stop-color="#0A0905"/>
<stop offset="0.64" stop-color="#020201"/>
<stop offset="0.8"/>
</radialGradient>
<radialGradient id="paint28_radial_1838_1559" cx="0" cy="0" r="1" gradientUnits="userSpaceOnUse" gradientTransform="translate(41.3534 125.911) rotate(164.44) scale(6.94309 14.1696)">
<stop stop-color="#EBE0CD"/>
<stop offset="0.07" stop-color="#C2B082"/>
<stop offset="0.12" stop-color="#AD975A"/>
<stop offset="0.17" stop-color="#887646"/>
<stop offset="0.22" stop-color="#645734"/>
<stop offset="0.28" stop-color="#443C23"/>
<stop offset="0.35" stop-color="#2B2616"/>
<stop offset="0.42" stop-color="#18150C"/>
<stop offset="0.51" stop-color="#0A0905"/>
<stop offset="0.61" stop-color="#020201"/>
<stop offset="0.8"/>
</radialGradient>
<linearGradient id="paint29_linear_1838_1559" x1="318.113" y1="357.29" x2="320.919" y2="391.965" gradientUnits="userSpaceOnUse">
<stop stop-color="#3D3D3D"/>
<stop offset="1"/>
</linearGradient>
<radialGradient id="paint30_radial_1838_1559" cx="0" cy="0" r="1" gradientUnits="userSpaceOnUse" gradientTransform="translate(319.683 376.682) rotate(46.89) scale(19.2051)">
<stop offset="0.6"/>
<stop offset="0.71" stop-color="#020101"/>
<stop offset="0.77" stop-color="#090808"/>
<stop offset="1" stop-color="#413B3B"/>
</radialGradient>
<radialGradient id="paint31_radial_1838_1559" cx="0" cy="0" r="1" gradientUnits="userSpaceOnUse" gradientTransform="translate(308.452 384.798) rotate(-35.43) scale(4.87465 8.863)">
<stop offset="0.03" stop-color="#D4E1FA"/>
<stop offset="0.1" stop-color="#898BD1"/>
<stop offset="0.14" stop-color="#6663BF"/>
<stop offset="0.15" stop-color="#5F5CB2"/>
<stop offset="0.18" stop-color="#494789"/>
<stop offset="0.21" stop-color="#353364"/>
<stop offset="0.25" stop-color="#242344"/>
<stop offset="0.29" stop-color="#17162B"/>
<stop offset="0.33" stop-color="#0C0C18"/>
<stop offset="0.38" stop-color="#05050A"/>
<stop offset="0.44" stop-color="#010102"/>
<stop offset="0.55"/>
</radialGradient>
<radialGradient id="paint32_radial_1838_1559" cx="0" cy="0" r="1" gradientUnits="userSpaceOnUse" gradientTransform="translate(310.007 364.631) rotate(50.92) scale(5.51188 11.2487)">
<stop offset="0.13" stop-color="#F6F5F1"/>
<stop offset="0.19" stop-color="#CEBC8B"/>
<stop offset="0.21" stop-color="#BFA663"/>
<stop offset="0.22" stop-color="#B29B5C"/>
<stop offset="0.27" stop-color="#897747"/>
<stop offset="0.31" stop-color="#645733"/>
<stop offset="0.37" stop-color="#443B23"/>
<stop offset="0.42" stop-color="#2B2516"/>
<stop offset="0.48" stop-color="#18140C"/>
<stop offset="0.55" stop-color="#0A0905"/>
<stop offset="0.64" stop-color="#020201"/>
<stop offset="0.8"/>
</radialGradient>
<radialGradient id="paint33_radial_1838_1559" cx="0" cy="0" r="1" gradientUnits="userSpaceOnUse" gradientTransform="translate(330.838 371.362) rotate(157.95) scale(4.75202 9.698)">
<stop stop-color="#EBE0CD"/>
<stop offset="0.07" stop-color="#C2B082"/>
<stop offset="0.12" stop-color="#AD975A"/>
<stop offset="0.17" stop-color="#887646"/>
<stop offset="0.22" stop-color="#645734"/>
<stop offset="0.28" stop-color="#443C23"/>
<stop offset="0.35" stop-color="#2B2616"/>
<stop offset="0.42" stop-color="#18150C"/>
<stop offset="0.51" stop-color="#0A0905"/>
<stop offset="0.61" stop-color="#020201"/>
<stop offset="0.8"/>
</radialGradient>
<linearGradient id="paint34_linear_1838_1559" x1="-38.1123" y1="381.758" x2="47.3758" y2="460.314" gradientUnits="userSpaceOnUse">
<stop stop-color="#3D3D3D"/>
<stop offset="1"/>
</linearGradient>
<radialGradient id="paint35_radial_1838_1559" cx="0" cy="0" r="1" gradientUnits="userSpaceOnUse" gradientTransform="translate(9.69811 425.689) rotate(4.097) scale(64.0939)">
<stop offset="0.6"/>
<stop offset="0.71" stop-color="#020101"/>
<stop offset="0.77" stop-color="#090808"/>
<stop offset="1" stop-color="#413B3B"/>
</radialGradient>
<radialGradient id="paint36_radial_1838_1559" cx="0" cy="0" r="1" gradientUnits="userSpaceOnUse" gradientTransform="translate(-16.9716 439.232) rotate(156.777) scale(16.0282 29.1422)">
<stop offset="0.03" stop-color="#D4E1FA"/>
<stop offset="0.1" stop-color="#898BD1"/>
<stop offset="0.14" stop-color="#6663BF"/>
<stop offset="0.15" stop-color="#5F5CB2"/>
<stop offset="0.18" stop-color="#494789"/>
<stop offset="0.21" stop-color="#353364"/>
<stop offset="0.25" stop-color="#242344"/>
<stop offset="0.29" stop-color="#17162B"/>
<stop offset="0.33" stop-color="#0C0C18"/>
<stop offset="0.38" stop-color="#05050A"/>
<stop offset="0.44" stop-color="#010102"/>
<stop offset="0.55"/>
</radialGradient>
<radialGradient id="paint37_radial_1838_1559" cx="0" cy="0" r="1" gradientUnits="userSpaceOnUse" gradientTransform="translate(-18.1896 385.392) rotate(55.017) scale(18.123 36.9856)">
<stop offset="0.13" stop-color="#F6F5F1"/>
<stop offset="0.19" stop-color="#CEBC8B"/>
<stop offset="0.21" stop-color="#BFA663"/>
<stop offset="0.22" stop-color="#B29B5C"/>
<stop offset="0.27" stop-color="#897747"/>
<stop offset="0.31" stop-color="#645733"/>
<stop offset="0.37" stop-color="#443B23"/>
<stop offset="0.42" stop-color="#2B2516"/>
<stop offset="0.48" stop-color="#18140C"/>
<stop offset="0.55" stop-color="#0A0905"/>
<stop offset="0.64" stop-color="#020201"/>
<stop offset="0.8"/>
</radialGradient>
<radialGradient id="paint38_radial_1838_1559" cx="0" cy="0" r="1" gradientUnits="userSpaceOnUse" gradientTransform="translate(43.0839 434.204) rotate(162.047) scale(15.6269 31.8916)">
<stop stop-color="#EBE0CD"/>
<stop offset="0.07" stop-color="#C2B082"/>
<stop offset="0.12" stop-color="#AD975A"/>
<stop offset="0.17" stop-color="#887646"/>
<stop offset="0.22" stop-color="#645734"/>
<stop offset="0.28" stop-color="#443C23"/>
<stop offset="0.35" stop-color="#2B2616"/>
<stop offset="0.42" stop-color="#18150C"/>
<stop offset="0.51" stop-color="#0A0905"/>
<stop offset="0.61" stop-color="#020201"/>
<stop offset="0.8"/>
</radialGradient>
<linearGradient id="paint39_linear_1838_1559" x1="218.891" y1="386.165" x2="215.995" y2="348.807" gradientUnits="userSpaceOnUse">
<stop stop-color="#3D3D3D"/>
<stop offset="1"/>
</linearGradient>
<radialGradient id="paint40_radial_1838_1559" cx="0" cy="0" r="1" gradientUnits="userSpaceOnUse" gradientTransform="translate(217.271 365.273) rotate(-132.916) scale(20.6854)">
<stop offset="0.6"/>
<stop offset="0.71" stop-color="#020101"/>
<stop offset="0.77" stop-color="#090808"/>
<stop offset="1" stop-color="#413B3B"/>
</radialGradient>
<radialGradient id="paint41_radial_1838_1559" cx="0" cy="0" r="1" gradientUnits="userSpaceOnUse" gradientTransform="translate(226.547 367.944) rotate(19.7638) scale(5.17288 9.40523)">
<stop offset="0.03" stop-color="#D4E1FA"/>
<stop offset="0.1" stop-color="#898BD1"/>
<stop offset="0.14" stop-color="#6663BF"/>
<stop offset="0.15" stop-color="#5F5CB2"/>
<stop offset="0.18" stop-color="#494789"/>
<stop offset="0.21" stop-color="#353364"/>
<stop offset="0.25" stop-color="#242344"/>
<stop offset="0.29" stop-color="#17162B"/>
<stop offset="0.33" stop-color="#0C0C18"/>
<stop offset="0.38" stop-color="#05050A"/>
<stop offset="0.44" stop-color="#010102"/>
<stop offset="0.55"/>
</radialGradient>
<radialGradient id="paint42_radial_1838_1559" cx="0" cy="0" r="1" gradientUnits="userSpaceOnUse" gradientTransform="translate(214.988 380.923) rotate(-81.9962) scale(5.84893 11.9366)">
<stop offset="0.13" stop-color="#F6F5F1"/>
<stop offset="0.19" stop-color="#CEBC8B"/>
<stop offset="0.21" stop-color="#BFA663"/>
<stop offset="0.22" stop-color="#B29B5C"/>
<stop offset="0.27" stop-color="#897747"/>
<stop offset="0.31" stop-color="#645733"/>
<stop offset="0.37" stop-color="#443B23"/>
<stop offset="0.42" stop-color="#2B2516"/>
<stop offset="0.48" stop-color="#18140C"/>
<stop offset="0.55" stop-color="#0A0905"/>
<stop offset="0.64" stop-color="#020201"/>
<stop offset="0.8"/>
</radialGradient>
<radialGradient id="paint43_radial_1838_1559" cx="0" cy="0" r="1" gradientUnits="userSpaceOnUse" gradientTransform="translate(211.263 355.916) rotate(25.0338) scale(5.04336 10.2926)">
<stop stop-color="#EBE0CD"/>
<stop offset="0.07" stop-color="#C2B082"/>
<stop offset="0.12" stop-color="#AD975A"/>
<stop offset="0.17" stop-color="#887646"/>
<stop offset="0.22" stop-color="#645734"/>
<stop offset="0.28" stop-color="#443C23"/>
<stop offset="0.35" stop-color="#2B2616"/>
<stop offset="0.42" stop-color="#18150C"/>
<stop offset="0.51" stop-color="#0A0905"/>
<stop offset="0.61" stop-color="#020201"/>
<stop offset="0.8"/>
</radialGradient>
</defs>
</svg>
