<svg width="2217" height="4800" viewBox="0 0 2217 4800" fill="none" xmlns="http://www.w3.org/2000/svg">
<g opacity="0.5" filter="url(#filter0_f_1829_1536)">
<path d="M745.539 -705.23L1014.48 2117.74L1283.48 -705.23H745.539Z" fill="white"/>
<path d="M1913.99 -652.697L1014.48 2117.74L2433.49 -564.526L1913.99 -652.697Z" fill="white"/>
<path d="M3020.86 -410.459L1014.48 2117.74L3486.4 -240.18L3020.86 -410.459Z" fill="white"/>
<path d="M3990.36 4.90332L1014.48 2117.73L4370.01 245.595L3990.36 4.90332Z" fill="white"/>
<path d="M4756.09 564.866L1014.48 2117.73L5023.97 859.575L4756.09 564.866Z" fill="white"/>
<path d="M5265.74 1231.14L1014.48 2117.74L5403.37 1559.63L5265.74 1231.14Z" fill="white"/>
<path d="M5484.25 1958.1L1014.48 2117.73L5482.33 2297.91L5484.25 1958.1Z" fill="white"/>
<path d="M5396.81 2696.07L1014.48 2117.73L5255.35 3023.88L5396.81 2696.07Z" fill="white"/>
<path d="M5009.31 3394.39L1014.48 2117.73L4738.08 3687.8L5009.31 3394.39Z" fill="white"/>
<path d="M4348.29 4005.28L1014.48 2117.73L3965.86 4244.24L4348.29 4005.28Z" fill="white"/>
<path d="M3459.05 4486.97L1014.48 2117.73L2991.6 4655.08L3459.05 4486.97Z" fill="white"/>
<path d="M2402.48 4806.49L1014.48 2117.73L1881.93 4892.19L2402.48 4806.49Z" fill="white"/>
<path d="M1250.87 4941.87L1014.49 2117.73L712.938 4939.4L1250.87 4941.87Z" fill="white"/>
<path d="M83.0315 4883.89L1014.47 2117.73L-435.474 4793.37L83.0315 4883.89Z" fill="white"/>
<path d="M-1020.99 4636.58L1014.48 2117.73L-1484.54 4464.2L-1020.99 4636.58Z" fill="white"/>
<path d="M-1985.67 4216.83L1014.47 2117.73L-2362.59 3974.34L-1985.67 4216.83Z" fill="white"/>
<path d="M-2744.95 3653.33L1014.48 2117.73L-3009.43 3357.39L-2744.95 3653.33Z" fill="white"/>
<path d="M-3246.88 2984.72L1014.47 2117.73L-3380.73 2655.54L-3246.88 2984.72Z" fill="white"/>
<path d="M-3457.02 2256.77L1014.48 2117.74L-3451.14 1916.95L-3457.02 2256.77Z" fill="white"/>
<path d="M-3361.04 1519.22L1014.48 2117.73L-3215.8 1192.03L-3361.04 1519.22Z" fill="white"/>
<path d="M-2965.5 822.702L1014.48 2117.74L-2690.87 530.531L-2965.5 822.702Z" fill="white"/>
<path d="M-2297.43 214.842L1014.48 2117.73L-1912.21 -22.3235L-2297.43 214.842Z" fill="white"/>
<path d="M-1402.68 -262.703L1014.48 2117.74L-933.245 -428.651L-1402.68 -262.703Z" fill="white"/>
<path d="M-342.406 -577.334L1014.47 2117.74L179.07 -660.679L-342.406 -577.334Z" fill="white"/>
</g>
<defs>
<filter id="filter0_f_1829_1536" x="-3460.02" y="-708.23" width="8947.27" height="5653.1" filterUnits="userSpaceOnUse" color-interpolation-filters="sRGB">
<feFlood flood-opacity="0" result="BackgroundImageFix"/>
<feBlend mode="normal" in="SourceGraphic" in2="BackgroundImageFix" result="shape"/>
<feGaussianBlur stdDeviation="1.5" result="effect1_foregroundBlur_1829_1536"/>
</filter>
</defs>
</svg>
