<svg width="144" height="39" viewBox="0 0 144 39" fill="none" xmlns="http://www.w3.org/2000/svg">
<g filter="url(#filter0_d_3681_7434)">
<path d="M10.7274 22.4567L14.7426 23.4011C14.7426 23.6111 15.4111 25.4786 15.4111 27.4933C15.4111 29.5079 22.096 29.9066 24.7699 30.0116H43.4877L46.1617 28.7524L48.1671 30.3263L68.8904 29.6968L70.2274 28.7524L71.5644 29.6968L96.2985 30.0116H100.978C101.424 30.2214 104.187 30.7041 111.674 30.9559C119.161 31.2077 122.815 30.3263 123.038 29.6968C125.267 27.4933 130.525 21.8901 131.06 20.8828C130.525 20.1273 129.055 19.3089 127.049 18.9941C131.862 19.2459 131.506 18.8891 132.397 18.6793C133.734 16.8955 136.809 12.1318 138.414 9.86531C140.419 7.03225 143.093 2.62526 128.386 1.3656C108.599 -0.145369 61.7598 -0.103398 40.8137 0.106459L35.4658 1.3656L29.4494 0.106459H21.4275C1.37273 0.736029 4.71378 4.51397 4.04529 6.08789C3.5105 7.34703 7.83063 18.0497 10.7274 22.4567Z" fill="#582009"/>
<path d="M13.0303 19.8769L17.0279 21.375V24.3718C17.0279 26.2894 22.3578 26.9686 25.0228 27.0685H43.678L46.343 25.8699L48.3418 27.3681L68.9957 26.7688L70.3282 25.8699L71.6608 26.7688L96.3122 27.0685H100.976C101.42 27.2682 104.174 27.7276 111.636 27.9673C119.098 28.207 121.408 27.0685 121.63 26.4692C123.851 24.3718 128.426 19.9373 128.959 18.9785C128.426 18.2594 124.295 17.4803 122.296 17.1807C127.093 17.4204 130.069 17.0808 130.958 16.8811C132.29 15.1832 135.355 11.248 136.954 9.0907C138.953 6.39404 142.95 2.49886 128.293 1.29985C108.571 -0.13837 61.889 -0.0984195 41.013 0.101333L35.6829 1.29985L29.6866 0.101333H21.6915C1.70385 0.700592 5.70152 4.29614 5.03527 5.79429C4.50226 6.9928 10.1432 15.6821 13.0303 19.8769Z" fill="url(#paint0_linear_3681_7434)"/>
<mask id="mask0_3681_7434" style="mask-type:alpha" maskUnits="userSpaceOnUse" x="5" y="0" width="134" height="28">
<path d="M13.0303 19.8769L17.0279 21.375V24.3718C17.0279 26.2894 22.3578 26.9686 25.0228 27.0685H43.678L46.343 25.8699L48.3418 27.3681L68.9957 26.7688L70.3282 25.8699L71.6608 26.7688L96.3122 27.0685H100.976C101.42 27.2682 104.174 27.7276 111.636 27.9673C119.098 28.207 121.408 27.0685 121.63 26.4692C123.851 24.3718 128.426 19.9373 128.959 18.9785C128.426 18.2594 124.295 17.4803 122.296 17.1807C127.093 17.4204 130.069 17.0808 130.958 16.8811C132.29 15.1832 135.355 11.248 136.954 9.0907C138.953 6.39404 142.95 2.49886 128.293 1.29985C108.571 -0.13837 61.889 -0.0984195 41.013 0.101333L35.6829 1.29985L29.6866 0.101333H21.6915C1.70385 0.700592 5.70152 4.29614 5.03527 5.79429C4.50226 6.9928 10.1432 15.6821 13.0303 19.8769Z" fill="url(#paint1_linear_3681_7434)"/>
</mask>
<g mask="url(#mask0_3681_7434)">
<mask id="mask1_3681_7434" style="mask-type:alpha" maskUnits="userSpaceOnUse" x="4" y="-1" width="135" height="32">
<path d="M12.7195 21.7164L16.7231 23.4286V26.8535C16.7231 29.045 22.061 29.8212 24.73 29.9354H43.4131L46.0821 28.5656L48.0838 30.2778L68.7687 29.5929L70.1032 28.5656L71.4377 29.5929L96.126 29.9354H100.797C101.242 30.1637 104 30.6887 111.473 30.9627C118.946 31.2366 121.259 29.9354 121.482 29.2505C123.706 26.8535 128.288 21.7855 128.821 20.6897C128.288 19.8678 124.151 18.9775 122.149 18.6351C126.953 18.909 129.934 18.5209 130.823 18.2926C132.158 16.3522 135.227 11.8549 136.828 9.38937C138.83 6.30747 142.834 1.85584 128.154 0.485543C108.404 -1.15814 61.6513 -1.11248 40.744 -0.884191L35.406 0.485543L29.4007 -0.884191H21.3937C1.37611 -0.199324 5.37976 3.90988 4.7125 5.62204C4.1787 6.99178 9.82811 16.9223 12.7195 21.7164Z" fill="url(#paint2_linear_3681_7434)"/>
</mask>
<g mask="url(#mask1_3681_7434)">
<path d="M145.464 2.01788C88.9492 1.04208 26.8273 4.70131 2.83081 6.6529C-4.12145 6.93753 -14.161 9.45318 -0.53319 8.48258C18.3054 7.14086 86.9306 3.11571 150.174 3.96953L145.464 2.01788Z" fill="url(#paint3_linear_3681_7434)"/>
<path d="M141.54 9.63228C85.9828 8.16859 24.9139 13.6574 1.32405 16.5848C-5.51037 17.0118 -15.3798 20.7852 -1.98293 19.3293C16.5364 17.3168 83.9984 11.279 146.17 12.5598L141.54 9.63228Z" fill="url(#paint4_linear_3681_7434)"/>
<path d="M148.116 22.4613C93.6951 19.2225 30.3335 23.1194 5.45535 25.4726C-1.54218 25.7119 -13.2224 29.3742 0.80304 28.2548C20.1913 26.7074 90.1732 22.4296 151.251 25.6787L148.116 22.4613Z" fill="url(#paint5_linear_3681_7434)"/>
</g>
<g filter="url(#filter1_d_3681_7434)">
<path d="M43.2217 17.61C42.8447 17.792 38.4117 18.741 37.1247 16.856C36.3317 15.686 36.5137 13.424 36.9167 11.656C36.6567 11.682 36.5787 10.928 36.5787 10.473C36.5787 10.252 36.6437 9.446 36.8647 9.342C38.5287 8.614 41.1937 8.289 43.2867 8.289C43.7417 8.289 43.8717 9.615 43.8717 9.953C43.8717 10.525 43.7287 11.591 43.3127 11.539C41.8957 11.37 40.9597 11.305 40.0107 11.331C39.3737 12.995 38.9837 14.321 39.7247 14.867C40.5957 15.504 41.8177 15.257 43.2477 14.425C43.5987 14.217 43.8067 15.556 43.8067 16.141C43.8067 16.479 43.6377 17.415 43.2217 17.61ZM44.399 17.259C44.594 15.335 45.699 9.81 46.674 8.471C46.882 8.185 49.417 8.185 49.625 8.471C50.6 9.81 51.705 15.335 51.9 17.259C51.939 17.61 51.094 17.844 50.795 17.922C50.522 18 49.352 18.039 49.313 17.805C49.222 17.285 49.118 16.518 48.962 15.686C48.377 15.634 47.87 15.634 47.35 15.66C47.194 16.505 47.077 17.272 46.986 17.805C46.947 18.039 45.777 18 45.504 17.922C45.205 17.844 44.36 17.61 44.399 17.259ZM47.727 13.853C48.013 13.814 48.286 13.775 48.572 13.749C48.455 13.229 48.312 12.735 48.156 12.267C48 12.761 47.857 13.307 47.727 13.853ZM52.8587 17.597C52.7417 16.466 52.6637 13.645 52.7937 11.448C52.4947 11.526 52.2737 11.539 52.2087 11.422C52.1307 11.279 51.9877 9.355 52.2867 8.952C52.5597 8.588 54.1977 8.172 55.3027 8.12C56.7587 8.055 58.9037 8.419 59.0987 10.148C59.2677 11.63 58.8647 12.618 58.2277 13.268C59.3847 14.503 58.4227 15.712 59.9177 16.739C61.0487 17.519 58.1497 18.598 57.0057 17.623C55.7447 16.557 56.3947 15.374 56.0827 14.295C55.9267 14.321 55.7707 14.334 55.6147 14.347C55.5367 15.673 55.5367 16.856 55.5367 17.701C55.5367 17.948 54.5227 18.039 54.1067 18.039C53.8077 18.039 52.8977 17.948 52.8587 17.597ZM55.7447 12.696C56.1737 12.618 56.5767 12.358 56.6287 11.578C56.6677 11.162 56.5637 10.655 56.0827 10.564C55.9397 11.266 55.8227 11.994 55.7447 12.696ZM64.63 18C64.279 18 63.928 17.935 63.603 17.831C63.304 17.974 62.537 18.039 62.303 18.039C62.004 18.039 61.094 17.948 61.055 17.597C60.938 16.466 60.86 13.658 60.99 11.474C60.873 11.474 60.782 11.461 60.717 11.422C60.509 11.279 60.366 9.355 60.795 8.952C61.445 8.38 62.693 8.25 63.525 8.25C67.542 8.25 68.387 9.693 68.387 12.956C68.387 16.063 66.736 18 64.63 18ZM63.746 15.699C65.241 15.855 65.28 14.412 65.358 13.437C65.475 11.968 65.254 10.889 64.227 10.811C63.902 12.527 63.785 14.269 63.746 15.699ZM73.0443 17.597C72.9273 16.466 72.8493 13.645 72.9793 11.448C72.6803 11.526 72.4593 11.539 72.3943 11.422C72.3163 11.279 72.1733 9.355 72.4723 8.952C72.7453 8.588 74.3833 8.172 75.4883 8.12C76.9443 8.055 79.0893 8.419 79.2843 10.148C79.6223 13.242 77.5683 14.425 75.7873 14.607C75.7223 15.829 75.7223 16.908 75.7223 17.701C75.7223 17.948 74.5783 18.039 74.2923 18.039C73.9933 18.039 73.0833 17.948 73.0443 17.597ZM75.9043 12.943C76.3333 12.813 76.7623 12.371 76.8143 11.578C76.8533 11.162 76.7493 10.655 76.2683 10.564C76.1123 11.357 75.9823 12.163 75.9043 12.943ZM80.598 17.597C80.481 16.466 80.403 13.645 80.533 11.448C80.234 11.526 80.013 11.539 79.948 11.422C79.87 11.279 79.727 9.355 80.026 8.952C80.299 8.588 81.937 8.172 83.042 8.12C84.498 8.055 86.643 8.419 86.838 10.148C87.007 11.63 86.604 12.618 85.967 13.268C87.124 14.503 86.162 15.712 87.657 16.739C88.788 17.519 85.889 18.598 84.745 17.623C83.484 16.557 84.134 15.374 83.822 14.295C83.666 14.321 83.51 14.334 83.354 14.347C83.276 15.673 83.276 16.856 83.276 17.701C83.276 17.948 82.262 18.039 81.846 18.039C81.547 18.039 80.637 17.948 80.598 17.597ZM83.484 12.696C83.913 12.618 84.316 12.358 84.368 11.578C84.407 11.162 84.303 10.655 83.822 10.564C83.679 11.266 83.562 11.994 83.484 12.696ZM92.2487 11.279C92.0537 11.227 91.8587 11.188 91.6897 11.162C91.2087 13.697 91.2217 16.167 91.2217 17.701C91.2217 17.948 90.0777 18.039 89.7917 18.039C89.4927 18.039 88.5827 17.948 88.5437 17.597C88.4137 16.414 88.3487 13.476 88.5047 11.331C88.4787 11.331 88.4527 11.344 88.4267 11.344L88.2707 11.383C88.2447 11.383 88.2187 11.383 88.1927 11.396C87.9327 11.461 87.8547 10.538 87.8547 10.343C87.8547 9.667 87.9197 9.186 88.1407 9.082C89.5057 8.406 90.4807 8.289 92.2227 8.289C92.6777 8.289 92.8077 9.485 92.8077 9.823C92.8077 10.135 92.6517 11.37 92.2487 11.279ZM99.9824 17.61C99.6054 17.792 95.1724 18.741 93.8854 16.856C93.0924 15.686 93.2744 13.424 93.6774 11.656C93.4174 11.682 93.3394 10.928 93.3394 10.473C93.3394 10.252 93.4044 9.446 93.6254 9.342C95.2894 8.614 97.9544 8.289 100.047 8.289C100.502 8.289 100.632 9.615 100.632 9.953C100.632 10.525 100.489 11.591 100.073 11.539C98.6564 11.37 97.7204 11.305 96.7714 11.331C96.1344 12.995 95.7444 14.321 96.4854 14.867C97.3564 15.504 98.5784 15.257 100.008 14.425C100.359 14.217 100.567 15.556 100.567 16.141C100.567 16.479 100.398 17.415 99.9824 17.61ZM107.66 17.61C107.283 17.792 101.836 18.897 101.693 16.596C101.602 15.231 101.576 13.216 101.693 11.63C101.68 11.63 101.654 11.643 101.641 11.643H101.537C101.524 11.643 101.498 11.656 101.485 11.656C101.225 11.695 101.147 10.928 101.147 10.473C101.147 10.252 101.212 9.446 101.433 9.342C103.097 8.614 105.762 8.289 107.855 8.289C108.31 8.289 108.44 9.615 108.44 9.953C108.44 10.525 108.297 11.591 107.881 11.539C106.62 11.383 105.736 11.318 104.878 11.318C104.748 11.851 104.644 12.306 104.579 12.761C105.268 12.683 105.97 12.644 106.581 12.644C106.906 12.644 106.997 13.489 106.997 13.736C106.997 13.957 106.893 14.802 106.594 14.763C105.697 14.659 105.06 14.607 104.436 14.607C104.436 14.776 104.423 14.945 104.423 15.127C104.865 15.335 106.685 15.127 107.686 14.425C108.024 14.191 108.245 15.556 108.245 16.141C108.245 16.479 108.076 17.415 107.66 17.61Z" fill="#EFE5CA"/>
</g>
</g>
</g>
<defs>
<filter id="filter0_d_3681_7434" x="0" y="0" width="144" height="39" filterUnits="userSpaceOnUse" color-interpolation-filters="sRGB">
<feFlood flood-opacity="0" result="BackgroundImageFix"/>
<feColorMatrix in="SourceAlpha" type="matrix" values="0 0 0 0 0 0 0 0 0 0 0 0 0 0 0 0 0 0 127 0" result="hardAlpha"/>
<feOffset dy="4"/>
<feGaussianBlur stdDeviation="2"/>
<feComposite in2="hardAlpha" operator="out"/>
<feColorMatrix type="matrix" values="0 0 0 0 0 0 0 0 0 0 0 0 0 0 0 0 0 0 0.25 0"/>
<feBlend mode="normal" in2="BackgroundImageFix" result="effect1_dropShadow_3681_7434"/>
<feBlend mode="normal" in="SourceGraphic" in2="effect1_dropShadow_3681_7434" result="shape"/>
</filter>
<filter id="filter1_d_3681_7434" x="35.3317" y="8.05518" width="74.108" height="12.8418" filterUnits="userSpaceOnUse" color-interpolation-filters="sRGB">
<feFlood flood-opacity="0" result="BackgroundImageFix"/>
<feColorMatrix in="SourceAlpha" type="matrix" values="0 0 0 0 0 0 0 0 0 0 0 0 0 0 0 0 0 0 127 0" result="hardAlpha"/>
<feOffset dy="1"/>
<feGaussianBlur stdDeviation="0.5"/>
<feComposite in2="hardAlpha" operator="out"/>
<feColorMatrix type="matrix" values="0 0 0 0 0 0 0 0 0 0 0 0 0 0 0 0 0 0 0.5 0"/>
<feBlend mode="normal" in2="BackgroundImageFix" result="effect1_dropShadow_3681_7434"/>
<feBlend mode="normal" in="SourceGraphic" in2="effect1_dropShadow_3681_7434" result="shape"/>
</filter>
<linearGradient id="paint0_linear_3681_7434" x1="72" y1="0" x2="71.119" y2="26.2854" gradientUnits="userSpaceOnUse">
<stop stop-color="#E88630"/>
<stop offset="0.494701" stop-color="#BD4F2A"/>
</linearGradient>
<linearGradient id="paint1_linear_3681_7434" x1="72" y1="0" x2="71.119" y2="26.2854" gradientUnits="userSpaceOnUse">
<stop stop-color="#E88630"/>
<stop offset="0.494701" stop-color="#BD4F2A"/>
</linearGradient>
<linearGradient id="paint2_linear_3681_7434" x1="71.7774" y1="-1" x2="70.6289" y2="29.0303" gradientUnits="userSpaceOnUse">
<stop stop-color="#E88630"/>
<stop offset="0.494701" stop-color="#BD4F2A"/>
</linearGradient>
<linearGradient id="paint3_linear_3681_7434" x1="56.7585" y1="0.485736" x2="63.4466" y2="11.7408" gradientUnits="userSpaceOnUse">
<stop stop-color="#C55F1F"/>
<stop offset="1" stop-color="#CC6A23"/>
</linearGradient>
<linearGradient id="paint4_linear_3681_7434" x1="61.0764" y1="11.2231" x2="61.2173" y2="15.4696" gradientUnits="userSpaceOnUse">
<stop stop-color="#AB3F22"/>
<stop offset="1" stop-color="#AA3F21"/>
</linearGradient>
<linearGradient id="paint5_linear_3681_7434" x1="74.5661" y1="21.0911" x2="74.6611" y2="26.4798" gradientUnits="userSpaceOnUse">
<stop stop-color="#943716"/>
<stop offset="1" stop-color="#AD421E"/>
</linearGradient>
</defs>
</svg>
