<svg width="127" height="39" viewBox="0 0 127 39" fill="none" xmlns="http://www.w3.org/2000/svg">
<g filter="url(#filter0_d_10621_20603)">
<path d="M9.8865 22.4567L13.3997 23.4011C13.3997 23.6111 13.9847 25.4786 13.9847 27.4933C13.9847 29.5079 19.834 29.9066 22.1737 30.0116H38.5517L40.8915 28.7524L42.6463 30.3263L60.7791 29.6968L61.9489 28.7524L63.1188 29.6968L84.7612 30.0116H88.8557C89.2457 30.2214 91.6634 30.7041 98.2146 30.9559C104.766 31.2077 107.963 30.3263 108.158 29.6968C110.108 27.4933 114.71 21.8901 115.178 20.8828C114.71 20.1273 113.423 19.3089 111.668 18.9941C115.88 19.2459 115.568 18.8891 116.347 18.6793C117.517 16.8955 120.208 12.1318 121.612 9.86531C123.367 7.03225 125.706 2.62526 112.838 1.3656C95.5239 -0.145369 54.5398 -0.103398 36.212 0.106459L31.5326 1.3656L26.2682 0.106459H19.249C1.70114 0.736029 4.62456 4.51397 4.03963 6.08789C3.57169 7.34703 7.3518 18.0497 9.8865 22.4567Z" fill="#582009"/>
<path d="M12.0116 19.8769L15.502 21.375V24.3718C15.502 26.2894 20.1557 26.9686 22.4826 27.0685H38.7711L41.098 25.8699L42.8432 27.3681L60.8769 26.7688L62.0403 25.8699L63.2038 26.7688L84.7279 27.0685H88.8C89.1878 27.2682 91.5923 27.7276 98.1077 27.9673C104.623 28.207 106.64 27.0685 106.834 26.4692C108.773 24.3718 112.767 19.9373 113.233 18.9785C112.767 18.2594 109.161 17.4803 107.415 17.1807C111.604 17.4204 114.202 17.0808 114.978 16.8811C116.141 15.1832 118.817 11.248 120.213 9.0907C121.959 6.39404 125.449 2.49886 112.651 1.29985C95.4317 -0.13837 54.6717 -0.0984195 36.4442 0.101333L31.7903 1.29985L26.5547 0.101333H19.574C2.12202 0.700592 5.61252 4.29614 5.03079 5.79429C4.56541 6.9928 9.49073 15.6821 12.0116 19.8769Z" fill="url(#paint0_linear_10621_20603)"/>
<mask id="mask0_10621_20603" style="mask-type:alpha" maskUnits="userSpaceOnUse" x="5" y="0" width="117" height="28">
<path d="M12.0116 19.8769L15.502 21.375V24.3718C15.502 26.2894 20.1557 26.9686 22.4826 27.0685H38.7711L41.098 25.8699L42.8432 27.3681L60.8769 26.7688L62.0403 25.8699L63.2038 26.7688L84.7279 27.0685H88.8C89.1878 27.2682 91.5923 27.7276 98.1077 27.9673C104.623 28.207 106.64 27.0685 106.834 26.4692C108.773 24.3718 112.767 19.9373 113.233 18.9785C112.767 18.2594 109.161 17.4803 107.415 17.1807C111.604 17.4204 114.202 17.0808 114.978 16.8811C116.141 15.1832 118.817 11.248 120.213 9.0907C121.959 6.39404 125.449 2.49886 112.651 1.29985C95.4317 -0.13837 54.6717 -0.0984195 36.4442 0.101333L31.7903 1.29985L26.5547 0.101333H19.574C2.12202 0.700592 5.61252 4.29614 5.03079 5.79429C4.56541 6.9928 9.49073 15.6821 12.0116 19.8769Z" fill="url(#paint1_linear_10621_20603)"/>
</mask>
<g mask="url(#mask0_10621_20603)">
<mask id="mask1_10621_20603" style="mask-type:alpha" maskUnits="userSpaceOnUse" x="4" y="-1" width="119" height="32">
<path d="M11.6308 21.7164L15.1339 23.4286V26.8535C15.1339 29.045 19.8046 29.8212 22.1399 29.9354H38.4876L40.823 28.5656L42.5746 30.2778L60.6738 29.5929L61.8415 28.5656L63.0092 29.5929L84.6115 29.9354H88.6984C89.0877 30.1637 91.5009 30.6887 98.04 30.9627C104.579 31.2366 106.603 29.9354 106.798 29.2505C108.744 26.8535 112.753 21.7855 113.22 20.6897C112.753 19.8678 109.133 18.9775 107.382 18.6351C111.585 18.909 114.193 18.5209 114.972 18.2926C116.139 16.3522 118.825 11.8549 120.226 9.38937C121.978 6.30747 125.481 1.85584 112.636 0.485543C95.3543 -1.15814 54.4461 -1.11248 36.1523 -0.884191L31.4815 0.485543L26.2269 -0.884191H19.2207C1.70531 -0.199324 5.2085 3.90988 4.62465 5.62204C4.15758 6.99178 9.10081 16.9223 11.6308 21.7164Z" fill="url(#paint2_linear_10621_20603)"/>
</mask>
<g mask="url(#mask1_10621_20603)">
<path d="M127.783 2.02178C78.3326 1.04599 23.9759 4.70522 2.97898 6.65681C-3.10425 6.94143 -11.8888 9.45708 0.035481 8.48649C16.5192 7.14477 76.5663 3.11962 131.904 3.97344L127.783 2.02178Z" fill="url(#paint3_linear_10621_20603)"/>
<path d="M124.35 9.63424C75.737 8.17055 22.3016 13.6594 1.66055 16.5868C-4.31957 17.0137 -12.9553 20.7872 -1.23305 19.3313C14.9713 17.3187 74.0006 11.281 128.401 12.5617L124.35 9.63424Z" fill="url(#paint4_linear_10621_20603)"/>
<path d="M130.102 22.4633C82.4841 19.2245 27.0427 23.1213 5.27427 25.4746C-0.848571 25.7139 -11.0687 29.3762 1.2035 28.2568C18.1682 26.7094 79.4024 22.4316 132.846 25.6807L130.102 22.4633Z" fill="url(#paint5_linear_10621_20603)"/>
</g>
<g filter="url(#filter1_d_10621_20603)">
<path d="M43.3446 18.506C43.2796 18.844 41.3426 18.883 41.2126 18.74C40.6796 18.142 40.0166 16.881 39.4966 15.477C39.4316 16.751 39.4316 17.882 39.4316 18.701C39.4316 18.948 38.2876 19.039 38.0016 19.039C37.7026 19.039 36.7926 18.948 36.7536 18.597C36.5586 16.777 36.4936 10.576 37.1696 9.666C37.4036 9.354 38.3786 9.25 38.7426 9.25C39.5616 9.25 40.3676 9.406 40.4066 9.848C40.5626 11.473 41.1996 13.189 41.8236 14.853C42.6816 12.89 43.8776 10.628 44.7096 9.666C44.9696 9.367 45.9186 9.25 46.2826 9.25C47.1016 9.25 48.0766 9.419 47.9466 9.848C46.9586 13.02 46.9716 16.751 46.9716 18.701C46.9716 18.948 45.8276 19.039 45.5416 19.039C45.2426 19.039 44.3326 18.948 44.2936 18.597C44.2286 17.999 44.1766 16.933 44.1636 15.75C43.8126 16.686 43.5266 17.622 43.3446 18.506ZM47.9732 18.259C48.1682 16.335 49.2732 10.81 50.2482 9.471C50.4562 9.185 52.9912 9.185 53.1992 9.471C54.1742 10.81 55.2792 16.335 55.4742 18.259C55.5132 18.61 54.6682 18.844 54.3692 18.922C54.0962 19 52.9262 19.039 52.8872 18.805C52.7962 18.285 52.6922 17.518 52.5362 16.686C51.9512 16.634 51.4442 16.634 50.9242 16.66C50.7682 17.505 50.6512 18.272 50.5602 18.805C50.5212 19.039 49.3512 19 49.0782 18.922C48.7792 18.844 47.9342 18.61 47.9732 18.259ZM51.3012 14.853C51.5872 14.814 51.8602 14.775 52.1462 14.749C52.0292 14.229 51.8862 13.735 51.7302 13.267C51.5742 13.761 51.4312 14.307 51.3012 14.853ZM63.4336 12.539C62.6666 12.448 61.9516 12.396 61.2366 12.357C60.7556 14.827 60.7556 17.167 60.7556 18.701C60.7556 18.948 59.6116 19.039 59.3256 19.039C59.0266 19.039 58.1166 18.948 58.0776 18.597C57.9476 17.388 57.8696 14.489 58.0386 12.396C57.2976 12.448 56.5306 12.539 55.7376 12.656C55.4776 12.695 55.3996 11.668 55.3996 11.473C55.3996 11.252 55.4646 10.446 55.6856 10.342C57.3496 9.614 61.3146 9.289 63.4076 9.289C63.8626 9.289 63.9926 10.615 63.9926 10.953C63.9926 11.265 63.8496 12.591 63.4336 12.539ZM71.1709 18.61C70.7939 18.792 66.3609 19.741 65.0739 17.856C64.2809 16.686 64.4629 14.424 64.8659 12.656C64.6059 12.682 64.5279 11.928 64.5279 11.473C64.5279 11.252 64.5929 10.446 64.8139 10.342C66.4779 9.614 69.1429 9.289 71.2359 9.289C71.6909 9.289 71.8209 10.615 71.8209 10.953C71.8209 11.525 71.6779 12.591 71.2619 12.539C69.8449 12.37 68.9089 12.305 67.9599 12.331C67.3229 13.995 66.9329 15.321 67.6739 15.867C68.5449 16.504 69.7669 16.257 71.1969 15.425C71.5479 15.217 71.7559 16.556 71.7559 17.141C71.7559 17.479 71.5869 18.415 71.1709 18.61ZM72.4782 18.597C72.2832 16.777 72.2182 10.576 72.8942 9.666C73.1282 9.354 74.1032 9.25 74.4672 9.25C75.2862 9.25 76.2612 9.419 76.1312 9.848C75.7282 11.135 75.4942 12.526 75.3512 13.839C75.7022 13.8 76.0532 13.761 76.3912 13.735C76.4432 11.863 76.5862 10.121 76.9242 9.666C77.1582 9.354 78.1332 9.25 78.4972 9.25C79.3162 9.25 80.2912 9.419 80.1612 9.848C79.1732 13.02 79.1862 16.751 79.1862 18.701C79.1862 18.948 78.0422 19.039 77.7562 19.039C77.4572 19.039 76.5472 18.948 76.5082 18.597C76.4432 17.986 76.3912 16.855 76.3782 15.607C75.9882 15.594 75.6112 15.594 75.2212 15.607C75.1562 16.829 75.1562 17.908 75.1562 18.701C75.1562 18.948 74.0122 19.039 73.7262 19.039C73.4272 19.039 72.5172 18.948 72.4782 18.597ZM87.2777 8.904C89.283 8.904 90.2857 9.77333 90.2857 11.512C90.2857 12.0347 90.1897 12.4667 89.9977 12.808C89.8057 13.1493 89.491 13.4587 89.0537 13.736V13.8C89.5443 14.024 89.8963 14.3227 90.1097 14.696C90.323 15.0587 90.4297 15.5333 90.4297 16.12C90.4297 17.0907 90.1523 17.8427 89.5977 18.376C89.043 18.8987 88.2377 19.16 87.1817 19.16C86.659 19.16 86.211 19.112 85.8377 19.016C85.475 18.9307 85.0057 18.7653 84.4297 18.52L84.9897 16.28C85.875 16.6 86.4883 16.76 86.8297 16.76C87.331 16.76 87.5817 16.4827 87.5817 15.928C87.5817 15.3307 87.2457 15.032 86.5737 15.032H85.5817V12.936H86.5897C86.8883 12.936 87.0963 12.872 87.2137 12.744C87.3417 12.6053 87.4057 12.4027 87.4057 12.136C87.4057 11.624 87.155 11.368 86.6537 11.368C86.3017 11.368 85.6777 11.5493 84.7817 11.912L84.1577 9.752C84.7443 9.432 85.267 9.21333 85.7257 9.096C86.1843 8.968 86.7017 8.904 87.2777 8.904Z" fill="#EFE5CA"/>
</g>
</g>
</g>
<defs>
<filter id="filter0_d_10621_20603" x="0" y="0" width="127" height="39" filterUnits="userSpaceOnUse" color-interpolation-filters="sRGB">
<feFlood flood-opacity="0" result="BackgroundImageFix"/>
<feColorMatrix in="SourceAlpha" type="matrix" values="0 0 0 0 0 0 0 0 0 0 0 0 0 0 0 0 0 0 127 0" result="hardAlpha"/>
<feOffset dy="4"/>
<feGaussianBlur stdDeviation="2"/>
<feComposite in2="hardAlpha" operator="out"/>
<feColorMatrix type="matrix" values="0 0 0 0 0 0 0 0 0 0 0 0 0 0 0 0 0 0 0.25 0"/>
<feBlend mode="normal" in2="BackgroundImageFix" result="effect1_dropShadow_10621_20603"/>
<feBlend mode="normal" in="SourceGraphic" in2="effect1_dropShadow_10621_20603" result="shape"/>
</filter>
<filter id="filter1_d_10621_20603" x="35.4937" y="8.90381" width="55.936" height="12.8374" filterUnits="userSpaceOnUse" color-interpolation-filters="sRGB">
<feFlood flood-opacity="0" result="BackgroundImageFix"/>
<feColorMatrix in="SourceAlpha" type="matrix" values="0 0 0 0 0 0 0 0 0 0 0 0 0 0 0 0 0 0 127 0" result="hardAlpha"/>
<feOffset dy="1"/>
<feGaussianBlur stdDeviation="0.5"/>
<feComposite in2="hardAlpha" operator="out"/>
<feColorMatrix type="matrix" values="0 0 0 0 0 0 0 0 0 0 0 0 0 0 0 0 0 0 0.5 0"/>
<feBlend mode="normal" in2="BackgroundImageFix" result="effect1_dropShadow_10621_20603"/>
<feBlend mode="normal" in="SourceGraphic" in2="effect1_dropShadow_10621_20603" result="shape"/>
</filter>
<linearGradient id="paint0_linear_10621_20603" x1="63.5" y1="0" x2="62.4914" y2="26.2762" gradientUnits="userSpaceOnUse">
<stop stop-color="#E88630"/>
<stop offset="0.494701" stop-color="#BD4F2A"/>
</linearGradient>
<linearGradient id="paint1_linear_10621_20603" x1="63.5" y1="0" x2="62.4914" y2="26.2762" gradientUnits="userSpaceOnUse">
<stop stop-color="#E88630"/>
<stop offset="0.494701" stop-color="#BD4F2A"/>
</linearGradient>
<linearGradient id="paint2_linear_10621_20603" x1="63.3065" y1="-1" x2="61.9944" y2="29.0168" gradientUnits="userSpaceOnUse">
<stop stop-color="#E88630"/>
<stop offset="0.494701" stop-color="#BD4F2A"/>
</linearGradient>
<linearGradient id="paint3_linear_10621_20603" x1="50.1657" y1="0.489642" x2="57.2438" y2="10.9121" gradientUnits="userSpaceOnUse">
<stop stop-color="#C55F1F"/>
<stop offset="1" stop-color="#CC6A23"/>
</linearGradient>
<linearGradient id="paint4_linear_10621_20603" x1="53.9439" y1="11.2251" x2="54.1049" y2="15.4702" gradientUnits="userSpaceOnUse">
<stop stop-color="#AB3F22"/>
<stop offset="1" stop-color="#AA3F21"/>
</linearGradient>
<linearGradient id="paint5_linear_10621_20603" x1="65.7462" y1="21.0931" x2="65.8548" y2="26.4813" gradientUnits="userSpaceOnUse">
<stop stop-color="#943716"/>
<stop offset="1" stop-color="#AD421E"/>
</linearGradient>
</defs>
</svg>
