<svg width="204" height="39" viewBox="0 0 204 39" fill="none" xmlns="http://www.w3.org/2000/svg">
<g filter="url(#filter0_d_10621_23246)">
<path d="M13.6954 22.4567L19.4819 23.4011C19.4819 23.6111 20.4453 25.4786 20.4453 27.4933C20.4453 29.5079 30.0796 29.9066 33.9331 30.0116H60.9087L64.7624 28.7524L67.6527 30.3263L97.5185 29.6968L99.4453 28.7524L101.372 29.6968L137.018 30.0116H143.762C144.405 30.2214 148.387 30.7041 159.177 30.9559C169.967 31.2077 175.234 30.3263 175.555 29.6968C178.766 27.4933 186.345 21.8901 187.116 20.8828C186.345 20.1273 184.226 19.3089 181.336 18.9941C188.272 19.2459 187.758 18.8891 189.043 18.6793C190.97 16.8955 195.401 12.1318 197.714 9.86531C200.604 7.03225 204.458 2.62526 183.262 1.3656C154.745 -0.145369 87.2421 -0.103398 57.0551 0.106459L49.3478 1.3656L40.677 0.106459H29.1161C0.213645 0.736029 5.02869 4.51397 4.06527 6.08789C3.29454 7.34703 9.52061 18.0497 13.6954 22.4567Z" fill="#582009"/>
<path d="M16.626 19.8769L22.4135 21.375V24.3718C22.4135 26.2894 30.13 26.9686 33.9883 27.0685H60.9965L64.8548 25.8699L67.7486 27.3681L97.6505 26.7688L99.5797 25.8699L101.509 26.7688L137.198 27.0685H143.95C144.593 27.2682 148.58 27.7276 159.384 27.9673C170.187 28.207 173.531 27.0685 173.852 26.4692C177.068 24.3718 183.691 19.9373 184.463 18.9785C183.691 18.2594 177.711 17.4803 174.817 17.1807C181.762 17.4204 186.07 17.0808 187.356 16.8811C189.286 15.1832 193.723 11.248 196.038 9.0907C198.931 6.39404 204.719 2.49886 183.498 1.29985C154.947 -0.13837 87.3617 -0.0984195 57.1382 0.101333L49.4215 1.29985L40.7403 0.101333H29.1654C0.227966 0.700592 6.01564 4.29614 5.05106 5.79429C4.27939 6.9928 12.4462 15.6821 16.626 19.8769Z" fill="url(#paint0_linear_10621_23246)"/>
<mask id="mask0_10621_23246" style="mask-type:alpha" maskUnits="userSpaceOnUse" x="5" y="0" width="194" height="28">
<path d="M16.626 19.8769L22.4135 21.375V24.3718C22.4135 26.2894 30.13 26.9686 33.9883 27.0685H60.9965L64.8548 25.8699L67.7486 27.3681L97.6505 26.7688L99.5797 25.8699L101.509 26.7688L137.198 27.0685H143.95C144.593 27.2682 148.58 27.7276 159.384 27.9673C170.187 28.207 173.531 27.0685 173.852 26.4692C177.068 24.3718 183.691 19.9373 184.463 18.9785C183.691 18.2594 177.711 17.4803 174.817 17.1807C181.762 17.4204 186.07 17.0808 187.356 16.8811C189.286 15.1832 193.723 11.248 196.038 9.0907C198.931 6.39404 204.719 2.49886 183.498 1.29985C154.947 -0.13837 87.3617 -0.0984195 57.1382 0.101333L49.4215 1.29985L40.7403 0.101333H29.1654C0.227966 0.700592 6.01564 4.29614 5.05106 5.79429C4.27939 6.9928 12.4462 15.6821 16.626 19.8769Z" fill="url(#paint1_linear_10621_23246)"/>
</mask>
<g mask="url(#mask0_10621_23246)">
<mask id="mask1_10621_23246" style="mask-type:alpha" maskUnits="userSpaceOnUse" x="5" y="-1" width="194" height="32">
<path d="M16.6442 21.7164L22.4139 23.4286V26.8535C22.4139 29.045 30.1068 29.8212 33.9533 29.9354H60.8789L64.7254 28.5656L67.6103 30.2778L97.4208 29.5929L99.3441 28.5656L101.267 29.5929L136.848 29.9354H143.579C144.22 30.1637 148.195 30.6887 158.965 30.9627C169.735 31.2366 173.069 29.9354 173.39 29.2505C176.595 26.8535 183.198 21.7855 183.967 20.6897C183.198 19.8678 177.236 18.9775 174.351 18.6351C181.275 18.909 185.57 18.5209 186.852 18.2926C188.776 16.3522 193.199 11.8549 195.507 9.38937C198.392 6.30747 204.162 1.85584 183.006 0.485543C154.542 -1.15814 87.1635 -1.11248 57.0324 -0.884191L49.3394 0.485543L40.6847 -0.884191H29.1452C0.296275 -0.199324 6.06624 3.90988 5.10461 5.62204C4.33531 6.99178 12.4771 16.9223 16.6442 21.7164Z" fill="url(#paint2_linear_10621_23246)"/>
</mask>
<g mask="url(#mask1_10621_23246)">
<path d="M207.954 2.01788C126.505 1.04208 36.9767 4.70131 2.39349 6.6529C-7.62595 6.93753 -22.0947 9.45318 -2.45463 8.48258C24.6951 7.14086 123.596 3.11571 214.741 3.96953L207.954 2.01788Z" fill="url(#paint3_linear_10621_23246)"/>
<path d="M202.297 9.63228C122.229 8.16859 34.2176 13.6574 0.220542 16.5848C-9.62908 17.0118 -23.8526 20.7852 -4.5454 19.3293C22.1442 17.3168 119.369 11.279 208.969 12.5598L202.297 9.63228Z" fill="url(#paint4_linear_10621_23246)"/>
<path d="M211.773 22.4613C133.343 19.2225 42.0279 23.1194 6.17409 25.4726C-3.91059 25.7119 -20.7438 29.3742 -0.530706 28.2548C27.4111 26.7074 128.267 22.4296 216.292 25.6787L211.773 22.4613Z" fill="url(#paint5_linear_10621_23246)"/>
</g>
<g filter="url(#filter1_d_10621_23246)">
<path d="M26.3518 17C23.7388 17.26 21.3728 15.83 23.0368 10.578H23.0238L22.9978 10.591H22.9848H22.9068H22.8938L22.8678 10.604H22.8548C22.5948 10.643 22.5428 9.733 22.5818 9.421C22.6598 8.745 22.8418 8.42 23.0628 8.29C23.6998 7.9 25.4678 7.12 27.3788 7.289C31.6688 7.666 30.9018 16.558 26.3518 17ZM25.8708 10.591C25.4678 11.358 25.0518 12.97 25.4678 14.01C25.7668 14.738 26.5728 14.595 27.0018 13.893C27.3528 13.295 27.4828 11.579 27.0668 10.864C26.7678 10.357 26.2608 10.526 25.8708 10.591ZM30.7554 7.926C30.7164 7.575 31.6914 7.341 31.9904 7.263C32.2634 7.185 33.3034 7.146 33.3424 7.38C33.5374 8.537 33.8624 10.149 34.4084 11.852C34.8374 9.993 35.3834 8.16 35.8904 7.471C36.1244 7.146 37.1774 7.25 37.5284 7.354C37.8534 7.445 39.2054 7.835 38.9974 8.225C37.3464 11.215 36.5534 14.725 36.2024 16.805C36.1764 16.948 33.3294 17.13 33.0304 16.714C32.0554 15.375 30.9504 9.85 30.7554 7.926ZM46.0533 16.61C45.6763 16.792 40.2293 17.897 40.0863 15.596C39.9953 14.231 39.9693 12.216 40.0863 10.63C40.0733 10.63 40.0473 10.643 40.0343 10.643H39.9303C39.9173 10.643 39.8913 10.656 39.8783 10.656C39.6183 10.695 39.5403 9.928 39.5403 9.473C39.5403 9.252 39.6053 8.446 39.8263 8.342C41.4903 7.614 44.1553 7.289 46.2483 7.289C46.7033 7.289 46.8333 8.615 46.8333 8.953C46.8333 9.525 46.6903 10.591 46.2743 10.539C45.0133 10.383 44.1293 10.318 43.2713 10.318C43.1413 10.851 43.0373 11.306 42.9723 11.761C43.6613 11.683 44.3633 11.644 44.9743 11.644C45.2993 11.644 45.3903 12.489 45.3903 12.736C45.3903 12.957 45.2863 13.802 44.9873 13.763C44.0903 13.659 43.4533 13.607 42.8293 13.607C42.8293 13.776 42.8163 13.945 42.8163 14.127C43.2583 14.335 45.0783 14.127 46.0793 13.425C46.4173 13.191 46.6383 14.556 46.6383 15.141C46.6383 15.479 46.4693 16.415 46.0533 16.61ZM48.1019 16.597C47.9849 15.466 47.9069 12.645 48.0369 10.448C47.7379 10.526 47.5169 10.539 47.4519 10.422C47.3739 10.279 47.2309 8.355 47.5299 7.952C47.8029 7.588 49.4409 7.172 50.5459 7.12C52.0019 7.055 54.1469 7.419 54.3419 9.148C54.5109 10.63 54.1079 11.618 53.4709 12.268C54.6279 13.503 53.6659 14.712 55.1609 15.739C56.2919 16.519 53.3929 17.598 52.2489 16.623C50.9879 15.557 51.6379 14.374 51.3259 13.295C51.1699 13.321 51.0139 13.334 50.8579 13.347C50.7799 14.673 50.7799 15.856 50.7799 16.701C50.7799 16.948 49.7659 17.039 49.3499 17.039C49.0509 17.039 48.1409 16.948 48.1019 16.597ZM50.9879 11.696C51.4169 11.618 51.8199 11.358 51.8719 10.578C51.9109 10.162 51.8069 9.655 51.3259 9.564C51.1829 10.266 51.0659 10.994 50.9879 11.696ZM55.7652 16.259C55.9602 14.335 57.0652 8.81 58.0402 7.471C58.2482 7.185 60.7832 7.185 60.9912 7.471C61.9662 8.81 63.0712 14.335 63.2662 16.259C63.3052 16.61 62.4602 16.844 62.1612 16.922C61.8882 17 60.7182 17.039 60.6792 16.805C60.5882 16.285 60.4842 15.518 60.3282 14.686C59.7432 14.634 59.2362 14.634 58.7162 14.66C58.5602 15.505 58.4432 16.272 58.3522 16.805C58.3132 17.039 57.1432 17 56.8702 16.922C56.5712 16.844 55.7262 16.61 55.7652 16.259ZM59.0932 12.853C59.3792 12.814 59.6522 12.775 59.9382 12.749C59.8212 12.229 59.6782 11.735 59.5222 11.267C59.3662 11.761 59.2232 12.307 59.0932 12.853ZM69.859 16.61C69.482 16.792 64.035 17.897 63.892 15.596C63.749 13.295 63.749 8.524 64.36 7.692C64.594 7.38 65.439 7.276 65.803 7.276C66.141 7.276 67.727 7.445 67.597 7.874C66.791 10.448 66.648 12.073 66.622 14.127C67.064 14.335 68.884 14.127 69.885 13.425C70.223 13.191 70.444 14.556 70.444 15.141C70.444 15.479 70.275 16.415 69.859 16.61ZM77.0192 16.61C76.6422 16.792 71.1952 17.897 71.0522 15.596C70.9092 13.295 70.9092 8.524 71.5202 7.692C71.7542 7.38 72.5992 7.276 72.9632 7.276C73.3012 7.276 74.8872 7.445 74.7572 7.874C73.9512 10.448 73.8082 12.073 73.7822 14.127C74.2242 14.335 76.0442 14.127 77.0452 13.425C77.3832 13.191 77.6042 14.556 77.6042 15.141C77.6042 15.479 77.4352 16.415 77.0192 16.61ZM85.3723 17C82.7593 17.26 80.3933 15.83 82.0573 10.578H82.0443L82.0183 10.591H82.0053H81.9273H81.9143L81.8883 10.604H81.8753C81.6153 10.643 81.5633 9.733 81.6023 9.421C81.6803 8.745 81.8623 8.42 82.0833 8.29C82.7203 7.9 84.4883 7.12 86.3993 7.289C90.6893 7.666 89.9223 16.558 85.3723 17ZM84.8913 10.591C84.4883 11.358 84.0723 12.97 84.4883 14.01C84.7873 14.738 85.5933 14.595 86.0223 13.893C86.3733 13.295 86.5033 11.579 86.0873 10.864C85.7883 10.357 85.2813 10.526 84.8913 10.591ZM93.8839 17C93.5329 17 93.1819 16.935 92.8569 16.831C92.5579 16.974 91.7909 17.039 91.5569 17.039C91.2579 17.039 90.3479 16.948 90.3089 16.597C90.1919 15.466 90.1139 12.658 90.2439 10.474C90.1269 10.474 90.0359 10.461 89.9709 10.422C89.7629 10.279 89.6199 8.355 90.0489 7.952C90.6989 7.38 91.9469 7.25 92.7789 7.25C96.7959 7.25 97.6409 8.693 97.6409 11.956C97.6409 15.063 95.9899 17 93.8839 17ZM92.9999 14.699C94.4949 14.855 94.5339 13.412 94.6119 12.437C94.7289 10.968 94.5079 9.889 93.4809 9.811C93.1559 11.527 93.0389 13.269 92.9999 14.699ZM102.288 17C101.937 17 101.586 16.935 101.261 16.831C100.962 16.974 100.195 17.039 99.9612 17.039C99.6622 17.039 98.7522 16.948 98.7132 16.597C98.5962 15.466 98.5182 12.658 98.6482 10.474C98.5312 10.474 98.4402 10.461 98.3752 10.422C98.1672 10.279 98.0242 8.355 98.4532 7.952C99.1032 7.38 100.351 7.25 101.183 7.25C105.2 7.25 106.045 8.693 106.045 11.956C106.045 15.063 104.394 17 102.288 17ZM101.404 14.699C102.899 14.855 102.938 13.412 103.016 12.437C103.133 10.968 102.912 9.889 101.885 9.811C101.56 11.527 101.443 13.269 101.404 14.699ZM107.326 13.503C109.302 14.114 110.342 14.166 111.109 14.101C111.278 14.088 111.343 13.815 111.109 13.802C109.627 13.724 108.002 13.75 107.131 12.476C106.559 11.644 106.143 8.797 107.404 8.238C109.055 7.51 111.2 7.289 113.293 7.289C113.748 7.289 113.878 8.615 113.878 8.953C113.878 9.525 113.735 10.591 113.319 10.539C111.668 10.344 110.667 10.279 109.536 10.344C109.549 10.383 109.575 10.435 109.601 10.487C110.03 11.475 111.824 11.332 113.124 11.007C114.151 10.747 114.034 14.725 113.072 16.012C112.006 17.442 108.444 17.052 107.248 16.74C106.806 16.623 106.715 15.518 106.728 15.193C106.741 14.881 106.91 13.373 107.326 13.503ZM118.523 16.597C118.406 15.466 118.328 12.645 118.458 10.448C118.159 10.526 117.938 10.539 117.873 10.422C117.795 10.279 117.652 8.355 117.951 7.952C118.224 7.588 119.862 7.172 120.967 7.12C122.423 7.055 124.568 7.419 124.763 9.148C125.101 12.242 123.047 13.425 121.266 13.607C121.201 14.829 121.201 15.908 121.201 16.701C121.201 16.948 120.057 17.039 119.771 17.039C119.472 17.039 118.562 16.948 118.523 16.597ZM121.383 11.943C121.812 11.813 122.241 11.371 122.293 10.578C122.332 10.162 122.228 9.655 121.747 9.564C121.591 10.357 121.461 11.163 121.383 11.943ZM131.836 16.61C131.459 16.792 126.012 17.897 125.869 15.596C125.778 14.231 125.752 12.216 125.869 10.63C125.856 10.63 125.83 10.643 125.817 10.643H125.713C125.7 10.643 125.674 10.656 125.661 10.656C125.401 10.695 125.323 9.928 125.323 9.473C125.323 9.252 125.388 8.446 125.609 8.342C127.273 7.614 129.938 7.289 132.031 7.289C132.486 7.289 132.616 8.615 132.616 8.953C132.616 9.525 132.473 10.591 132.057 10.539C130.796 10.383 129.912 10.318 129.054 10.318C128.924 10.851 128.82 11.306 128.755 11.761C129.444 11.683 130.146 11.644 130.757 11.644C131.082 11.644 131.173 12.489 131.173 12.736C131.173 12.957 131.069 13.802 130.77 13.763C129.873 13.659 129.236 13.607 128.612 13.607C128.612 13.776 128.599 13.945 128.599 14.127C129.041 14.335 130.861 14.127 131.862 13.425C132.2 13.191 132.421 14.556 132.421 15.141C132.421 15.479 132.252 16.415 131.836 16.61ZM133.884 16.597C133.767 15.466 133.689 12.645 133.819 10.448C133.52 10.526 133.299 10.539 133.234 10.422C133.156 10.279 133.013 8.355 133.312 7.952C133.585 7.588 135.223 7.172 136.328 7.12C137.784 7.055 139.929 7.419 140.124 9.148C140.293 10.63 139.89 11.618 139.253 12.268C140.41 13.503 139.448 14.712 140.943 15.739C142.074 16.519 139.175 17.598 138.031 16.623C136.77 15.557 137.42 14.374 137.108 13.295C136.952 13.321 136.796 13.334 136.64 13.347C136.562 14.673 136.562 15.856 136.562 16.701C136.562 16.948 135.548 17.039 135.132 17.039C134.833 17.039 133.923 16.948 133.884 16.597ZM136.77 11.696C137.199 11.618 137.602 11.358 137.654 10.578C137.693 10.162 137.589 9.655 137.108 9.564C136.965 10.266 136.848 10.994 136.77 11.696ZM152.386 13.763C152.373 13.763 152.347 13.763 152.334 13.763C152.178 14.803 152.165 15.856 152.23 16.727C152.243 17 151.359 17.013 151.164 17C150.93 16.987 150.592 16.948 150.371 16.857C148.915 17.104 146.354 17.234 145.418 15.856C144.612 14.686 144.898 12.398 145.379 10.63C145.197 10.5 145.132 9.863 145.132 9.473C145.132 9.252 145.197 8.446 145.418 8.342C147.082 7.614 149.747 7.289 151.84 7.289C152.295 7.289 152.425 8.615 152.425 8.953C152.425 9.525 152.282 10.591 151.866 10.539C150.449 10.37 149.5 10.305 148.551 10.331C147.927 11.995 147.537 13.321 148.278 13.867C148.707 14.179 149.123 14.283 149.617 14.205C149.604 14.036 149.591 13.867 149.591 13.698C149.331 13.737 149.006 13.789 148.603 13.854C148.408 13.88 148.356 13.386 148.356 13.113C148.356 12.944 148.395 12.489 148.564 12.411C149.76 11.878 150.865 11.644 152.373 11.644C152.698 11.644 152.789 12.489 152.789 12.736C152.789 12.957 152.685 13.802 152.386 13.763ZM153.329 16.259C153.524 14.335 154.629 8.81 155.604 7.471C155.812 7.185 158.347 7.185 158.555 7.471C159.53 8.81 160.635 14.335 160.83 16.259C160.869 16.61 160.024 16.844 159.725 16.922C159.452 17 158.282 17.039 158.243 16.805C158.152 16.285 158.048 15.518 157.892 14.686C157.307 14.634 156.8 14.634 156.28 14.66C156.124 15.505 156.007 16.272 155.916 16.805C155.877 17.039 154.707 17 154.434 16.922C154.135 16.844 153.29 16.61 153.329 16.259ZM156.657 12.853C156.943 12.814 157.216 12.775 157.502 12.749C157.385 12.229 157.242 11.735 157.086 11.267C156.93 11.761 156.787 12.307 156.657 12.853ZM168.098 16.506C168.033 16.844 166.096 16.883 165.966 16.74C165.433 16.142 164.77 14.881 164.25 13.477C164.185 14.751 164.185 15.882 164.185 16.701C164.185 16.948 163.041 17.039 162.755 17.039C162.456 17.039 161.546 16.948 161.507 16.597C161.312 14.777 161.247 8.576 161.923 7.666C162.157 7.354 163.132 7.25 163.496 7.25C164.315 7.25 165.121 7.406 165.16 7.848C165.316 9.473 165.953 11.189 166.577 12.853C167.435 10.89 168.631 8.628 169.463 7.666C169.723 7.367 170.672 7.25 171.036 7.25C171.855 7.25 172.83 7.419 172.7 7.848C171.712 11.02 171.725 14.751 171.725 16.701C171.725 16.948 170.581 17.039 170.295 17.039C169.996 17.039 169.086 16.948 169.047 16.597C168.982 15.999 168.93 14.933 168.917 13.75C168.566 14.686 168.28 15.622 168.098 16.506ZM179.748 16.61C179.371 16.792 173.924 17.897 173.781 15.596C173.69 14.231 173.664 12.216 173.781 10.63C173.768 10.63 173.742 10.643 173.729 10.643H173.625C173.612 10.643 173.586 10.656 173.573 10.656C173.313 10.695 173.235 9.928 173.235 9.473C173.235 9.252 173.3 8.446 173.521 8.342C175.185 7.614 177.85 7.289 179.943 7.289C180.398 7.289 180.528 8.615 180.528 8.953C180.528 9.525 180.385 10.591 179.969 10.539C178.708 10.383 177.824 10.318 176.966 10.318C176.836 10.851 176.732 11.306 176.667 11.761C177.356 11.683 178.058 11.644 178.669 11.644C178.994 11.644 179.085 12.489 179.085 12.736C179.085 12.957 178.981 13.802 178.682 13.763C177.785 13.659 177.148 13.607 176.524 13.607C176.524 13.776 176.511 13.945 176.511 14.127C176.953 14.335 178.773 14.127 179.774 13.425C180.112 13.191 180.333 14.556 180.333 15.141C180.333 15.479 180.164 16.415 179.748 16.61Z" fill="#EFE5CA"/>
</g>
</g>
</g>
<defs>
<filter id="filter0_d_10621_23246" x="0" y="0" width="204" height="39" filterUnits="userSpaceOnUse" color-interpolation-filters="sRGB">
<feFlood flood-opacity="0" result="BackgroundImageFix"/>
<feColorMatrix in="SourceAlpha" type="matrix" values="0 0 0 0 0 0 0 0 0 0 0 0 0 0 0 0 0 0 127 0" result="hardAlpha"/>
<feOffset dy="4"/>
<feGaussianBlur stdDeviation="2"/>
<feComposite in2="hardAlpha" operator="out"/>
<feColorMatrix type="matrix" values="0 0 0 0 0 0 0 0 0 0 0 0 0 0 0 0 0 0 0.25 0"/>
<feBlend mode="normal" in2="BackgroundImageFix" result="effect1_dropShadow_10621_23246"/>
<feBlend mode="normal" in="SourceGraphic" in2="effect1_dropShadow_10621_23246" result="shape"/>
</filter>
<filter id="filter1_d_10621_23246" x="20.3728" y="7.05518" width="161.155" height="12.8418" filterUnits="userSpaceOnUse" color-interpolation-filters="sRGB">
<feFlood flood-opacity="0" result="BackgroundImageFix"/>
<feColorMatrix in="SourceAlpha" type="matrix" values="0 0 0 0 0 0 0 0 0 0 0 0 0 0 0 0 0 0 127 0" result="hardAlpha"/>
<feOffset dy="1"/>
<feGaussianBlur stdDeviation="0.5"/>
<feComposite in2="hardAlpha" operator="out"/>
<feColorMatrix type="matrix" values="0 0 0 0 0 0 0 0 0 0 0 0 0 0 0 0 0 0 0.5 0"/>
<feBlend mode="normal" in2="BackgroundImageFix" result="effect1_dropShadow_10621_23246"/>
<feBlend mode="normal" in="SourceGraphic" in2="effect1_dropShadow_10621_23246" result="shape"/>
</filter>
<linearGradient id="paint0_linear_10621_23246" x1="102" y1="0" x2="101.391" y2="26.3008" gradientUnits="userSpaceOnUse">
<stop stop-color="#E88630"/>
<stop offset="0.494701" stop-color="#BD4F2A"/>
</linearGradient>
<linearGradient id="paint1_linear_10621_23246" x1="102" y1="0" x2="101.391" y2="26.3008" gradientUnits="userSpaceOnUse">
<stop stop-color="#E88630"/>
<stop offset="0.494701" stop-color="#BD4F2A"/>
</linearGradient>
<linearGradient id="paint2_linear_10621_23246" x1="101.757" y1="-1" x2="100.959" y2="29.053" gradientUnits="userSpaceOnUse">
<stop stop-color="#E88630"/>
<stop offset="0.494701" stop-color="#BD4F2A"/>
</linearGradient>
<linearGradient id="paint3_linear_10621_23246" x1="80.1128" y1="0.485736" x2="85.4798" y2="13.5021" gradientUnits="userSpaceOnUse">
<stop stop-color="#C55F1F"/>
<stop offset="1" stop-color="#CC6A23"/>
</linearGradient>
<linearGradient id="paint4_linear_10621_23246" x1="86.3343" y1="11.2231" x2="86.4321" y2="15.4721" gradientUnits="userSpaceOnUse">
<stop stop-color="#AB3F22"/>
<stop offset="1" stop-color="#AA3F21"/>
</linearGradient>
<linearGradient id="paint5_linear_10621_23246" x1="105.775" y1="21.0911" x2="105.841" y2="26.4807" gradientUnits="userSpaceOnUse">
<stop stop-color="#943716"/>
<stop offset="1" stop-color="#AD421E"/>
</linearGradient>
</defs>
</svg>
