<svg width="144" height="39" viewBox="0 0 144 39" fill="none" xmlns="http://www.w3.org/2000/svg">
<g filter="url(#filter0_d_10621_23227)">
<path d="M10.7274 22.4567L14.7426 23.4011C14.7426 23.6111 15.4111 25.4786 15.4111 27.4933C15.4111 29.5079 22.096 29.9066 24.7699 30.0116H43.4877L46.1617 28.7524L48.1671 30.3263L68.8904 29.6968L70.2274 28.7524L71.5644 29.6968L96.2985 30.0116H100.978C101.424 30.2214 104.187 30.7041 111.674 30.9559C119.161 31.2077 122.815 30.3263 123.038 29.6968C125.267 27.4933 130.525 21.8901 131.06 20.8828C130.525 20.1273 129.055 19.3089 127.049 18.9941C131.862 19.2459 131.506 18.8891 132.397 18.6793C133.734 16.8955 136.809 12.1318 138.414 9.86531C140.419 7.03225 143.093 2.62526 128.386 1.3656C108.599 -0.145369 61.7598 -0.103398 40.8137 0.106459L35.4658 1.3656L29.4494 0.106459H21.4275C1.37273 0.736029 4.71378 4.51397 4.04529 6.08789C3.5105 7.34703 7.83063 18.0497 10.7274 22.4567Z" fill="#582009"/>
<path d="M13.0303 19.8769L17.0279 21.375V24.3718C17.0279 26.2894 22.3578 26.9686 25.0228 27.0685H43.678L46.343 25.8699L48.3418 27.3681L68.9957 26.7688L70.3282 25.8699L71.6608 26.7688L96.3122 27.0685H100.976C101.42 27.2682 104.174 27.7276 111.636 27.9673C119.098 28.207 121.408 27.0685 121.63 26.4692C123.851 24.3718 128.426 19.9373 128.959 18.9785C128.426 18.2594 124.295 17.4803 122.296 17.1807C127.093 17.4204 130.069 17.0808 130.958 16.8811C132.29 15.1832 135.355 11.248 136.954 9.0907C138.953 6.39404 142.95 2.49886 128.293 1.29985C108.571 -0.13837 61.889 -0.0984195 41.013 0.101333L35.6829 1.29985L29.6866 0.101333H21.6915C1.70385 0.700592 5.70152 4.29614 5.03527 5.79429C4.50226 6.9928 10.1432 15.6821 13.0303 19.8769Z" fill="url(#paint0_linear_10621_23227)"/>
<mask id="mask0_10621_23227" style="mask-type:alpha" maskUnits="userSpaceOnUse" x="5" y="0" width="134" height="28">
<path d="M13.0303 19.8769L17.0279 21.375V24.3718C17.0279 26.2894 22.3578 26.9686 25.0228 27.0685H43.678L46.343 25.8699L48.3418 27.3681L68.9957 26.7688L70.3282 25.8699L71.6608 26.7688L96.3122 27.0685H100.976C101.42 27.2682 104.174 27.7276 111.636 27.9673C119.098 28.207 121.408 27.0685 121.63 26.4692C123.851 24.3718 128.426 19.9373 128.959 18.9785C128.426 18.2594 124.295 17.4803 122.296 17.1807C127.093 17.4204 130.069 17.0808 130.958 16.8811C132.29 15.1832 135.355 11.248 136.954 9.0907C138.953 6.39404 142.95 2.49886 128.293 1.29985C108.571 -0.13837 61.889 -0.0984195 41.013 0.101333L35.6829 1.29985L29.6866 0.101333H21.6915C1.70385 0.700592 5.70152 4.29614 5.03527 5.79429C4.50226 6.9928 10.1432 15.6821 13.0303 19.8769Z" fill="url(#paint1_linear_10621_23227)"/>
</mask>
<g mask="url(#mask0_10621_23227)">
<mask id="mask1_10621_23227" style="mask-type:alpha" maskUnits="userSpaceOnUse" x="4" y="-1" width="135" height="32">
<path d="M12.7196 21.7164L16.7231 23.4286V26.8535C16.7231 29.045 22.0611 29.8212 24.73 29.9354H43.4131L46.0821 28.5656L48.0839 30.2778L68.7687 29.5929L70.1032 28.5656L71.4377 29.5929L96.1261 29.9354H100.797C101.242 30.1637 104 30.6887 111.473 30.9627C118.946 31.2366 121.259 29.9354 121.482 29.2505C123.706 26.8535 128.288 21.7855 128.822 20.6897C128.288 19.8678 124.151 18.9775 122.149 18.6351C126.953 18.909 129.934 18.5209 130.823 18.2926C132.158 16.3522 135.227 11.8549 136.829 9.38937C138.83 6.30747 142.834 1.85584 128.154 0.485543C108.404 -1.15814 61.6514 -1.11248 40.7441 -0.884191L35.4061 0.485543L29.4008 -0.884191H21.3938C1.37617 -0.199324 5.37982 3.90988 4.71256 5.62204C4.17876 6.99178 9.82817 16.9223 12.7196 21.7164Z" fill="url(#paint2_linear_10621_23227)"/>
</mask>
<g mask="url(#mask1_10621_23227)">
<path d="M145.465 2.01788C88.9494 1.04208 26.8275 4.70131 2.83099 6.6529C-4.12127 6.93753 -14.1608 9.45318 -0.533007 8.48258C18.3056 7.14086 86.9308 3.11571 150.174 3.96953L145.465 2.01788Z" fill="url(#paint3_linear_10621_23227)"/>
<path d="M141.54 9.63228C85.9828 8.16859 24.9139 13.6574 1.32412 16.5848C-5.51031 17.0118 -15.3797 20.7852 -1.98287 19.3293C16.5364 17.3168 83.9985 11.279 146.17 12.5598L141.54 9.63228Z" fill="url(#paint4_linear_10621_23227)"/>
<path d="M148.116 22.4613C93.6953 19.2225 30.3337 23.1194 5.45547 25.4726C-1.54206 25.7119 -13.2223 29.3742 0.803162 28.2548C20.1914 26.7074 90.1733 22.4296 151.251 25.6787L148.116 22.4613Z" fill="url(#paint5_linear_10621_23227)"/>
</g>
<g filter="url(#filter1_d_10621_23227)">
<path d="M36.3936 11.539C35.6266 11.448 34.9116 11.396 34.1966 11.357C33.7156 13.827 33.7156 16.167 33.7156 17.701C33.7156 17.948 32.5716 18.039 32.2856 18.039C31.9866 18.039 31.0766 17.948 31.0376 17.597C30.9076 16.388 30.8296 13.489 30.9986 11.396C30.2576 11.448 29.4906 11.539 28.6976 11.656C28.4376 11.695 28.3596 10.668 28.3596 10.473C28.3596 10.252 28.4246 9.446 28.6456 9.342C30.3096 8.614 34.2746 8.289 36.3676 8.289C36.8226 8.289 36.9526 9.615 36.9526 9.953C36.9526 10.265 36.8096 11.591 36.3936 11.539ZM41.8688 11.279C41.6738 11.227 41.4788 11.188 41.3098 11.162C40.8288 13.697 40.8418 16.167 40.8418 17.701C40.8418 17.948 39.6978 18.039 39.4118 18.039C39.1128 18.039 38.2028 17.948 38.1638 17.597C38.0338 16.414 37.9688 13.476 38.1248 11.331C38.0988 11.331 38.0728 11.344 38.0468 11.344L37.8908 11.383C37.8648 11.383 37.8388 11.383 37.8128 11.396C37.5528 11.461 37.4748 10.538 37.4748 10.343C37.4748 9.667 37.5398 9.186 37.7608 9.082C39.1258 8.406 40.1008 8.289 41.8428 8.289C42.2978 8.289 42.4278 9.485 42.4278 9.823C42.4278 10.135 42.2718 11.37 41.8688 11.279ZM49.6025 17.61C49.2255 17.792 44.7925 18.741 43.5055 16.856C42.7125 15.686 42.8945 13.424 43.2975 11.656C43.0375 11.682 42.9595 10.928 42.9595 10.473C42.9595 10.252 43.0245 9.446 43.2455 9.342C44.9095 8.614 47.5745 8.289 49.6675 8.289C50.1225 8.289 50.2525 9.615 50.2525 9.953C50.2525 10.525 50.1095 11.591 49.6935 11.539C48.2765 11.37 47.3405 11.305 46.3915 11.331C45.7545 12.995 45.3645 14.321 46.1055 14.867C46.9765 15.504 48.1985 15.257 49.6285 14.425C49.9795 14.217 50.1875 15.556 50.1875 16.141C50.1875 16.479 50.0185 17.415 49.6025 17.61ZM58.3978 16.869C59.5418 17.636 56.6298 18.728 55.4858 17.753C54.2378 16.687 54.9788 15.309 54.6538 14.022C54.3028 14.282 53.9518 14.49 53.6398 14.672C53.5748 15.868 53.5878 16.921 53.5878 17.701C53.5878 17.948 52.4438 18.039 52.1578 18.039C51.8588 18.039 50.9488 17.948 50.9098 17.597C50.7148 15.777 50.6498 9.576 51.3258 8.666C51.5598 8.354 52.5348 8.25 52.8988 8.25C53.7178 8.25 54.6928 8.419 54.5628 8.848C54.3288 9.615 54.1338 10.421 54.0038 11.214C54.8878 10.226 55.6158 9.173 55.8368 8.445C55.9538 8.042 56.9678 8.536 57.4228 8.835C57.9428 9.173 58.6448 9.888 58.4368 10.278C58.0988 10.915 57.3448 11.747 56.4738 12.54C58.2028 14.113 56.8118 15.764 58.3978 16.869ZM65.7095 17.61C65.3325 17.792 59.8855 18.897 59.7425 16.596C59.6515 15.231 59.6255 13.216 59.7425 11.63C59.7295 11.63 59.7035 11.643 59.6905 11.643H59.5865C59.5735 11.643 59.5475 11.656 59.5345 11.656C59.2745 11.695 59.1965 10.928 59.1965 10.473C59.1965 10.252 59.2615 9.446 59.4825 9.342C61.1465 8.614 63.8115 8.289 65.9045 8.289C66.3595 8.289 66.4895 9.615 66.4895 9.953C66.4895 10.525 66.3465 11.591 65.9305 11.539C64.6695 11.383 63.7855 11.318 62.9275 11.318C62.7975 11.851 62.6935 12.306 62.6285 12.761C63.3175 12.683 64.0195 12.644 64.6305 12.644C64.9555 12.644 65.0465 13.489 65.0465 13.736C65.0465 13.957 64.9425 14.802 64.6435 14.763C63.7465 14.659 63.1095 14.607 62.4855 14.607C62.4855 14.776 62.4725 14.945 62.4725 15.127C62.9145 15.335 64.7345 15.127 65.7355 14.425C66.0735 14.191 66.2945 15.556 66.2945 16.141C66.2945 16.479 66.1255 17.415 65.7095 17.61ZM75.0381 11.539C74.2711 11.448 73.5561 11.396 72.8411 11.357C72.3601 13.827 72.3601 16.167 72.3601 17.701C72.3601 17.948 71.2161 18.039 70.9301 18.039C70.6311 18.039 69.7211 17.948 69.6821 17.597C69.5521 16.388 69.4741 13.489 69.6431 11.396C68.9021 11.448 68.1351 11.539 67.3421 11.656C67.0821 11.695 67.0041 10.668 67.0041 10.473C67.0041 10.252 67.0691 9.446 67.2901 9.342C68.9541 8.614 72.9191 8.289 75.0121 8.289C75.4671 8.289 75.5971 9.615 75.5971 9.953C75.5971 10.265 75.4541 11.591 75.0381 11.539ZM80.2503 17.597C80.1333 16.466 80.0553 13.645 80.1853 11.448C79.8863 11.526 79.6653 11.539 79.6003 11.422C79.5223 11.279 79.3793 9.355 79.6783 8.952C79.9513 8.588 81.5893 8.172 82.6943 8.12C84.1503 8.055 86.2953 8.419 86.4903 10.148C86.8283 13.242 84.7743 14.425 82.9933 14.607C82.9283 15.829 82.9283 16.908 82.9283 17.701C82.9283 17.948 81.7843 18.039 81.4983 18.039C81.1993 18.039 80.2893 17.948 80.2503 17.597ZM83.1103 12.943C83.5393 12.813 83.9683 12.371 84.0203 11.578C84.0593 11.162 83.9553 10.655 83.4743 10.564C83.3183 11.357 83.1883 12.163 83.1103 12.943ZM87.804 17.597C87.687 16.466 87.609 13.645 87.739 11.448C87.44 11.526 87.219 11.539 87.154 11.422C87.076 11.279 86.933 9.355 87.232 8.952C87.505 8.588 89.143 8.172 90.248 8.12C91.704 8.055 93.849 8.419 94.044 10.148C94.213 11.63 93.81 12.618 93.173 13.268C94.33 14.503 93.368 15.712 94.863 16.739C95.994 17.519 93.095 18.598 91.951 17.623C90.69 16.557 91.34 15.374 91.028 14.295C90.872 14.321 90.716 14.334 90.56 14.347C90.482 15.673 90.482 16.856 90.482 17.701C90.482 17.948 89.468 18.039 89.052 18.039C88.753 18.039 87.843 17.948 87.804 17.597ZM90.69 12.696C91.119 12.618 91.522 12.358 91.574 11.578C91.613 11.162 91.509 10.655 91.028 10.564C90.885 11.266 90.768 11.994 90.69 12.696ZM99.4548 11.279C99.2598 11.227 99.0648 11.188 98.8958 11.162C98.4148 13.697 98.4278 16.167 98.4278 17.701C98.4278 17.948 97.2838 18.039 96.9978 18.039C96.6988 18.039 95.7888 17.948 95.7498 17.597C95.6198 16.414 95.5548 13.476 95.7108 11.331C95.6848 11.331 95.6588 11.344 95.6328 11.344L95.4768 11.383C95.4508 11.383 95.4248 11.383 95.3988 11.396C95.1388 11.461 95.0608 10.538 95.0608 10.343C95.0608 9.667 95.1258 9.186 95.3468 9.082C96.7118 8.406 97.6868 8.289 99.4288 8.289C99.8838 8.289 100.014 9.485 100.014 9.823C100.014 10.135 99.8578 11.37 99.4548 11.279ZM107.188 17.61C106.811 17.792 102.378 18.741 101.091 16.856C100.298 15.686 100.48 13.424 100.883 11.656C100.623 11.682 100.545 10.928 100.545 10.473C100.545 10.252 100.61 9.446 100.831 9.342C102.495 8.614 105.16 8.289 107.253 8.289C107.708 8.289 107.838 9.615 107.838 9.953C107.838 10.525 107.695 11.591 107.279 11.539C105.862 11.37 104.926 11.305 103.977 11.331C103.34 12.995 102.95 14.321 103.691 14.867C104.562 15.504 105.784 15.257 107.214 14.425C107.565 14.217 107.773 15.556 107.773 16.141C107.773 16.479 107.604 17.415 107.188 17.61ZM114.866 17.61C114.489 17.792 109.042 18.897 108.899 16.596C108.808 15.231 108.782 13.216 108.899 11.63C108.886 11.63 108.86 11.643 108.847 11.643H108.743C108.73 11.643 108.704 11.656 108.691 11.656C108.431 11.695 108.353 10.928 108.353 10.473C108.353 10.252 108.418 9.446 108.639 9.342C110.303 8.614 112.968 8.289 115.061 8.289C115.516 8.289 115.646 9.615 115.646 9.953C115.646 10.525 115.503 11.591 115.087 11.539C113.826 11.383 112.942 11.318 112.084 11.318C111.954 11.851 111.85 12.306 111.785 12.761C112.474 12.683 113.176 12.644 113.787 12.644C114.112 12.644 114.203 13.489 114.203 13.736C114.203 13.957 114.099 14.802 113.8 14.763C112.903 14.659 112.266 14.607 111.642 14.607C111.642 14.776 111.629 14.945 111.629 15.127C112.071 15.335 113.891 15.127 114.892 14.425C115.23 14.191 115.451 15.556 115.451 16.141C115.451 16.479 115.282 17.415 114.866 17.61Z" fill="#EFE5CA"/>
</g>
</g>
</g>
<defs>
<filter id="filter0_d_10621_23227" x="0" y="0" width="144" height="39" filterUnits="userSpaceOnUse" color-interpolation-filters="sRGB">
<feFlood flood-opacity="0" result="BackgroundImageFix"/>
<feColorMatrix in="SourceAlpha" type="matrix" values="0 0 0 0 0 0 0 0 0 0 0 0 0 0 0 0 0 0 127 0" result="hardAlpha"/>
<feOffset dy="4"/>
<feGaussianBlur stdDeviation="2"/>
<feComposite in2="hardAlpha" operator="out"/>
<feColorMatrix type="matrix" values="0 0 0 0 0 0 0 0 0 0 0 0 0 0 0 0 0 0 0.25 0"/>
<feBlend mode="normal" in2="BackgroundImageFix" result="effect1_dropShadow_10621_23227"/>
<feBlend mode="normal" in="SourceGraphic" in2="effect1_dropShadow_10621_23227" result="shape"/>
</filter>
<filter id="filter1_d_10621_23227" x="27.3596" y="8.04199" width="89.2861" height="12.855" filterUnits="userSpaceOnUse" color-interpolation-filters="sRGB">
<feFlood flood-opacity="0" result="BackgroundImageFix"/>
<feColorMatrix in="SourceAlpha" type="matrix" values="0 0 0 0 0 0 0 0 0 0 0 0 0 0 0 0 0 0 127 0" result="hardAlpha"/>
<feOffset dy="1"/>
<feGaussianBlur stdDeviation="0.5"/>
<feComposite in2="hardAlpha" operator="out"/>
<feColorMatrix type="matrix" values="0 0 0 0 0 0 0 0 0 0 0 0 0 0 0 0 0 0 0.5 0"/>
<feBlend mode="normal" in2="BackgroundImageFix" result="effect1_dropShadow_10621_23227"/>
<feBlend mode="normal" in="SourceGraphic" in2="effect1_dropShadow_10621_23227" result="shape"/>
</filter>
<linearGradient id="paint0_linear_10621_23227" x1="72" y1="0" x2="71.119" y2="26.2854" gradientUnits="userSpaceOnUse">
<stop stop-color="#E88630"/>
<stop offset="0.494701" stop-color="#BD4F2A"/>
</linearGradient>
<linearGradient id="paint1_linear_10621_23227" x1="72" y1="0" x2="71.119" y2="26.2854" gradientUnits="userSpaceOnUse">
<stop stop-color="#E88630"/>
<stop offset="0.494701" stop-color="#BD4F2A"/>
</linearGradient>
<linearGradient id="paint2_linear_10621_23227" x1="71.7775" y1="-1" x2="70.6289" y2="29.0303" gradientUnits="userSpaceOnUse">
<stop stop-color="#E88630"/>
<stop offset="0.494701" stop-color="#BD4F2A"/>
</linearGradient>
<linearGradient id="paint3_linear_10621_23227" x1="56.7587" y1="0.485736" x2="63.4468" y2="11.7408" gradientUnits="userSpaceOnUse">
<stop stop-color="#C55F1F"/>
<stop offset="1" stop-color="#CC6A23"/>
</linearGradient>
<linearGradient id="paint4_linear_10621_23227" x1="61.0765" y1="11.2231" x2="61.2174" y2="15.4696" gradientUnits="userSpaceOnUse">
<stop stop-color="#AB3F22"/>
<stop offset="1" stop-color="#AA3F21"/>
</linearGradient>
<linearGradient id="paint5_linear_10621_23227" x1="74.5663" y1="21.0911" x2="74.6613" y2="26.4798" gradientUnits="userSpaceOnUse">
<stop stop-color="#943716"/>
<stop offset="1" stop-color="#AD421E"/>
</linearGradient>
</defs>
</svg>
